<mxfile host="app.diagrams.net" modified="2024-02-18T14:39:19.105Z" agent="Mozilla/5.0 (Macintosh; Intel Mac OS X 10_15_7) AppleWebKit/537.36 (KHTML, like Gecko) Chrome/120.0.0.0 Safari/537.36" etag="qpwgixAl30WbQBUrc9IQ" version="22.1.18" type="github">
  <diagram id="9fnjXT7nlAm7Ix4f8WDv" name="Page-1">
    <mxGraphModel dx="1238" dy="1524" grid="0" gridSize="10" guides="1" tooltips="1" connect="1" arrows="1" fold="1" page="1" pageScale="1" pageWidth="900" pageHeight="1100" background="#EFF1F3" math="0" shadow="0">
      <root>
        <mxCell id="0" />
        <mxCell id="1" parent="0" />
        <mxCell id="iMzhYnVRkj0nFMrCM1-N-62" value="" style="rounded=0;whiteSpace=wrap;html=1;fillColor=none;strokeColor=#4A909B;strokeWidth=2;" parent="1" vertex="1">
          <mxGeometry x="25" y="789" width="291.43" height="240" as="geometry" />
        </mxCell>
        <mxCell id="iMzhYnVRkj0nFMrCM1-N-27" value="" style="rounded=0;whiteSpace=wrap;html=1;fillColor=none;strokeColor=#4A909B;strokeWidth=2;" parent="1" vertex="1">
          <mxGeometry x="25" y="526" width="291.43" height="240" as="geometry" />
        </mxCell>
        <mxCell id="IjzV-WfMYcEyj9Ah22bj-21" value="&lt;b style=&quot;border-color: var(--border-color); color: rgb(74, 144, 155);&quot;&gt;&lt;font style=&quot;border-color: var(--border-color); font-size: 67px;&quot;&gt;服务发现中间件有哪些？(2)&lt;/font&gt;&lt;/b&gt;&lt;font color=&quot;#4a909b&quot;&gt;&lt;br&gt;&lt;/font&gt;" style="text;html=1;strokeColor=none;fillColor=none;align=center;verticalAlign=middle;whiteSpace=wrap;rounded=0;" parent="1" vertex="1">
          <mxGeometry x="69.79" y="95" width="828.21" height="30" as="geometry" />
        </mxCell>
        <mxCell id="ekyofGv6aXX_gGek1B51-1" value="&lt;font color=&quot;#4a909b&quot; style=&quot;font-size: 27px;&quot;&gt;关注&lt;/font&gt;&lt;font color=&quot;#4caf51&quot; style=&quot;font-size: 27px;&quot;&gt;公众号&lt;/font&gt;&lt;font color=&quot;#4a909b&quot; style=&quot;font-size: 27px;&quot;&gt; / &lt;/font&gt;&lt;font color=&quot;#ec5d86&quot; style=&quot;font-size: 27px;&quot;&gt;B站&lt;/font&gt;&lt;font color=&quot;#4a909b&quot; style=&quot;font-size: 27px;&quot;&gt;：小白debug&lt;/font&gt;" style="text;html=1;strokeColor=none;fillColor=none;align=center;verticalAlign=middle;whiteSpace=wrap;rounded=0;fontSize=16;textOpacity=80;" parent="1" vertex="1">
          <mxGeometry x="513.72" y="176.5" width="362.07" height="22" as="geometry" />
        </mxCell>
        <mxCell id="iMzhYnVRkj0nFMrCM1-N-1" value="" style="rounded=1;whiteSpace=wrap;html=1;arcSize=50;fillColor=#4A909B;strokeColor=none;" parent="1" vertex="1">
          <mxGeometry x="25" y="71" width="34.5" height="145" as="geometry" />
        </mxCell>
        <mxCell id="iMzhYnVRkj0nFMrCM1-N-3" value="" style="shape=image;verticalLabelPosition=bottom;labelBackgroundColor=default;verticalAlign=top;aspect=fixed;imageAspect=0;image=https://golangguide.top/new_logo.png;" parent="1" vertex="1">
          <mxGeometry x="88" y="162" width="50.5" height="50.5" as="geometry" />
        </mxCell>
        <mxCell id="iMzhYnVRkj0nFMrCM1-N-7" value="&lt;font style=&quot;font-size: 32px;&quot; color=&quot;#4a909b&quot;&gt;golangguide.top&lt;/font&gt;" style="text;html=1;strokeColor=none;fillColor=none;align=center;verticalAlign=middle;whiteSpace=wrap;rounded=0;fontSize=16;textOpacity=80;" parent="1" vertex="1">
          <mxGeometry x="187" y="176" width="158" height="22" as="geometry" />
        </mxCell>
        <mxCell id="iMzhYnVRkj0nFMrCM1-N-8" value="" style="shape=image;verticalLabelPosition=bottom;labelBackgroundColor=default;verticalAlign=top;aspect=fixed;imageAspect=0;image=data:image/png,iVBORw0KGgoAAAANSUhEUgAAAgAAAAIACAYAAAD0eNT6AAAABHNCSVQICAgIfAhkiAAAAAlwSFlzAAAN1wAADdcBQiibeAAAABl0RVh0U29mdHdhcmUAd3d3Lmlua3NjYXBlLm9yZ5vuPBoAACAASURBVHic7N13eFzllT/w771zpxdJozLqXTOSu1zBNjbGGEIHg7HJLvktJKTAZjekF0g2QEgCCSGFJJslsEkgsTGY0DvGxr3JXb33mZFmNL3f3x82Xgxusm+Zcj7P48cU+z3HfqW5576V4XkehBBCCMksrNwJEEIIIUR6VAAQQgghGYgKAEIIISQDUQFACCGEZCAqAAghhJAMRAUAIYQQkoGoACCEEEIyEBUAhBBCSAaiAoAQQgjJQFQAEEIIIRmICgBCCCEkA1EBQAghhGQgKgAIIYSQDEQFACGEEJKBqAAghBBCMhAVAIQQQkgGogKAEEIIyUBUABBCCCEZiAoAQgghJANRAUAIIYRkICoACCGEkAxEBQAhhBCSgagAIIQQQjIQFQCEEEJIBqICgBBCCMlAVAAQQgghGYgKAEIIISQDUQFACCGEZCAqAAghhJAMRAUAIYQQkoGoACCEEEIyEBUAhBBCSAaiAoAQQgjJQFQAEEIIIRmICgBCCCEkA1EBQAghhGQgKgAIIYSQDEQFACGEEJKBqAAghBBCMhAVAIQQQkgGogKAEEIIyUCc3AkQIhTb6gYDn+AtfILP4xN8Lp9I5PJxPodP8DmJOJ/FMEyYYRkvw8LLsIwPLDPBHPvhZhjGDRYTDMOMt65tTsj9ZyGEELExPM/LnQMhJ9TdYpsWD8cvjodijbFQrDYRTWQlYgkdH+e1iWhCk4gl1IloXBmPJFSJaFwRjyQU8XCMjYfjDB8X5muZVbJglQpeoWJ5lmMTrJKNKzRcWKlXejgt5+C03KBCzfUoVGwbq1IcZpVsU9u6FrcgwQkhRCJUABBJWVfX5yXC8UWxcHxuPBibEg1Eq6O+aFHYHc4OjQfV8XBc7hTPi9Kg5FUmdVhlVPk4HTfOabkRTsP1sSpFJ6dWNCk03Duta5sDcudJCCEfoQKACMq2poFNRBPz4uHYglgoPjMWjNZFfdGyiCeSGxoP6SOecEauO2E5FtoCXUibqx1VZalblQblLk7HvaVQKrbRlAMhRA5UAJALYr21vizqj342MhG+IugMTvcNevOivigjd16pgtNwvK5Q51fnaAfVJtURTq/cxum419rXt7bInRshJL1RAUDOmW1NAxcPxa6JeCM3hVyhiwMjgYrAiF9NX0PCU5lUCV2B3q3J07ZqcjSvKg3KP7c91zIqd16EkPRBBQA5Leuq+pqoP/LZ8ER4RdARnOIb9JpjgRi93cuAUTAwlBp9+kL9EY1Z84bSoHqy7bmWQbnzIoSkLioACIBjc/exUOzmiCdyU9gVmu8f9pUF7AEV6MsjKTEsA0OJIaArMjRrzJo3VAbVU23rW7rlzosQkjqoAMhgtjUNuog38tXAqP/2iU53fdgdVsidEzk/DMNAX2II6ov0rRqz5i2VUf3fVBAQQs6ECoAMY7213hKeCH8nMOK/yd3hqqAh/fTEKBhkVWePGUqNb2pyNQ+3r289KndOhJDkQgVABqhbZZsSHg99xzfk+8xEp7sgEaVdZ5mEYRiYqrPcxjLju5pc7c/an2/dK3dOhBD5UQGQpmpXWpeHxoJf8/Z7l3h7PCbqZwIAYABThclnLDd9oMnVPtqxoW2z3CkRQuRBBUAaqbmh7l+DjsCXPL2euf4hn0bufEjyM5QZA6YK01Ztnu6xjhfb3pQ7H0KIdKgASHF1N9sW+Id9v3S1jl8UGg/RIj5y3vRFhnBWTfYmnUX3jfbnWw/LnQ8hRFxUAKQg25oGNuKNfMfTPfEfrtbxQj5BfUiEwyhYmBvMA8Zy069VRtVjdFQxIemJCoAUYl1VXxOw+x8bbxm/KmgPKOXOh6Q/XYEumlNvfktboPtG+/rWNrnzIYQIhwqAFFBzQ+3t3j7v/eNHx+rikdS8LY+kNlbJwtyQ22MsMz7W9Wrnb+XOhxBy4agASFLW1fXm0FjoUXe7a7W3z6OXOx9CPqIv1IezbebXdfm6b9BhQ4SkLioAkkztSuty36Dv5+NHnbPpVj2SzBQqBcxTcjuNZcafdL7c8bTc+RBCJocKgCRgW9OgCrvD/zXR7f6iu92VS+fvk1STXZczlmMz/7DrlY7fy50LIeTcUAEgI9uaBjY0HnrcecD+5QAt6iNpIKs222W2mR/oerXzcblzIYScGRUAMqm8qvrBsUOOb/oG6cAekn5MVVkec0Puw92vdf5c7lwIIadGBYDEqq6tuXf8iPMBT4/HIHcuyY5hGGjyNNAW6KDSq6DQKKBQc1BoFOCO//zRf+M0CihU//ffTvz/Ez8rwDAMPppe4cGf+OdjP/PgP/bvfJxH1B9F1BdBxBdB1Bs99vNp/jk0FkLEE5b+LynJmSpNPnND7iPdr3c9KHcuhJCTUQEgkerra+90NY8/6u5wmeXOJWkwgDpLA51FB51FB22BDroC/bF/L9BBm68Fo2DlzvKcxQIx+Ed88A/5T/wcGD72z2F3ZhcHxnKT3zwl9/GeN7rukzsXQsgxVACIrObGupXuNtcT481jhXLnIgeWY2EsN0FX+H8Pd22B7sRDnlVmxunFsWAM/mE/AiM++AZ8cHe64G5zI+wOyZ2apAylxmDu1NzfqbM136UTBgmRFxUAIqldaV0+0el+cuyQszKT/o51BTpkW83IseYg25aDrKpssMrUeYuXWtAZhLvddeLHRIcbsVBM7rREZyw3+fNm5v9H18sdT8mdCyGZigoAgdXdbJvn6Zn4i+OAvYGPp/ffLaflkF2bg2xrDnKsZmRbc6DOVsudVkrjeR6+ft/HioJxeLo9SMvvUwbIn1nQmVWTvbL9+daDcqdDSKahAkAgdats9d4+77OOptHZiWj6jWwyDANDmeH4g/7YG76h3HhsYR0RVcQThmO/Hfa9djj2jyLiicidkqA4Lcdb5hW+qi8yrGld2xyQOx9CMgUVABfItqaBDdgDz4zsGFoTC8bS6mmozdfCMq8IlrmFyLGZwek4uVPKeDzPY6LTDfu+UTj22uFud6XN6IDOoo8UzLb8uPv1zoflzoWQTEAFwAWovcn6GedB+9qJroksuXMRSlZ1NiwLClE4rwimqrT5Y6WtqC9ybHRg3ygcTfa02G1gbsgdyak3r+nY0LZJ7lwISWdUAJwH25oGnW/Q+9LIzuHLU324n+VY5E7Pg2VeEQrnF0KTq5U7JXKeeJ7H+OExDGzqx/D2IcQCUblTOm+skoVlbuFWQ5lxZdu6Frvc+RCSjqgAmKSa62vvGN07+nv/UOqe4Kc0KFEwuxCFCwqR32gBp6Wh/XSTiCYwumcEg5v7Yd87ilQtVDU5mnjB3MLf977d/R9y50JIuqEC4BxZV9cXeLon3rTvGW1Mxb8znUUHy/wiFM4rgnlKLhhFWi1XIGcQ9UcxvG0Ig5v7MX5kLCXXDGTX5Yzlzci/sv351r1y50JIuqAC4BxUXV3z/ZHdwz8OOYMp9arMKFgULihCxWcqkTctH6BnfsYLjQUx+OEABjb2w9vnkTudSVHqlXzRwpInet/u/qrcuRCSDqgAOAPrKludq931pvOAo1ruXCZDV6BD+RWVKFteQfvyyWk5DznQ/Uon7HtGU2pUIHd6Xp/Zlntp2/qWbrlzISSVUQFwGhVXVP5uZMfwVyLeSEocY8ewDCxzC4+97c8qoP355Jz5h/3ofq0TA+/1pcwphOocTbzo4uL7u1/r/KncuRCSqqgA+IS6m20XjR1xvuxqHc+XO5dzocnVonxFBcovr4QmN2XXJZIkEAtE0fduH3pe70RgNAXO42GAgjmFh7Kqsy5rW9filDsdQlINFQAfU7Gi8g+DWwa/FA8l94E+DMMgv7EAFVdWoWCuBQyb1OmSFMPzPEZ3jqDr1Q6MHxmTO52z0ll0kcL5RV/ufLnjablzISSVUAEAwLa6weDucm+z7xmZLncuZ6IyqlB+ZSXKV1RCV6CTOx2SASa6JtC+vgUjO4blTuWMGAWDwgXFm4xlxs+0rm3OrCsWCTlPGV8A1N1sm2ffN/K+p8djkDuX01EalKi+oRZV19TQnn0ii4kON1r+3gxH06jcqZyRsdzkL5htuaXjxbY35c6FkGSX0QVA1TU13xj6cOCRZF3ox+k4VF9bi+obasDplHKnQwjGm8fQ+mwzxo4k75S7Qq1A6dKyX/S81f0tuXMhJJllbAFQsqTs9eGtg1fxieT783MaDpXXVKPmxlooDSq50yHkU5wHHGj5+1G421xyp3JqDFB0UfEWY7lpaeva5tQ8BpEQkWVcAWC9tb5k7Ihz9/jRsSK5c/kkhUqByqurUHNTHVQm2r9Pkt/o7hG0/r0Znp4JuVM5JXND7mjutLw5bc+1DMqdCyHJJqMKgJob624c2T70XMAeSKrxdFapQMWVlai9uQ7qbNrKR1IMDwxtG0TL344k5fZBfaE+XHhx8XUdG9rekTsXQpJJxhQAFVdU/m5w88A98XBc7lROYDkWZZdXoO4WG+3hJykvHomj4/k2dP6zPekuH+J0Sr50aemPul/velDuXAhJFmlfANjWNOgmOt3bRveMzJQ7l48wDIOy5eWou9UGbT5t5yPpxT/sw+H/PgjHgeS6xZdhGBQtLnljcHP/1XLnQkgySOsCoO4WW6N97+gmT8+EUe5cPmKsMGHG3bOQYzXLnQohohreNogjTx1CaCy5tuXnTs/vMzeY59DpgSTTpW0BUH1d7ZcHNw88EfGEk2KLn0KlgHV1PapvqKWreEnGiIViaFvbgu5XO8HHk+ezxlBqDBbOL7y8/YW2bXLnQohc0rIAqLq6+r7+9/seTJb5/vxZBZj+5ZnQWfRyp0KILLx9Hhz64wGMNyfP0cIqoypRsrTsnq5XOv4ody6EyCHtCoDKK6se7X+/75uJmPyLkNRZaky5czpKlpTKnQoh8uOB/vf7cOSpQ4gFonJnA+DYoUFlyyu+2/1a58/lzoUQqaVVAVB+eeWTAxv7Pi/74T4MUL68Ag3/byod5EPIJwQdQez/9d6kOU2QVbIoW17xk543uu6TOxdCpJQ2BUDZsvL1A5v6b4HMfxxDiRHTvzITuVPz5E2EkCTG8zy6/tmB1r83IxlG6xgFg7LlFb/ufav7a3LnQohU0qIAKFlc+u7Q1sHlcubAcixqb7ai9mYrWGVSrDskJOl5uifQ9Ks98PZ75U4FDMOg9LLyp/re7fm83LkQIoWULwCKLireObJzeL6cOZgbcjHjnlkwlCTNbkNCUkYiGkfzX46i+/VOyD2CBwYoXVr2XP/GvtUyZ0KI6FK2ALCtaeDc7a4D9n2jU2RLggFqV1ph+2wDGJa29hFyIRwH7Djwm30Ijct/bkDJJaWvD2zuv0buPAgRU0oWALY1DZrx5rFm50FHpVw5KA0qNH5tNgrmFMqVAiFpJ+qL4OAf9mN425DcqaBoYfGHQ1sHl8idByFiSbkCwLq6PnvskLNlvHnMIlcO2XU5mPOt+dDma+VKgZC01vNaF448fUj2w4Ms84v2juwcmitrEoSIJKUKAOut9RZH02izu8OdI1cOVdfUoOHfpoLlaKEfIWIaO+zE3kd3IeKJyJpHwWzL0ey6nOmta5vl365AiIBSpgCwrqqvGt0zfNDT4zHIEZ/TcZh5z2wULSyWIzwhGSnoCGDPz3ZiomtC1jwscwsPjOweniVrEoQILCUKAOvq+uzRXSN9cl3qY6rMwpxvz4O+SJbag5CMFo/EcfB3TRj8cEDWPGhhIEk3SV8A2NY0sGOHnb1jR5yynKdbfnkFpt41AwqVQo7whJDjOv/Zjpa/HoVsn1nHTvj8Q+87PXfLkwAhwkr6AqBoQfHukV3Dki/CUagVmP6lmShdVi51aELIaTia7Nj32G5EffLcJcAoWFRcWfmd7tc6H5ElAUIElNQFQNmy8ucGPuhfJXVcfZEec7+7AMZyk9ShCSFnERjxY/dPd8DbJ8/pgZyG48uvqLyt86X2dbIkQIhAkrYAqLyq+qG+t3p+IHV+WdVZmP/DhVBnqSWNSwg5d7FgDHt+thPOgw5Z4quz1YnSy8qXdrzQtkWWBAgRQFIWADXX197R+3bPU/FwXNK4uVPzMO/7F4HTcZLGFYIywkHlV0HhYYEwD97AIGaMI6wPI8HS7qV0l4n9n4gmsO+xPRjZIc+hQTqLPlJyScm0tvWt7bIkQMgFSroCoHaldUn/e70bI56IpBvtLfMLMeeb88Aqk3uxH5tgoR/QwbPXjZH2YYzbxzE6MoqAP3DKX88wDMxmM/IL85FjMaNkZgkU0zn4c4ISZ06EQP1/Mj7B49Af9qPv3V5Z4psqs7yW+YWVbetaxmVJgJALkFQFgHVVfc3ghwNHA6N+lZRxyy4rx4x7GpP2PH8uqoCuUwv7rlHs/WAPXC7XBbdZa63F1EunQdeoh88SAM8kz9cBORkXVUDbpYFzlx17NlL/n0rzX46g85/yvIibG3JH8mbkV7SubZb3xCJCJilpCgDr6nqTfc9I30TXRJaUcatvqMWU/zcNSMJnv8avgfcVNza/vAnBoHhvbEUlRbjkX5ciOD8Mnk2OrwdC/T9ZnRva0fy3I7LELphjOTq6Z2SqLMEJOU9JUQDY1jSwY0ed3WOHnJLuuau/fQpqV1qlDHlOlGElEu9F8fYzb4n6wf9JFVUVWPj5xfBNSf03wlRG/X/++t7pwaE/HJDlrIDSS8vW92/su1XywIScp6QoAIouKt4xsnN4gVTxGJbB9C/PQvmKCqlCnhNFXAHVDgXe/fM7ggzznq+pM6di5h2N8FT4ZMshE1H/C2N42xCafrUHiZi0ix9ZjkXl1VWf63yp42+SBibkPMleAJRdVvGPgY19a6SKxypZNN47F0UXJ9eZ/nqXDrt+sh3dnd1yp3LC8hsvh/5fTEhw6bmKPJlQ/wvLecCB3T/bgXhI2p1E2jxtrHRZeW3bcy3yrEokZBJkLQCqrq25t/eN7sf4hDQ5cFoOc7+3AHnT8yWJd65MXQa8+uOX4fF45E7lU6bPng7b16cgpA/LnUraov4Xx9hhJ3Y+sB2JqLRFgHlK7vDYEWdyvWEQcgqyFQDWVfVV/e/1todcIUn23XE6Dhf/eDGyarOlCHfOtFtV2PCrFxCPS/shNRmFRYVY9sPl8Bb65U4l7VD/i8u+dwS7f7oLfFzaUYySpWUvDXzQd6OkQQmZJNkKgLzp+f1jh6W54IflWMz/4cVJ9ebPJliE1vrx9vq35E7lnGg0Gtz0/ZvhnZ56D4FkRP0vnaEtg2h6bI+kCwMZBYvKq6vu6nq540nJghIySZIetvOR8ssr/0eqhz8YYOZXZyfVwx8APE+7UubDHwBCoRD+8cNnYTyklzuVtED9L53ixSWY/pVZksbk4wkMbx38g3VVfY2kgQmZBMkLgNqV1qXDWwc/L1W8hs9NRckSWW4SPi3Vewp88OpGudM4Ly8+/AKMI6n3EEgm1P/SK19RgSl3TJc0Zmg8xDkPO7bZ1jTI8qJFyNlI+oVpW9OgcjTZX4mFYpIcu1N1TQ1qbqyTItQ5M7bq8eITG+RO47yFQiFsfOA9aPx0WdL5oP6XT/X1NbCurpc0pqtlvMA35HtV0qCEnCNJCwBvv/ctT8+EUYpYRQuLMeXz06QIdc4MTj1eevBFWQ4pEdLI8AhaHzsKNkYvNpNB/S8/65p6VF8v7aj88LbBq6qvq71b0qCEnAPJvoOrr6u9a2TH0KVSxDJPyUXj1+aAYZLnfF9VWIWtD24+7aUtqebQvkPwP5t829aSFfV/8phyx3RJDwHj4zyGtg7+pm6VLfmOHSUZTZICwHprfdHIzqEnpNjvbywzYt73Lkq6W/1Cr/rR39cvdxqCeu+f78LUa5A7jZRA/Z9cpn9lFgrnF0kWL+wKKdztrjckC0jIOZCkAHC3uz4MOoJKseNozBrMv38hlAbRQ02Kzq3DO+veljsNURx4ugkMnzwjLcmI+j/5MAyDWffOgbHCJFlM5wFHddU1Nd+QLCAhZyF6AVBxZdVjjv120SfdOB2H+fcvhDZfK3aoSbOvH0I0GpU7DVEcOXAEhqM6udNIaqPrB6n/kxCn4TDv+xdBZZLu9nH7npGfWlfXS1d1EHIGohYAdTfb5g1vHfyamDGAYwf9zP3uApgqk+/7yjikxwevfyB3GqLa9uctYBKp9xYoBeOQHpte3yR3GqJK5f7XFegw99sLwCikWQ4VsAeUvgHvK5IEI+QsRPuqt61p4BwH7W9F/VHRPxmm3TUj6Q76+UjLX4/KnYLoert7od2VetvCpED9n/zMU3Mx/UszJIs3umtkSe1N1qslC0jIaYhWAPhH/OsnOtw5YrX/kaKFxSi/olLsMOfFNGBA084mudOQxIfPbErJuWAxUf+njvIVlai8plqSWIlYAs5DjmclCUbIGYhSANStsllHdw/fIEbbH6fN12LG3Y1ihzlv3r2puU3qfAwPDsMwmppzwWKh/k8tU++cjryZ0owkTnS6s8svr6R7AoisODEa9XRPvBALiHvaH8MyaPz6XCj1ybXi/+P2b9wvSZx58+Zh3rx5mDNnDubMmYPS0lIcOnQIe/fuxd69e7F161b09fWJnkegyQ9cJXqYlEH9n1oYlsGcb87Hlm9vgn/YJ3q8kZ3Dd9atsj3Svr61TfRghJyC4LcB1t5kvabrlY5X+bi4e/5ttzWg7labqDEuhMGpx9q7xB3lKywsxO9//3tce+21Z/x1kUgEDz30EB599FFRr52ttdai/ufJdfqiXKj/U5dv0Ist396MWED8nRv5swo67E2jyXVeOckYgk8BjDePPS32wz93ah5qVyX3oVqR/SFR27/tttuwf//+s374A4BKpcIDDzyADz/8EPX14p2F3tHWAb0r+bZhyoH6P3UZSoyY9R+zJYnl2G+vrb62RvSdUoSciqAFQNU1Nd9ztY6LOommNKjQeG9yHfN7Ki2bm0Vr+1vf+hb+8pe/wGw2T+r3zZ07Fzt37hT1IRA/FBOt7VRC/Z/aChcUSba4eHTP6M9tqxtS80hFktIEKwBsaxpUjv32HwrV3unM/GojNLnJ/ZahjHA4ekic7V9Tp07Fj370o/P+/VqtFk899RQUCnGOSh48MChKu6mE+j89TL1zOgwl4j+XA6N+lX/E9w/RAxHyCYIVAEFH4M/+IZ9GqPZOpfKqKknP7z5fKr84J4txHIennnoKKtWFtT937lx861vfEiirk7lGx0VpN5VQ/6cHhVqBxnvnSnJIkKPJfrX11nqL6IEI+RhBvrKtt9YXje4Z+awQbZ2OscKEKXekxgIjhVecD4y7774bjY3CbHu87777UF5eLkhbH+cYcQjeZqqh/k8fWTXZqP9sg+hxIt4I6x/2/1X0QIR8jCCfVN5+74aIJyJamaxQKTD7G/OS7oa/0+E9CVHaXbZsmWBtqVQqLFq0SLD2PjI+Pg42kXr3xAuJ+j+9+r/6plrkTssTPY5j/+gK6631JaIHIuS4C/5OrbvZutC+d+QiIZI5nSl3TIOxzChmCEHFJsRZCDVnzpykbg8AeJ6H2p+6x8IKgfo/vfqfYRjM+s85ot8yGvVFGf+Q72+iBiHkYy64AHC1u/6RiIrzxgMAWdXZKL+yUrT2xRAeDwveZnFxMQoLCwVtU4wHAABw3tQYqREL9X/69b82T4sZX5klehx7k/1S6631FaIHIgQXWABUX1d719ghp/ATiR8z9QvTk37L3ycF3QHB25wxQ/jLSqZPny54mwDA+MQ9ByLZUf+nZ/8XLSxB2WWiftwhFogyvkEvjQIQSVxQATB22PGYUImcSvHiEpgbcsUMIQqVTvhV4P39/YK3OTAwIHibAAB1ahVsQqP+T9/+n/qFGdBZxL3zwLHPvti6qr5G1CCE4AIKgMorqx719HhE2ySrUCnQ8LnUWPX/SRqz8OcUtLS0IBAQ9s1y7969grb3kbhJvCmhVED9n779z2k5TP/STFFjxEIxxjvgfUbUIITgAgoAV7vri0Im8knVN9ZCm5/cB/6cjjJb+DfAeDyO/fuFvVxGrAdARB8Rpd1UQf2f3v2f32hB0cJiUWM4mkYvqltlE+/IRkJwngVAzQ11t3m6J0xCJ/MRTa4GtTcl91n/Z8JmibMNavfu3UndHgDo9DpEVelxHOz5ov5P//6feucMcBpRLlMFAMTDcfj6aC0AEdd5fVJ5+zwPCJ3IxzXcPhUKTequJE4YxFkE9dhjj8HtdgvS1quvvirKA8BSSIeZUf+nP02uBtbbxH1Bd+y3z627xSb86k9Cjpt0AVC3ymYdO+KsFSMZAMi25qBkSZlYzUsiZhTnGtHh4WF8/etfv+B2xsfHcffddwuQ0aeZCyZ3QU06ov7PDFXX1MBUKdpAKOKROHyDvj+KFoBkvEkXAIER/+9E2/fPANM+PwNI8UXEYU0UBZYCUdp+5pln8Nprr11QG/feey9GRkYEyuhkhXXJf1eD2Kj/MwOjYDD9S7NE/bwaPzq2wLamQdxtByRjTaoAsK1p0IwfGbtMrGRKlpQh25ojVvOS4Rkesy8V7z7xu+6667weApFIBD/4wQ/wj3+Id/FY1uxs0dpOFdT/mSOn3ozyy8U7tyfiCbNhV0jUKVeSuSZVAIRcoYdDrpAok/MKjQINt08Vo2lZ5MwT7+xwp9OJm266CXfeeec5zwk3NTVhwYIFePTRR0XLKycnB74y4Q/BSUXU/5mj/vapUJnEuQESACa6J+4QrXGS0SZVAEx0uO4UK5Ham6zQ5Ip6m7CkApVBGIzi3iX+zDPPYObMmfj1r3+Nbdu2fWqf+MjICF577TV885vfxKJFi3DkyBFR85lz6Vwk2PTdAz4Z1P+ZQ2VUoeFz4r28uDtc5tqV1uWiBSAZ65z3sdTcULd6omsiS5QkNBwqr6kWo2nZxBVxzF0yFx+89oGocYaHh0/c7a5QKFBfX4+ysjIcPHgQQ0NDosb+pIL5FnjgkzRmsqL+zwyxUAxhP4nxEAAAIABJREFUVxj6IgM0Zg1C4yHhg/CAf8j3EwDvCd84yWTnXAB4+8Xb+le6rBxKvbg3bcmhaEEJcGHrtSYlHo/jyJEjor/pnYpWq0WgJih53GRG/Z+aEtE4wu4wwq7wsZ/dIYTcIUTcYYRcx/497AojPBFCPBSXJKfxo2PzbKsbDK3rmjOrwiKiOqcCwLrKVjd22CnOyTwMUHVder39fyRYH0KBpQD2UbvcqYhuyfVLEVNK82GYKqj/k1PYFYKn1wNvnwdBexDhieMPdHcIYXcYUb842zgvRMQbYUPu0EMAviZ3LiR9nFMB4B8N/FasrX8FswuhLxJ3rlQuMWUcyz6/HOseFm/VdTLQarUwXpeNEEQY/kxh1P/yioVi8PV54emdOPbAP/4j4k3No4onutyfAxUAREBnLQBsaxpU40ecl4uVQPV16X3pVXBOGDV1Nehs75Q7FdFc8a9XIqRPrg//ZEH9Lz4+zsM/7DvpIe/p9SBg9wNpdDPxRIc7p/Ym6xUdL7a9LXcuJD2ctQAIu0I/CY2Ls/XPWG5C3sx8MZpOGgk2gQVfuAid30nPB0BOTg7Y5UrEkXzDpsmA+l9YEU8YE53uEw97T68HvgEvRDucLMn4hnwPA6ACgAjirAWAp8/zObGCV12b3m//H/FY/Wic34imXU1ypyK4yz+/AkF1ag6pSoX6//zFQjGMHxmD86AdzoMOeHo9afVWP1njR8dmW1fXm9rWtXjkzoWkvjMWANbV9XkTnW5RzjRVmVQovbRUjKaTUv0dU3Bo3yHEYulzU1pVTRUiF6XGwi+5Uf+fGz6egKvVBedBB5wHHHC1u8DHM+Pt/lxEfREm7A4/AFoLQARwxgIg4ol8TayhtYorqsAqU/fGv8nyFvpx87duwbqfrpU7FUGYTCbM/8HF8Csy7+S380H9fxo84OmdgPOAA86DDowddUq2tS5VhcaCK+TOgaQHhudPP55mmVPYbN83Kvidl4yCxfI/XQGNOX1O/jtXiecjeP3Z1+VO44IoFAqsfuQ2eKppS/JkUf8DgVH/sTf8gw44DzoR8YQFzjC9GcuMAU+fRy93HiT1nXYEwLamgZ3ocouy9794UUlGPvwBgFupwbzeedi9Rfi72KWy8t6b6eF/njKx/+OROOx7RuDYf2wePzBKo0YXIjQe0sqdA0kPpy0AYsHYZ8Pu8KSvCz4X6b7170wSbAJl91TBMeRAT1eP3OlM2hWrrkRwES36O1+Z0v98gofzgAODm/sxsmMYsVD6rH2QHctk8DJIIqTTFgBBZ/ALYgTMrstBVm1mXRn6SRFNBPPvXwg8iJR6CFx67TJo1uiRAC3KuhDp3P/udhcGNw1gaOsAwm4a2j+bssvK0f9+36R+D6ugAoAI47QFgLffM0+MgEUXF4vRbMoJZAcw+yfzkf9EftIPBzMMg5vuWYnI8jg9/AWSTv3vH/ZhcNMABjcPwD9MU0OTUXZZxaQLAH2RYVikdEiGOWUBUHeLrdE34NWJEdAyv0iMZlNSRBNB0b1luLoiP2kXhun0Otxw/03w2vxyp5J2Urn/w+4whrYMYHDTANwdLpmyS3059WZwOiVigXM/SElXqN8oYkokg5yyAAi7Ql8X47ANQ4kBhpL0PPf/fCXYBNhbVFhdvgYvPPp8Uu0TLysvw6L7l8CbRw9/saRS/8eCMYzsGMbg5n44DzrAJ2gk+kIxCgb5swowvG3wnH49p+F4Ta7mIZHTIhnilAWAb8gnyj5Tevs/Pf/8EFb9djVanj4q+4lxSqUSK1ZfAc21evjU9PCXQrL2v5fzwb57FIOb+zG6awTxCO3RF1rBHMs5FwD5swvebV/f2iZySiRDfKoAsK6uN3u6JixiBCukAuCMvIV+lHyvAg1tU7DzyR2yXCCz9OqlsKwqQSA7gAhotb+Ukqn/PSoPWt46iu5XOxF0BCXPI5MUzC4AGJz1iGOdRRdSmdS3SZIUyQifKgAinsh/ilHlq7PUyLblCN5uOvJY/Zj6s5mYu3c+Nv75PUnuk29c0Ij6z02Bt9iPAGiftpzk7H+7yom9L+1C79s9iAWSZzoinamzNciqysZEl/sMv0YdNU/Ju7jnja4xCVMjae5TBUDQHlglRqCCuYVgGEaMptNSgk3APy+IhbMugbZFg+Gdg9izeQ98XuFWWZdVlGPWslkwzjHBU+qDFzTcnyyk7v/+yCA2r9uMoa0D4OM0ty+1gjmW0xYAOovOY6rIurr//d79EqdF0tynjgLWmLWxsEv463/nfe8iWOYXCt1sRlHEFdD1aOHa7cS+D/ad15vhlOlTUL+kAapZGvhocV9KEbz/c/2w7xtF10sdcB5yiJAxOZtrX7wRAOBqHcfW724+6f8p1IpEdm3OP8eOOG/jeZ7m44jgTioAam6su6XrpY71QgdRqBW44q9XQ6HKnMt/xMbwDNQhJTivEqyPQWIigag7gtB4EJFABNpsHdRmNbgsDoyJRdyYQEQfQVRFw7rp4EL6PxFNYGBTP7pf7oC33yv3HyWtsRwLhVrBK1SKBKtSxFkVG2M5NqZQshFGyUYWPnTJTgBGPsEbtn53cz3DwM8qFXaFRrHWvnf0NzzPh+T+M5D0ddIUQNQXvVKMIPkzC+jhLzCe4RHSRgBtBPjYhc0MlFBDiQSAICIALeRLS+fT/xFvBL0vdaPn9S46pW8SOC3Ha8yasMqkdisNyhFOy/WxHDvBKBgPw7IeRsG4GZZxHf95nGGZMYZlHAzLOFrXNp/7N+BKEf8QhJzCSQVAxBtpFCMIbf8jRD7+YT+6X+lA//t9iIdpG98nKdQKaMzasCpLNaE0qEaVOq6H03CtCg3XpFApdratb5F+OwYhEjipAAi7QlVCB2AYBpZ5ouwqJIScgW/Qh9Znj2JkxzDOdO13JlAalLy+yDCuMqlGOZ2yl9NyrZxacZBVK7a3r29tkTs/QuRwUgEQGA0IfktPjs0MlUktdLOEkNOIeMJoW9uC3rd7MnJFP6tkYSgx+LT5uk51tnqL0qB6sWND23ty50VIsjlRANStsk2JeIS//jfbSnv/CZFCIhpH1yud6HihLXP28DOAzqKP6Av1/eoczR6VUfkap1W+0Lq2mQ6zIOQsThQAsUDsWjECmCqzxGiWEPIRHhjc3I+WZ4+m/al96mx1Ql9ksGtyNYdUJvXbSr1yXdtzLf1y50VIKjpRAER9kUViBDBVmcRolhACYOyIE0efPoyJztOfIpfK1DmaeFZVVqs2T/u60qB6vv2F1p1y50RIujhRAEQ8kalCN84oWBhKjUI3S0jG8w360PzXwxjdNSJ3KoIzlhkDhjLTbm2+9n+m/Nu0v79y44uZt5CBEAmcKACCzmCx0I0bSg1gOcGXFRCSsY4t8GtF79vdabPAj1WyyKrJduiLDO9qczWPta1v3SN3ToRkAg4AbGsaVIFRv1boxk0VNP9PiBDSbYGfKkudyKrO6tRZ9BtUJtVjbetaxL/xiBByEg4A4uH4ikQ0IXjjNP9PyAXigcEP+9HyTOov8DOUGMLGctM+bb7uaU7LPd26tjn1KxlCUhgHANFAdIUYjdMIACHnzz/sx4Hf7MN4S+reAKsvNoRyrDlvafN0j7Wtb9l89t9BCJHKsQLAG5knRuM0AkDIeeCBnte70Py3Iyl5dK9CrYB5Sm67sdz0SOc/25+UOx9CyKlxABByhWqEblhlUkOdrRG6WULSWtARwP7f7sPYIafcqUyascwYzK7LeUlboPtW6z+aB+TOhxByZhwABO2BXKEbprd/Qian750eHH36MGLB1Jka57Qcb56S22IsNf6045/tf5M7H0LIueOsq+vNofEQd/ZfOjk0/0/IuQmNhXDgiSY4mkblTuWcGStM/uzanOd1Bbpvt/z9KK3gJyQFcXycLxejYToCmJCzG/igH0eePIioPyp3Kmel1Cn5nCm5h42lhgc7XmxfL3c+hJALw/FxXvADgADAWE4nABJyOmF3GIf+sB8ju4blTuWsjr/t/0OTq/lO27qWcbnzIYQIg0vEE4ViNKw0qsRolpCUN7R1EIf/dAART0TuVM7IWGHy5U7J/Xn3610PyZ0LIUR4HB/jxSkAdEoxmiUkZUW8ERz+0wEMbRmUO5UzMlaY/Mcf/A/KnQshRDxcIp7IF6VhneDrCglJWaO7RnDwD00Iu8Nyp3JaxnKTP3dq7qPdr3f9WO5cCCHi4/hYQvAtgJyWA8MyQjdLSMrhEzya/3oEXS91yJ3KaRnLTX7zlNxf9LzR9V9y55IK6lbZrIlIYn48HJuWiPF5fII38LGEIRHn9Xw8oU3EeR0fS2gS8YSaj/HqRDSuSsQSykQ0wcUjCUUiGlfEI3EmHk4wAKBQs7xCpeBZpSKuULFxVsnGWI6NskpFhOGYMKtgwwzHhlgFE2AUbJBVMH6GY30My/hYjnEq1NxhVsXual/f2ib33w1JLVwilsgRvFEa/icEUX8U+365G46m5NwlZywzBsxT837R80bXj+TOJVnY1jSwiVhiZjwcnxsPx2fEQrG6WCBaFvVF8yMTYVPIFVILfTpjLJBgYoEYA4AFcN4fnpyGgyZHE1ZlqT1Kg9LB6ZT9nIZrV6gVBxVqxR6WYw+0rm0W/tIXkrK4RFT4AkCpp+F/ktl8A17sfngn/MM+uVP5FEOZMZA7Ne+xnje67pc7F7nUrrQuj/qiN8QC0WnRQLQk6o3mhSfCxrArpEzEUvMZGQ/H4R/xq/0j/nwA+QCmALjyo//Pcix0BfqoOkvtVRqVTqVOOcjplIeVBuVLHRva3pMtcSIbLhFNCL5fj0YASCYb3TOCpl/tSbprew2lxmDu1LzHe97s+r7cuUip7mbbvKg/cnN4IrIkNBa0+od85qg/mnFzlIlYAkFHQBl0BMwAzACsAJYB+KrKoOL1xYZxTa62TZ2l2qzUq15of6F1t7wZE7Fx8WjcIHSjSj0VACQzdbzQhtZnm8HzvNypnKDOVsct84t+2/tW971y5yK2ulW2+pg/uiriiSwLjgWnBIb9+eGJMCt3Xsku6o8y7nZXLtpdFwO4GMB3NNmahK5I79Dmao+qTKqNnF65vn19a4vcuRLhcIlIQid0o7QFkGSaeDiOA7/bl1Rb/BiWQcEcy35TZdbVbc+1JP+JQ5NkW9Ogi/oiX4h4IleGxkMz/KP+wpAzSPOPAglPhNnwRNjiAiw4NlLwgDZfF9Nb9CMas+agyqR6S2lQPdm6tjkgd67k/HDxSFzwK/toCoBkkqAjiD0/24GJrgm5UznBWGHy588suKvzpfZ/yJ2LkOpusU0Lu8NfC4z4PzPR5S6OBWMZN5Qvp5AzyIWcwVIApQCu5rTc43nT8od0hfo31dnqx9ufbz0sd47k3DGGEkPAN+jTCtlozco6NNw+VcgmCUlK40fHsPeRXQhPJMf+fk6n5AsXFK3TFehub13bnFyLEM6DbU0DGwtG/yXoDN3pG/DO8/Z79Eie2RXycQxgLDP5DaXG3do8zVOcVvks7TpIbowmTxsVetis/vYpqF1pFbJJQpJO71s9OPw/B8HHk+MzLm9Gfnd2Xc71qf4WZr21vijiCd8bsAdu8HRN1NIcfmpSZ6kTpuqsDl2B7iWVSf2rdJyGSnWMUq9MCL0idvqXZqLiM1VCNklI0uDjCRx+8hB63+yWOxUAgM6ijxTMsXy/+7XOX8qdy/mqvcl6RcgVuts/6LvE0zNhTtWteOTUWI6FqTJrXF9i+FCTo/l9x4ttb8udEwEYhmV4PiHsmFrj1+agZGmZoG0SkgwinjD2PLIL40fG5E4FrJJF4fyi9wwlxhtb1zUn34EDZ1G3ymYNOoKPuNtdV/qHfIKvRSLJS19sCGXX5bylzdd+m04wlA/HKlkIfbJVPELVO0k/ofEQdvxwC3yD8j9rc2xmp3lK7i0dG9o2yZ3LZNjWNHART/i73j7vl1yt46X0pp+Z/EM+jX/IdwPLsTfkTcsfMJYb/1tlUv8sHdatpBJGZVLFI56IoHNsU+6Yhurra4VskhBZhcaC2H7/FviH/bLmoc5WJwrnF/2q563ub8qayCTVrrQuCYz4f+JqGb845Aop5M6HJB9NjiaeU2/erivU/6BjQ9tmufPJBJxCrYjj2BnUgkm2E9AIuRBBRwDb79+CwKi8251zrDnO3Bn5l6TKYSzW1fXZYVfoIU/3xGfdne4cWr1PziTkCimGtw8tBoNNOXU5LlNV1t/VOZr72ta1uOXOLV1xCpUihgu4gOJUYsGokM0RIpvAqB/b79+KoEO+hz/DMihaWPK2ocRwVSpsq6q5oe4235Dve+NHx6bFApl35C65QDzg7nDnuDvc93A65d2WeUWHDcWGn6bbmRbJgGNViigAQc8BiPppBICkPv+wD9vv34rQWFC2HNQ5mnjxopL/7Hql4wnZkjgHttUNhqAz8ISrzbXKN+AV9POEZK5YIMrY94xMtwN/N5aZ/pxjzVmvzdPdk4qLXpMRp1CyEaEbpREAkup8gz7s+OEWhMZDsuWQCkP+1tX12UF74E/Og46VoXGa2yfi8Q14tb4B7+c0Zs2/lC0r36At0H2RpgcuDMcqFYJ/wtEaAJLKvP1e7PjhFoTd8pzulwpD/tbV9QWBEf+TzgOOa+igHiKl0HhIMfBB/yp1lvrm0qVlr+kK9V9oW9dilzuvVMSxSpYKAEKO8/R4sONHWxHxyPPwT/Yhf+ut9SX+Yd/TzgOO5RGvsLuHCJmM8ESYHdw8cJ3KqBouuaT0PX2R4Y6251qS5zauFMCxHCv46qZkORedkMmY6JrAzv/aiohX8Fmxc5LMQ/7WVfU1viHv0479jsW0sI8kk4g3wg5tGVzB6ZT9xYtKthiKjXe0rW/plDuvVMAp1AqH0I0GnUHwPA+Goc8JkhomOtzY8eOtiPqkX7+SzEP+datsU3z93qccBxzz4yG6eY8kr1ggygxvG7pEoeHaiy4q3mUoM97Zvr71qNx5JTNOoeF6hG6UjycQGgtBm0eLgUnyc7WNY+ePtyMWkP7hn6xD/nW32Bq9fZ6nnAccs+IRYU8KTTcqkxpKgxIKlQIK9fEfx/+ZPcV/+/ivA4B4OH7sR+QTP4fjSJziv8UjcUR9UdmmqZJdPBRjRnYOL1A02Y8Uzi/abyw33dn+fGuT3HklI06hVrSL0XDQHqACgCS98ZYx7HpgO2JB6detZNVku/MbCy5OpiF/2+oGg2/Y9/zoruErhT4iPBWxHAtNnhbafC10+Tpo83TQ5P/fv2vytFCo5Nn8EI/EEXIGEXAEEHQEEXIEEXQG/u/fnUFk8lHL8Ugco7tHZjkPOvaVLCl7y1BkuIW2D56MU6gUolwdGrAHYJ6SK0bThAjCN+jF7od2yPLwz52aN2iemjulbV2LR/Lgp1F1Tc137HtHHwiM+lVy5yIlRsHAWGZCVk0WjGUmaPO10ObpoC3QQp2lAZJ04kOhUkBfbIC+2HDqX8AD4YkQgvZjhUHQEYS334OJzgl4+z3g45lxNGM8HMfQhwNX6iz6sapran7Y/Vrnz+XOKVlwrJLdL0bDQbu8x6YSciYRTwS7HtyBqF/6Yf+COZYj2bU5s5Ll4pO6m20LXK3jL4wdcZbInYvYWI6FsfzYwz6rJhtZNdkwVZjAKtPwCAMGUGdroM7WINuac9L/SkTj8PR6MNHpPv5jAt4+T1qPGARG/aqe17t+ljct/6s5NvPN7S+07pQ7J7kxPM9DqVUmYgIv8ClbXoGZ/94oZJOECCIRS2DHD7divFn6K32LF5W8P7hlYLnkgU/BtrrB4BvyvTC6e/iKdBzuZ5UsTBVZJz3sjeUmsBztXjyVRCwBb9/JRYGndwKJaPoVBQq1ApZ5RW8big03Z/K0AMPzPPRFhnBgRNhhv7zp+bjogUVCNkmIIPb/ei8GPuiXNCbDMii9tOxvfe/1fk7SwKdRdXXN9+37Rn4UGA2kzXA/wzLIrstB/uwCFDRakFWdBUZBD/sLwccTmOiagL1pFI59drjbXeAT6TN1oLPoIgWzC3/c/Xrnw3LnIgeG53nk1JnH3B0us5ANa/N1WP6nK4RskpAL1v58K1qfbZY0JqtkUXZZxU973uz6vqSBT6HuZttF461jL4wfGSuWOxchqHM0KGgsQH6jBfmz8qE0pE09k5Sivggc+x1wNI3C3mRH2CXfUdlCMk/NHTLbcm9uf6F1h9y5SInheR4FjZYOx357jdCNX/nMNVDqBb1okJDzNrxtEHt/sRtSXkvL6ZR82WXl/971SsfvpYv6aceG+70bRnePrEjl4X5GwcLcYEZBowX5swtgqsySO6WM5umZgGOfHfamUYw3j4OPp+50wbFpgcJ3DMXGlZkyLcDwPI+SS8reGtoyIPjr+sUPLUbu1DyhmyVk0tztLmy/bwuk3NOuztHES5aU3tL5z/Z/Shb0FGpuqL19ZOfwk6k63K/OUqPwoiLkN1qQNyMfnJaTOyVyCrFgDM6Dx0YHRnYMp+yJsDqLLlK4oOgLnS91/E3uXMTG8DyPyquqH+x9s/s+oRuf+vnpqLpW8IEFQiYl6Ahiy7c3IeyWbrhSV6iPFC8sWSrnkKJtTQPrH/a9NLR16NpUezNjORaWeYUovawcBY0WMIok3YtHTomP87A3jWLg/T6M7h5Jud0FjIJF8aLiV/VFhhuS7XROIXEAwGm5dwAIXgB4uieEbpKQSYkFY9j98HZJH/6mSpPPMrdwdtv6VlEO2ToXdatsU8YOOja52lwpNQSXXZeD0mXlKLmkhObzUxijYGCZWwjL3EJEfREMfjiIgY19cLe75E7tnPDxBAY3D1ybY80ZrVtlW5quRwpzAKBQKbYo1AoIPTc4QQUAkRHP89j3yz3w9Eh31k5OvdmeNyN/atu6FqdkQT+h6pqa7w1tGXwo4kmNa3o1uRqULC1D2bJyGEqNcqdDBKY0qFB5VRUqr6qCb8CL/o19GNzUj9BY8i8gdLW58vwjgUNV19Tc1/1a50/lzkdoDM8fWxFlqszyeXs9eiEbZzkWV629lrbiEFkc+fMhdL8q3aVgOTazI39WQXnr2mZZPtlsaxp0np6JjSO7hudLudDxfChUChQuKELpZeXIm5lPF4dlGJ7n4TzgwMD7fRjZOSzp2pzzwgCF84t2mSqzlrWubU6bU+5OFAAFsy2tjia7VegAS361jFbqEsn1vtmNQ/99QLJ4pkqTzzK/qEquN//aldZl9r2jr3j7hC3ihabN06L6+lqULa8Ap6PFfASIBWLof68XXS93IOgMyp3OGRnLTf6COZbrOja0bZQ7FyGc+A5UmdTNAAQvACY63VQAEEk5Dzhw+MmDksXTF+rDlrlFs+R6+FesqPz90JbBLwt9mqeQjGVG1NxUh5IlpTQiSE7C6ThUXVeDyqurMLh5AJ0vtsPb75U7rVPy9nn0QXvgvYoVlX/sfafnbrnzuVAnCgClXrkdwA1CBxg74kTZ8gqhmyXklCKeCJoe3yvZRSeaHE28aGHJ0rb1LdLNNRxnvbXe4mpzbXUeEP4MD6Hk2MyoXWmFZV5h0l6qQ5IDo2BRuqwcpZeWY3T3CDo2tMHVOi53Wp8SC8WYvnd7v5I/y3JFjjVnUdtzLaNy53S+ThQAnJZ7C8DPhA4wdli2tVAkAx36437JVvwr9Uq+ZGnpTXJcKlJ7Y90Nw9uH1gfsgaQ8aatgjgW1K610IyiZPAawzC+EZX4hxo+OoWNDG+x7k+8Z6zxgrwkM+/prb6xb1fHP9pfkzud8nFgDAADaXG00NB4SfGLusj+sgK4wqacmSRoY3NSPpsf3ShJLoVKg/IrKL3e90vHfkgT8mKpra+4d2Nj3y1gguYb8GQWD4kWlqF1ZB2OFSe50SBrx9nrQsaEdQ1sHku4aY07H8aXLyr/R/Wrnr+TOZbJOKgDyZxT0OA85BB+vn3F3I8pX0DQAEU9oLIhN//m+JNf7MgoG5SsqH+h5o+tHogf7hIorKn83sLH/nmQ6WIVhGZSvqETNyjroCnRyp0PSWMAeQOeGdvS905NUlxKxHIvSZWVP9L7d8+9y5zIZJ63G0eRpRTm1bOywQ4xmCTmGB/b/dp8kD38AKL20/M9yPPxLlpS93vdub1I9/PNm5mPJry7D9C/PpIc/EZ2uQIfpX56JJb+6DHkz8+VO54RELIG+d3vvKVlS9rrcuUzGScP9KpPqBQCrhQ5C6wCImHre6ILzgDRFZvElpW/0vdvzBUmCHWdb08C5O1xN9r2j06SMeyb6Ij2m/Nt0WOYXyp0KyUDGciMu+q9FGN01gqP/ewj+Yb/cKQE8MPThwFWWuYWHsmtzGlvXNsfkTulsTioAOA33Iqfl+FhQ2LnF0HgIvkEfDCUGIZslBP4hH5r/ckSSWJZ5hU2Dm/uvliTYcdbV9eaxQ84j481jSfGk5XQc6lbZUHVtDViOtvMReVnmFyJ/dgG6X+1E+/pWxALyP3Pte0enxQKxfuvq+qlt61qSbxvDx5z0Hdy6tjlmLDOOiRHIeZCmAYiw+ASPpl/vleQUsbwZ+T1Z1dlzRQ/0MXWrbNbRXcO9yfDwZxgG5ZdXYNkTK1BzYx09/EnSYDkWNTfWYdkTK1B+eUVSnCo53jxWOLpruLdulU3ws3WE9KnvYm2+TpTj00Z3DYvRLMlgHS+0wd0m/uUi2bXZLnND7lQpbwWrXWldNrh54LCnxyP7sJm5IReLf7EUM+5phDpbLXc6hJySOluNGfc0YvEvlsLcIP/2U0+PxzC4eeBw7UrrMrlzOZ1PFQCqbPVrYgRyHnIi6pNmkRZJfxNdbrStaxU9jjpLncibWbBEyvO/a66vvaP/3d53gzLv8dfkajD7G/Ow8OFLkFWdLWcqhJyzrOpsLHz4Esz+xjxocjWy5hK0B5T97/a+W3N97R2yJnIanyoAlHrl38QY3uPjCYzuGRG8XZJ5EtE49j++F2Lfcc8wDIoWlXznBUnRAAAgAElEQVSn/fnWw6IG+piqq6t/1Pt2z1MRb0TWMfbiRSVY+vhyFC8ukTMNQs5b8eLjX8OL5P0ajngjbO/bPU9VXV0t+c6hsznpHICP5NjMTnebS/AxlMIFRZj73QVCN0syzNGnD6Pr5Q7R4xRdXLx1aNvgYtEDHVd1bc29fW/3PJaIyrfNj9NxmP7FmShZWiZbDoQIbXBTPw796YCsiwRZJYvyKyq/nkwHBp3yLcNQZNgkRjBHkx3xUJJf+0iS2tgRJ7pfEf/YfVNVlsdYbrpM9EDH1Vxfe0f/e32/lPPhb56ai6WPX0YPf5J2SpaWYenjl8E8Vb61AYloAv3v9f0ymaYDTlkAqM2a34gRLB6Jw96UfGc6k9QQj8Rx4Df7cKpRKyEpDUq+oNFyReva5oiogY6rvbHuhv6NfX+Oy3SbH8uxaLh9Ki5+cDG0+XSYD0lP2nwdLn5wMRpunyrbjZTxUIzp39j359ob6wS/eO98nPJvoWND2yZ9oT4sRsCRHUNiNEsyQPcrnQjYxV+LV7y49GGpLvipXWldOrCpf0PUF5Xl4W8oNWLRz5eiZmVdUmyfIkRMDMOgZmUdFj+yFIZSoyw5RH1RZmBT/4baldalsiTwMactg4wVJlEuVB/dM4J4mKYByOREPBF0bGgTPY5lXuH+nje67hM9EIC6W2yNQx8OvBt2h6V/HWGAymuqseSxS5FVnSV5eELklFWdhSWPXYrKa6pluaY67A6zQx8OvFt3i61R+uj/57QfPNo87TNiBIwFYhjeNihG0ySNtT3XIvoCHmOZMZBVlX2JqEGOs66y1Q1vG9wedAYFv33zbFQmNRbcvxDTvjADrFIhdXhCkgKrVGDaF2Zgwf0LoTJJf75F0BnkhrcNbreustVJHvy40xYASoPqT5xOKcpka987vWI0S9KUf9iP3jd7RI3BaTi+YG7hta3rmn2iBgJgvbW+aGTXSJN/2C/5p46xzIjFjyxFfmOB1KEJSUr5jQVY/MhSGMuknxLwD/vVI7tGmqy31hdJHhxnKABa1zaHsmqy+sUIOt48Bt+gV4ymSRpqeeaI6Hv+iy8pfaJjQ9tGUYMAsK6uz7bvGz3q7fPoxY71SfmNBVj0s6XQWWihHyEfp7PosOhn8hTG3j6P3r5v9Kh1db3kp22dce7RUGRYL1ZgGgUg58LVOo7hbeIuHM1vtLT2vt39VVGDALCtadA4DzpaJjrdkn+jV15djfn3XQxOJ/mMAyEpgdNxmH/fxai8ulry2BOd7mznQUeLbU2DpEcXnrEAUGWrHxBrGmBgY7/ob3Uk9TX/r7g3/emL9OHsuuyFogY5ztU6ftjVMm6RItZHGJbBtC/OwLS7ZoBhaZU/IWfCsAym3TUD074o/feLq2Xc4modl+zUUeAsBUDbuhaPud7cIkbgiCeMkZ10NDA5vZEdwxhvEeVyyhMK5hR+TYorO8suq/i7Y7+9Ruw4H8fplMfeaK6S/o2GkFRWedVHI2bSXsfh2G+vKbus4u9SxTvr9iN9seF3YgXve7dHrKZJiuPjPJr/Ju7bf96M/J6uVzr+KGoQADU31H12aMvAbWLH+bhjc5pLaLEfIefp2JqZJZKvmRnaMnBbzQ11n5Ui1lkLAKVe+UdtnlaU/VeO/Xb4BmgxIPm03re74R8Sb0G+QsPx2XU5K0ULcJz11vqK4e2D/yvlEb/mhlwsfuRSWVY1E5JOju2auVTS64UT0QSGtw/+r/XW+gqxY521AGhd25zItuZsEyU6D3S+2C5K0yR1xYIxtK0V96pfy7zCt9ufb20SNQiAsSPO7UFHULJxxII5hbjogUVQmVRShSQkralMKlz0wCIUzCmULGbQEVSOHXFuFzvOOZ1AprPoHxIrgYFNAwg6g2I1T1JQ54Z2RDyinEQNANAW6KKGIsMtogU4rnRp2cvjR8ck29+bP7MAc78zH2Jc501IJmM5FnO/Mx/5M6WbUhs/OlZUurTsZTFjnNMnRceGtndMlSZRxmP5eEKSq11JagiNhUT/eiiYbXlY7AN/qq+r/dLQ1sHrxIzxcblT8zD3+wvAKunhT4gYWCWLud9fgNypeZLFHNo6eF31dbVfEqv9c/60MFVlvyRWEn3v9CDqk+TiNZLkWv9xFPGIeHdF5NjMjp43uv5LtAAA6lbZrMNbB5/g4+LeWviRnHoz5t13ERQqOtaXEDEpVArMu+8i5NSbJYnHx3kMbx18om6VzSpG++d8Kog2X/t1Tqf8bCwg/K1l8VAc3a91wbq6XuimSQoJjQUxsFGUwycBHBvGMzfk/qtoAQDY1jRwzoOObSFXSJKncXZtDhbcvxCcJj0O+FHEFdD3auE5OAGP3YMJuxvOUSecDicMRgPyLfnIKTDDlG9EjtWM2JQEQlrxpovI6WmCanBHWbjaxuFxeOGyj8Mx6oDP60Nefh7yLHnIKsiGqcAE0/Qs+CuDiCtS/yI4TsNhwf0LseNHW+HucIkeL+QKKZwHHdtsaxoKW9c2C7ogn5nM3epFC4p3j+wanitkAh9RGVVY/j9XQqGmt5hM1fpsM9qfF2/xX+GCop3DO4YuEi0AgJLFpe8NbR28TMwYHzFVZeHiBxZDaZB2r7IYjEf1GN42hD2bd8PnPffZGZZlMWPODNReYgU/j0FYQ8WAmNQhNZjdPDo+bMPBvQeRSJz77haD0YB5S+eh8OJieKf4RcxSGlFfFNt/uAWe7glJ4hUvKnl/cMvAciHbnFQBUHuzdXHXix0fTub3TMaUO6ah+vpaUdomyS0RS+C9u95C2C3OB7g6W50oX/H/27vv8Ciuc3/g39nZri3SatU70qrQMcU0F7DBPRQbTJybHtu5Tn656cXJTbkpN4kT5yZOc5Lr2IkLYOOGKzZg0ztCAiSteu9te539/QG6wZiiMmdmy/t5Hp7HCPGeYyHNfOecM+cU5tq31nYzaQBA0R3FX299s/kRVj8fFzLmG7Hkx9fF/Gp/U6MBx/73COw1Uz/q2WgyYvWnbkH4OiCkZHtyZKJRhpTg9wI7nnwbTsfUX90urSjFgs8ugqOY+dlbTAUcARz8z71wtrF/nZ3jOBTcVvSN5tcbfyVazYlerFJnWLtYrWxWG9VY+edVku++ROTXuacDJ39zjFn9/JsLHm99p+XzrOqXbizPaHu3tdMvwdC/IceAJT+5Dppk6Y8wFYthUI/6/63D8YPHRa+dmZWJGx9YCddcj+i1E5GhUo/3/rILPd3i79w6f8l82D5bBldq7P5b+Uf8OPi9vXB1sg8zmhRtOP/mghz71tpeMepNeMmwqcj8iBgNX0rAGUDDNtoXIBG1vNnErLap0OzUpuoeYtYAAGeb41Upbv5aixaLf7Q8pm/+ptokvPofLzO5+QNAT3cPNv/oWYS2+KGI0PkHk6WIcAht8WPzj55lcvMHgOMHj+PV/3gZplrJD8cUjSZZg8U/Wg6thf05Pv5hH+9sc4j2auCEA0Dza42/Sco2+MTqwCXqwzdI+wIkEkfzKIYZbcfPcRyss9Meqttcw2wrvpJ1trt6j/UuYlV/jEKpwPxvLYI2VdIDw0TDRTiod/J47uFn4XGzf+J7a/Ob6PhlGzS+2A1LctH4NOj4ZRve2vwm87Y8bg+ee/hZqHfy4GI0sGlTtZgv0R4cvcd6F5Wss4nyivGkemspt2wVo/FLCQfCqHuOyflDJEqxfPpPKbf0NL5S/zSzBgAMVA/8Q4qTLWfePxsppdK8fsRCcIsXL/5+G6RYIzHmxKHjOPbwIQoBE6DxaXDs4UM4cYjNCM2lRCIRvPj7bQhuid2Hv5RSC2beP5t5O5GwgIHqgX+IUWtSAUBr1X1FbVQzu+J17GqTZFEFkV/QFUTnng5m9c3TzD9jVhxAwerC3482jiSzbAMA8lcVIH91IetmmNHtV+OtLW/J0nZrcyuaf9tA0wHjoIhwaP5tA1qbW2Vp/60tb0G3P3YXtuavLkT+KuZb+GO0cSS5YHXhlA/qm1QAsG+pHbLOTX97qo1fTiQSQc0/2J4ER6JD+65WhP1s3g025hk9Ta81PsakOIDSjeU5vUd7/p1V/THJthTMvH8O62aYMTUZsO3RF2Ttw4lDxxHYymzmMm4EtvokffK/lG2PvgBTk0HWPkzFzPvnINmWwryd3qM9/166sTxnKjUmPWGRlJX0KZajAH3HezBYPcCqPIkGEaD1rWZm5VPKLX9nVhyAo2V0u3/Ez3TST2PWnNvfP0a3+NU6tdj+o1cm9L44K29tfhOGSmmPdo0lhkq9JHP+VyMIArb/6BVonbG51kWhOndugMbMdtrJP+JXOFpGt0+lxqSvKvYttX1pc9OZjulVP34KQkj+Cwdho7+yF+5uNhuCaFK0Ya1F900mxQEUr7Wt7zvRO49VfQDgeA7zv7EI2lQdy2aYGn1lSJT3xsXy3l92QRmKj10TxaQMKfHeX3bJ3Y3/43Q4MfoKm4XBUtCm6jD/G4vA8WynnfpO9M4rXmub9LHmU3qs0GclfZrlKICr04mGF6e+QQiJTi1vsHv6T51p3VG3uYbZUvOBqv6/s97rf/qnZ8IyQ7pzyMVmGEjCzpfelbsbH9DT3QN+r9y9iD78XjB71W+ydr70LgwDsft6oGVGKqZ/eibTNiLhCAaq+ic90jmlAHB+FIDpmFHDC3a4u2J7tyjyYZ5eD/qOi7KXxYfwGh5JGUlfYFIcQP6qwscdzaMmVvUBIOeGPBTdUcyyCeZan22OiqH/i+148m16K+ACGp8GO55ktqRr0gRBQOuz7B4SpFB0RzFybshj2oajedSUv6rw8cn83SlPLOqzkj6jNrEbBRCCAqr+XMmqPJFJ69vNzF4HS52VVm1/vpbJlaN0Y3le75Huz7GoPUafmYTZD81l2QRz+hEdDu4+IHc3LsnpcII7Kt2riNGOOxqJqmmaCx3cfQD6kdidAgOA2Q/NhT6T7UhG75Huz5VuLJ9w0phyADg/CvDGVOtcyWD1ADp2t7FsgkhICIbR/i6b14w4joMxz/gVJsUBONsdWwOOANMVebMenBPzR/tGzkT3qW8Ne2lqcUy0fy2i/Xvpang1j1kPsn2LJ+AIKJztjgnvzyPKhUyfmfRpjVnDdKzv7JOnEXAGWDZBJNJ7rJfZv2VKuaWn4UX7Tha1SzeWZw1U9V/LovaYnOtzkTY3nWUTkmja3yh3F66o6ngVtF6aBtB6Nag6XiV3N64o2r+XxiNtbjpyrs9l2sZAVf+1pRvLJ3ROjygBwL6ldiB9QeaTYtS6nIAjgLNPVLNsgkik7xi7xUYsN/7x9LofD3lCzJb1qgwqTP/MLFblJaPxq1F5JLqn7QRBgPJsbL5aKSblWUVUrtO4UOWRSmj8sbs50Jjpn5nF9OjukCfEeXrdE1oLINpPgM6qu9+Yb2J6yHPHe+3o2tfJsgnCWgToO8Fm8Z+B4cY/ZZsq9IPVA7ezqD2m4hMzmL87LAVNtxrhcPQP2w7bY/c1M7HEwtcgHA5D0x37AUBj1qDiEzOYtjFYPXB72aaKcW92IVoAqNtcI1hnp31NrHqXU/WnSnj7Y/foyEQ30jgM/4ifSW1LmeUpJoUB+Aa9j/oYnvZnqUhF/s2FrMpLShiN7ifKMY7+6Fz4JqVY+RrEyvfU1eTfXAhLBbtXe33DPt436H10vJ8v6hhY0/aGx62z01rErHmxkCeIk48eR0SgVbyxqO8Ym6d/TbJG0Kbqvs6kOIChmsFPsqrN8QrM+vxcIE62qg+NBOXuwrgM90X/0y9rsfI1iJXvqavigFmfnwuOZzf9NJFrlei9SLal3MNr2K5gHqodRP3zdUzbIGz0Hmcz/59cknKa1cY/RbcXP+zqdDHbl7R4XQmM+UZW5SXnjZHjvPt7++Xuguxi5WsQK99T42HMN6J4XQmz+q5Ol7bo9uKHx/O5ogeA+hfqjmcsyGSyCvsD7Wytw1DtIOtmiIj8I36MNo4wqa1L1/+TSWEAI/XDzKa29JlJKN1Yxqq8LAKe2Hhbx+WkDcZi5WsQK99T41W6sYzp3gDjvWYxGYdIyjHco7XqQixqj4kIEVT+5jhCnjgZGkoAfcd7AQYzN6okVURtVE/5aMxLKV5ju2+kYdjCojYAzLx/NhSq2H7n/2K65NjYuMWaZpW7C7KLla9BrHxPjZdCxWPm/bOZ1R9pGLYUr7Hdd9V+sGjcvqV2JGN+5iMsal/I0+dB5WMnmNxUiPj6GA3/m0tSmuo21zA569XRPMrstcLk0hSkX5PBqrxstJbYOMXNmhEbNz+WYuVrECvfUxORfk0GkkvZHRs8nmsXs5UILW81PZw6K4359n09h7ph31zLuhkyRZGwgP5TfUxqJ2XqmRw2b7u7dOngmYECFrXP1Y+vof8xfHJsnLZnTk+Wuwuyi5WvQax8T00Uy2vA4JmBAtvdpUuv9DlMd8JIKUtZxfK0wDH252vRfbCLdTNkCgbPDiLkEX9WiFfzUJs1vxK9MABnu/OPrN42MRaYkLEwk0lt2aXExusMpnSm5znFhJj5GsTI99REZSzMhLGAzb9BRIjA2e7845U+h2kAqH++zp65JPu3LNsAAESAyt8dh6NllHlTZHJYvf5nLknutm+pHRC7btmmCv3Q2UFmk3Qld5fGzWt/F3NneGA2m+XuxlWZZkV/H1mLha+B2WyGOyNO937hzl8LGBk6Ozj7ShsDMd8Ls/Xt5q+mzrAy374v7Avj6M8OI+Bgs8kMmRpW8/9JWYbXWdQNOAP/EXQHmdyik7KSkL0sh0XpqCAoBCy4cYHc3bgig9EAd2H8vFo2We5CLwxGg9zduKIFNy6AoIiPjYAuJXtZDpKy2LwREHQHuYAj8OXL/bkkm2GnlFtuVRnUzJfqefs9OPbLI4iE4/ebJRZ5etxwdYr/uhHHc9CmaH8uemEAnh73x1nUBYDi9aXgFHH6+H9eepRPbyy4fiHCfPRvV8xamA9jwfUL5e7GFUX799JUcQoOxevZjQJ4et3/drk/kyQA1L9QdzprcdafpWhr6Mwgqh8/JUVTZJxYbf5jLjIP25+vFf2osLJNFeqRhmEmq3O0qTrk3jjhY7tjjt8WgE4Xva9uZS3NlrsLUSOavxY6nQ5+W3ztAXApuTfmQZvK5udlpGG4rGxTxSUPU5DsOKzWd1oeslSksjsG7gJt77Si9pmzUjRFxoHV/L8h18hkw6mgK/D5gCPA5GejeF0JFMr4P4UuoA5i9cdvkbsbl1RaUQrndKbnlsUU53Q3SivYPYFOxeqP34KAOv73elEoFcx2Bww4AoqgK/D5S7bLpMXLSJ2Rer02RSvJuFvDC3Y0vdogRVPkKlidOKa16Jis/vf0ej7Doq7GrEH+qkIWpaMSf5MKFguzPZQmbcFnF8ndhagTjV8Ti8UC/iZ2x+dGm/xVhcxOA73cNU3SAGB/vq4+a1nOFzhemvnPs0+eRvtO5lsRkCvw9nuYvP5nzDe567fVHRa7btmmCsVI48hMsesCQMEtReDV8bXr35UE1EHc/NlVcnfjA+YvmQ9HcWxsfyslR7EL85fMl7sbH3DzZ1clxNP/GF7No+CWIia1RxpHZpZtqvjQ/V7yscim7Q2PZy/LeU2SxiJA1R9PoudQtyTNkQ9ztjmY1DXmGw+yqBv0BD/jZ3Tsb9by+F35fzm+xUHMumaW3N0AAOiT9LB9Nj43XxKD7bNl0CeN+yh5pmZdMwu+xYlz8x/D6hrhH/bxQU/wQ6MAskxGJmUZ1lgqUtlMDF8kIkRw4tGjGKiOjVOv4o2jlU0A0CRrX2ZR19vneYBFXWOeEca8+Dnxb7wEhYDyr01HVnaWrP3gOA5rv7cOrtQ4fZ9cBK5UD9Z+bx04Tt43VLKys1D+telx/erf5bC8Tlzq2iZLAKjbXCOkzrAu0aayPTBojBAUcOxnhzFcFxtnX8cTJ4sAwAFKnZJJABhtHJnHom5WHL/3fzVevR83fn8l9Hr5ni7XfWE9HOW08O9qHOVurPvCetna1+v1uPH7K+HVJ+5+LqyuFZe6tsm2HNn+fG1z1tLsBzlemi6EfCEc/uEBDFaLvmkcuQIWUwC6VF3IvrVW9M2litfYPuod8DLZdDxraeIGAABwZrix5ofrZAkBt957K4IrE+9pcrKCKwXceu+tkrer1+ux5ofr4MxI7KDG6lrhHfAqi9fYPnrhx2R9H6np1YYnspfnMHmSu5SQL4TDPz6I3mOSvI2Y8CLhCFwd4i+40qXrmZwq5O33fIFF3UQd/r+Y0+bGmkfXSTYdoFAosOHrG6HcpEWEoyNDxyvCRaDcpMWGr2+EQiHNLSIrOwtrHl0Hpy2xb/4A42mAi65xsr+Q3PFe27q0uemib+ZyOUIwjGM/P4Kufcx3J054ri4XhJD4T16aZK1d9KIAXB1OGv5nzJnhxvJHrme+MNBoMmLTI/fBuyz+N5FhxbssgE2P3AejiW14nXXNLCx/5PqEf/K/EKtrxsXXONkDAACklFrmmqeZJTvJJxIWcPLRY2jf2SpVkwmJyfw/ALVRLfobAGWbKvTubjeT8elEH/6/mFfvR9F3bdj4jXtF3ydAoVBg1d2rccvv74BjGr3uN1WOaS7c8vs7sOru1aKPBlgsFmz8xr0o+q4toef8L4XVNcPd7dZfeDhQVByyXLelxlW6oWxhwBk84+33SLLzQyQSwak/nETIG0LRncVSNJlwWAUAZZLyDbFrhnyhO1iMVtDw/6UJCgGepX7cuOAmhHcGseOfb8PrndrhPEtWLEXBfUVwWd3wwSdST4nP6IPm3/TYeOtH0fpsMw7uPjClejqdDqs/fgv4m1TwqOnGfylj1w1nu1PUukJIQMgXugPA80CUBADg3CZBJetK17buaHkt5GFzCtuHRIAz/1sN/6gf5fdNj9vjWeXCYgGgUq+KNGyz7xO7btAVZLJvLQ3/X1lAHQRuA2676U5o6tXoO9qDY+8dw+jo1QcEeZ7H3EVzMW1ZMbgZPDzJXrhAw8isuKxupH4pHRs/8VFEzoTRtL8RlUcqEQ5ffXNXs9mMBTcuQPrCTPhtAQTUQYSReO/5T0TWshw4N9eKXvf8te55AOAikehaHFN0R/E3W99u/kUkLG2/MhdnY96X54PXJM5Obazt+vw78PSKe0E2T0seHWkcTha1KIDMhVmVvcd65ohd9/rfrISp0CR22bimEBRI6tUDwxGER0LwDfngHfFCrVdDl6qDMlkFhVkBf1YAfg3N8ctJ41dD062GMCogNBKEd9CLgCcAXbIOWosWfLISSOHgzvAk5Hv9U+FocWDPV3aJXjdjQeapnqPdc4EoGgEY0/x64y/zVhbM7tjd9jEp2+051IUDD3uw8OHF0KZqpWw6LoV9YXj6xH8a06ZqW0QvCsA76BV9D05ey8NYQMP/EyUoBDizXMD/vSzAQYNz05Y+BAF6cowafk0A/sJ/hTAOSmighADAAz8AGuKfLGOBEbyWR9gn7vE5F17romIR4MXad7X+W8airBNStzvaNIK933gPow0jUjcdd5ztDoDBII7apDkuds2yTRUKT7db9Du1uTBZ9l3VCCGxieM4mAtFH+yEp9ttHDsXICoDAACYi8wLpXw9cIx/2IcD392Lrv30muBUsNoCWJWkEv0I4HAgfFPIFxL9Tm0uFv+HlxCSOFhcQ0K+EBcOhG8CojgA1G2uEVLKLNNTZ1o7pG47HAjjxK+Pwv5cLaJtjUSsYLEAkOM58Fpe9IOkgu7g7WLXBABzsZlFWUJIgmB1DRm75kVtAACAus01gdQZ1rKUcguTnd+uKALYt9bi0A/2wz9MrxRNlKdb/Pl/fUaSz76lVvRkEXAEFotdE6ARAELI1LC6hoxd86I6AABA3eYaj3V2Wpm5JHlYjvYHqwew5yu70X9S+gwSy4Ie8Rdq6aw6Jns4+4e8JWLX5NU8DLm0AJAQMnmGXCN4tfhvpo1d86I+AACAfUvtSPq8jApToVncXRHGyT/qx+EfH0DNP89A6tcTY1WIQQBQapVMTnJy97jF3Y4OgKnQDE5BCwAJIZPHKTiYCsWfBhi75sVEAAAA+9ba3oyFmbMMucapbRc2WRGg8cV6HPjuXnj76Uzxqwm6xT/pWaFSiL5dtO2esnkBR0D0nwMa/ieEiIHFtSTgCChs95TNi5kAAAD2rbWtmYuz5hrzjLLdgYfrhrDnq7vpMKGrYDECoFAphsSuGQ6E54tdE6AFgIQQcbC6loQD4fkxFQAAoP75Onvm4uwSc3GybC/rB11BnPj1URz96SF4B+QZkIhqESDkYTACoFQMil0zEhIyxa4J0AgAIUQcrK4lkZCQGXMBAADsW2u70+dnFFkqUpksChuv3mM9eP9LO9HyRhO9LniBkD/E5OvBKRWirwEQQpF0sWsCQFK2gUVZQkiCYXUtEUKR9JgMAMC5hYHW2WkFaXPTG+TsR8gbwum/VuHAd/bC2SbLGsWoE2Iw/w8ACqVC9MAnhASr2DUVKgWTlbuEkMTDq3koVOLfqoWQYI3ZAACc2ycgpcxSlrEoS/TtYSdqbG2A/blaCMHEPvSCxSuAAMDxXLfYNYWQIPobAKoktdglCSEJjMU1RQgJlpgOAMC5HQN7DnctyF6e847cfYmEBdi31uLgf+5D0J24B5awWAAIAApe0SV2TSEYFn2FjcqgErskISSBsbimCMGwOeYDwJjOvR2r81bmP8Xx8v8vDdcN4eB/7oN/NDFPwmKxABAAOJ5rF7umEBBEP6uXAgAhRExMAkBAMMl/txRR287WTxXeWvgltVEt+xi8o3kUB7+7NyFDAIspAI7jwCnEnwIIB8Oir7BRJVEAIISIh8U1JRwMG+IqAABA02uNj+WtKrghKdsg+wb+rk4XGl+sl7sbkmOyC6BeGanbXCN6sBP8Yb3YNWkNACFETEzWAPjD+rgLAADQsM2+L3tZTqHcrwkCQNuOFgRdibUegMUugLxOGcIp4RcAACAASURBVBa9KICQP6wVuyZNARBCxMTimhLyh7VxGQCAc1sHW2en5WQuzj4oZz9CvhBa3miSswuSY3QOAJMUFfaFRY/WFAAIIWJicU0J+8LquA0AwLk3BLoPdi7NX1XwBxbvUY5X1/4O2dqWA4tFgLyGZ7KYIuQNKcWuSVMAhBAxsbimhLwhZVwHgDGtO1q+WHjbtPv0GUkBOdr3jyTWQkAWiwB5Dc9kz+WQNyj6zwCNABBCxMRkCsAbVCREAACAxlfqn8u5ITcvbV66Xeq2g84gIkLibBWcSP+vhBDCWiQk/ottHK+IJEwAAAD7ltq+vhO9ZfmrC3+j1Ksku0tFIhEEnLIMPsiCZzCzFPaHdaIXBaDUqUT/yUq0RZ+EELZYHDqnMavFH/6MBa1vN3+18NaipaYis0OK9pQ6JdQJNCysUIm/D36YwWp9AFDqlKIvWAi6EyfsEULY8w2KHwBUBrUnIQMAANRvqzuUuSgrLWtpznucgmPalnVOGqJhh0KpMBkB8Im/WA8AeC0v+t2aRgAIIWJiMQKg0qtGE+eudAl1m2sCXfs7VuSuyH+CZTvp1zA5cj5qsRgBCHlDTI7XU2p40TeMogBACBETiwCg1Cn7EzoAjPH0uFezqs1xHNKvyWBVPiopGIwAhDwh7sbHbhb9XRiFhveIXZOmAAghYmIxBcBr+e6EDwDFa23rB88O5LKqn7UsG9pUJtPXUYtnMAIQiUQwVDOYJ3ZdXsW7xK6ZyCdBEkLEFXQFEPaLvxEqr1G2JnwAGG0Y+S0YvQ/AcRxsG8vZFI9iLEYAACDkCooeABRqhegLQWkKgBAiFhbD/wCgUCkamCysihVSPP0b84yi1xWCYXTu6UTvsW44Whzw9nnA8QootTySbSlInZWGjIUZMOSI3/Z4sFgDAADhQFj0fyuFih8VuyYFAEKIWBgGgLMJHQBi7elfCIbR9Gojml5tQMDxwXnmiBBGIBhG34le9J3oRc1Tp2EsMCF7aQ6ylmVLGgZYvfIoBIUssWsqlIohsWvSGgBCiFhYzP8DAK/mqxI2AMTa03/3gU7UPHUGnr7xr1lztjpQ1+pA3XM1MOabkLUsG9lLc2DIZRsGNMls1jwIIUH01ZQKpWJA7JpCUEA4EAavZjMSQghJHCxGAHitMmLfWtubsAGA+dP/BnGe/kcbR3DmiWoMnR2cUh1nmwPONgfsz9UyDwOaFEYBIChYxa6pUHJ9YtcEAHeXC6ZCM4vShJAE4mO0CyAAJGQAKF5rW8v06X9pNoz5U7ux+od9qH3mLNp3tUHsoPLBMGBE1tIcZC3NEW3EQpOiEaXOxYRQOFXsmpxS0SN2TeBccKMAQAiZKi+jXQCBBA0Aow0jj7F6+geHKc39C8Ewml5pRMM2O0I+8Y/VvZizzQlnWy3sm8ULA7yah1KvFP1YYCEopIhaEACv5o+LXRMARhtHkXcTi8qEkETi6XaLXlOlV40CCRgAWD/9Zy/NmfTT/2Tm+cV0YRjQWXWwVKQipSIVlopUGAuM4Ljxb5msSdYi5BH3FfuQNyT6lor1L9Sd1Jg1QsAREPXdxdHGETHLEUISkKfXw2wXQCABA8BoY/Q9/Ys1zy8m74AXnXs70Lm3AwCg1KuQUmaBZboFlopUJNtSrrjITZuihbtL3ADgHfBmi1rwvKTMpKGAIyDq+gJHyygiQgSsz5kghMSvwdP9TOqqDKoqIMECQPFa29rBMwzn/pdM7Omf5Ty/2EKeIPpP9qL/ZC8AgOMVMBebYTk/QmCpsEBt+tfcP4t1AO5ul+6ul9dpt699SdT9+zUWXQMwLGoACAfCcHU4Ycw3iVmWEJJABqpFf0kJAKAyqJ8HEiwAsH76L723bFyfKvU8PwuRsIAR+zBG7MNoeqUBAJCUbfi/QMDi6xzyhND6VvPNWIvXxKyrNqkPAVgsZk3g3MgOBQBCyGSxGAFQGdSRplcb3gYSKABI8/R/9Yu93PP8LLm7XHB3udC+s5VZG94B782AuAFAlaR6A8CXxawJnFsImLtC7KqEkETg7nbBNyj6YaUw5Br6hmoGI0ACBQC5n/6jcZ4/FvlH/AvErsmr+Z1KrTIS8oVEnbCnhYCEkMkaZDT8r7PqT479d0IEADmf/mNpnj8W+IZ8NrFr1m2uEczTkp2O5lFRx+tHW0YQiUQm9PYEIYQA7Ob/1Wb162P/nRABQI6n/3iY549G3n6P6JsBAYAuVdfsaB6dI2bNsC8MZ6sTpkJaB0AImRgW8/8crwCv5p8Z+33cHwfM/uk/+0NP/90HOvHeF3ei9pmzdPMXmbvbxd/wPysLxa6rNmuOiV0TAHoOd7EoSwiJY64OJ/wjftHrGnIMroYX7cNjv4/7AMD86f+C9/5HG0dw4Lt7cfyRo3G5yC8aRMIRDJ4euF3suiqD6m2xawJA9/5OFmUJIXGM1fC/PjPJfuHv43oKQJKn/wITzfNLzDfoux7AH8WsqdQqX1coFRBCgphl4Wx3wtnuFPVkSEJIfBusZrMBkCZZs/vC38f1CADrp//idTY0vGDH7ofeRftOuvlLxTfsmy12zbrNNZ6krCQmwzbdB2gUgBAyThFg8AyjDYCSVE9f+Pu4DQAla21rWD79a8xanHjkKM3zy8A36M1jUdeQazx59c+aOJoGIISM10j9MAKOgOh1tVZdqOFFe+WFH4vbADDC8ukfgH/ER/P8MnF3uw13vbxO9L2GdWn6P4hdE/jXNAAhhFxN2zstTOoasg0dF38sLgPA+ad/Jk+JRH6+QS9C3lCh2HUbX6l/TmfVMRnOoWkAQsjVhLwhdO770H1aFNpU3eGLPxaXAYD10z+Rn2/Am86irrk4maYBCCGy6NzTgbAvzKS2xqR+7uKPxV0ASMinfw5IvyajM3tZzsvGAtMoEmDjuaAnKOrpfWN06fq/sKhL0wCEkKtp29HCpG5StsHX8HL9Kxd/PO4CQKI9/ZunJXtL7y3/Uu/xntzOfR3rHC2jyXkrC2ZkL8952jwteSBez6MXAkIKi7oqveoJTYqWSQTv3kejAISQSxttHMFoE5vzQ5KLk3dd6uNxFQAS6elfm6oViu4sfvK6X99oqnuu5rEL/6zt3ZaznXs7Pj7SOJyWc0NeQc51uX9OLk3pUqji45+b4zn4hn2HWNSu21wjJBcnn2ZRu/XtZoQDbIb3CCGxrZXR0z/HcdBadT+45J9FIvHzuGydldY2eDq+AwCv4ZG1OPtQ2jUZ6088erR7In83Z3mulVMqvunt82wYbRopCPvDMTk8YJ2VNtxf1WdhVX/ancVfan696bcsas/43CwU3VHMojQhJEaFfCG8+5m3EPKKvwY5uSR5eLh++JLXy7jZCbBkrW3N0JnB+L35c0Da3IyutLlp9515ovr9yZTo3NcxAOCbAL6ZNjc9SWfVfyrgDNzj6XFf4+p0miLh2AiDlump21nWVxnUf1ab1L8JOAKiD5k0vtSAgluKoFDGx2gMIWTquvZ2MLn5A4CxwLztcn8WNwFgpHHksXgazbiQqcjszVyU9Z26zTWiPZX2V/a5Afzh/C/krcxP4zjufv+of4272z3T3e3SR+NaCrVJjdwV+T9l2Ubd5ppAxvzMur4TvRVi1/YNetHxXjvyby4QuzQhJEaxGv7n1Ty0Fu33L/fncREA4vXpX5uiFbKWZj+duyL/c3u+tjvIsq32XW39AH52/hfybyqYFongQf+w73ZXp6vU2+9Rs2x/vLKW5mzZ+eDb9qt/5tToM5P+ifNfC7E1vmhH3sp8xOsCTULI+I02jWK0gdHiv7KUVvvW2stOFcdFAIi3p39ezSNzcdZh65z09ZW/Oy7LebJtO1ubAHzr/C8U3jZtdiQk3B1wBa73D/kr3D0ua8AR4KXsU/6qwkMtbzZtkqIttVH9W1WS6qdBd1D0u7S7242u/Z3IuY7ZTtWEkBjBauc/ADBkG/9+pT+P+QBQss52Vzw9/afNTe9Km5v+sTN/r35P7r5cqOXNpioAVRd+rPC2abOFkLAu6Apc7x/2T3f3uNMCo34moSB3RX7T7IfmLmdR+1LqNtd4MhdlVfUe7ZnDon7DNjtyluciEfZsIIRcWsgTROeedia11Sa1wPHcz6/0OTEfAEYaR34fD0//pgKTN+ParIftW2r/R+6+jNclQ8Gt02ZGwsL6oCe4LOgKTgs4Aum+Ia9hsgvqDDmGQEqZ5Yk5/++aL2xf+5K4Z/VehTHP+FDf8d79EUH87y9nqwO9R3uQsShT9NqEkNhQ/7wdIQ+bxX8ppZaq5tcb/Vf6nJgOACXrbHcNnR7Ml7sfU6FJ0QpZS7KfyVuZ/1nW8/xSaHmr6TSAD71HX7C6KF2hUtwQ9ocXhn2hGUF3cFrAEcjwDflM/lEff+GCQ4VSETEXJzvT5qb/vXRT+de3r31JluMW67fZD6TNTm8dqO5nsmKvflsdBQBCEpSn14Pm1xuZ1ddn6B+92ufE9D4A1tlprYPVAzEZAHg1j8xrs45aZljXVf3pZEJvEVewqtCsTFLNCfvDPa1vNbdGIpErplYpFa+x3df0asMzrOov+s8lSL8mg1V5QkiUOvGro+hidEaIPkMfcPe4r3piaswGgJJ1truaXml8NRb7b52T3p02N+1jZ588vVvuvpCrS7FZBkcaLr2RxlTpM5Nw4+9WQqGSdD0lIURGw3VD2P/tPczqZy/LeadzX8fqq31ezO5GEotz/8YCk8+2oexr/ZW92XTzjx3JtpRfs6rt6XHDvrWOVXlCSBQ6+wST3cYBAByvgNai/d54PjcmA0Cszf1rkjVCwa1FT8/9f9eY7FtrrzovQ6JL8xuNPzPkGHys6je+1ABnG50USEgi6NrXiWH7ELP61tlpZxtfbTgyns+NyQAQK0//CpUC2ctzjto2lBW0vNn08XhY5JeoLBWpT7GqHQkLqP5zJaJx50VCiHiEoIDaf55hVl+hVMCYb/zMuD+fWU8YiZWnf+vstJ7SjeU3d+7tWFT9l1MdcveHTI02VfdVLaNjggFgqGYQbe+2sCpPCIkCza81wtPnYVbfOietuvHl+sPj/fyYCwDR/vRvzDf5Su4u/Ub/qb6smqfP7JS7P0QcdZtrPKmzrG+wbKPmH2fgH42aFyAIISIKOPyof4HdLuYKlQLGfNOnJvR3GPWFieI1tlXR+vSvMWuEgluKni3dWGauf6HuV3L3h4hPn5H0oFKvZJY+g64gzj5Rzao8IURG9s21CHnYzQKnzUmvbHjRfmIifyemAoCrw/mdaHv6V6gUyF6Wc7zkntKilreaPnbskSMBuftE2LBvre22zk4b9/DaZHTu6UB/ZR/LJgghEnN1OJmd+Aec21fGWGD65ET/XswEAI7juNHGkSVy9+NCqbOsPbaN5as793UsOP23qja5+0PYM+aZNqpNaqZbElc/fgrhALPlBoQQCUXCAiofO4FImN3Da9q89OP1L9RVXf0zPyhmAkDa3PRS/6hfK3c/AMCQZ/QVr7d9a6CqP6v26TPvyN0fIh371tr2jEVZf2PZhqfHjao/VrJsghAikZp/nMWIfZhZfV7Dw5Bn/MRk/m7MBABzcfIdcvdBbdYI+asLnyu7t9zcsM3+S7n7Q+TR9k7Lg6Yis4NlG53vtzPdJ5wQwl7v0R40vdrAtI20eRmH65+vOzuZvxszhwH5Br2y7ZWqUCmQsTDzhKUidR0N9RMAsM5O+7SzzbGN5bDe2b+fhrkwGZYZqczaIISw4e33ovJ3E1qTN2FKnTJiyp/c0z8QQyMAOqtOlq1zU2dae233lN3Stb9zPt38yZjGl+tfTL8m4yTLNiLhCI4/cgS+QS/LZgghIouEIzjx66MIutiuCU+bl36wbkvtpN8tjJkAUPax6Sc0yVc93Eg0hlyjv3htybcHqvsza589u0OyhknMMBWa79Ika5guCPSP+nHsF0cgBJk2QwgRUe3TZzFcx267XwBQ6pURU4F50k//QAwFgO1rXxKM+SYX63bUJrWQv6pgS9mmclPDS/W/YN0eiV32rbWdGQsz/8S6nZH6YZz+6ynWzRBCRNB3vAeNr9Qzbyf9mszdtc+endJCoZgJAACgNqqZ7cSmUCqQtST7RMn60mmtO1o20fv8ZDxad7R80VycPMK6nbZ3WtHG8D1iQsjUeQe8qPztCebnehhyjD5zsfkjU60TWwHArPmEMd8k+qlsqTNS+0ruLr2160Dn/DN/r24Vuz6Jb9ZZ1k9wPPsfpdN/rWJ6ihghZPIi4QhO/voYAk62z44cr0DGwsxPnX3ytHuqtWIqADS/3ugvvL3oGwqlON025Bj80z5S8vDA6YGMus01b4tSlCSchpfqt2csyBjX8ZtTIYQEHP/FEfgGmZ1MTAiZpNpnz2KodpB5O1mLs3Y3vGTfIkatmAoAAFD1p8rf567IPzCVGmqTOpJ3U8HWgluLzI2v1P+3WH0jicuYb/qIhuFpgWN8Qz4c+sE++Efo0CBCokXP4W40vsR+3t+QZ/QYco23i1WPi7a99cer8JaiP3cd6Hwg6Apy4/0754ZOMiqTbSnrav5xpoVh90gCKrqj+OutbzY/IsXPlDHfiCU/vg5qk5p5W4SQy+s/2Yuj/32Y+Zs6CqUChXdMW9f4cv3LYtWM2QAAAPO/tnBV++62l/tP9umv9HkczyF1urUzpdzyOfvW2rek6h9JPDnLc3d27e9cKUVbpiIzlvzXcqgMKimaI4RcZKCqH0d+cghCkP3ZHdnLc3d07m2/RcyaMR0AAOCul9cp65+v+2LYF/qYp9dT5mh1JHn7PQpNijasMWucSdmGalOh6etnnqhmPkdLSNmmCmXfyd6eEfuwJNv3JZekYPGPlkGpj5lNPQmJC0NnBnH4xwcQ9rO/+RsLTO6sxdmWus01oq4wjPkAcCl3vbxOu33tS7RSisjCtqGstGNn21nfsE+S7atTyi249gdLodRSCCBECsN1Qzj8wwMI+ULM21KoFCi8fdqdjS/Xvy527bgMAITIbdpdJQ+2vNn0Z5ZnBVwodYYVi76/BLxatiMzCEkIIw3DOPSDAwh5gpK0l31d7mude9rvYlE75t4CICQWNG1veDx7Wc52qdobPDOAYz9jvxCJkETmaB7F4R9Jd/M3FZqchmzDOlb1KQAQwkjH++0fsUxP7Zaqvf5TfefODQhRCCBEbM42Bw79cD+CLmlu/ryah3V2+t11m2uYzTNQACCEodQZ1iW6NJ00Vwyc24f80Pf3I+CgnawJEYur0yn5z1Xm4qwXGl+pf4dlG7QGgBDGitfY7mt5s+kZKYfn9Rl6LPzuEhjzjJK1SUg8cne7cOC7++Aflm5duXVOmr2/sq+MdTs0AkAIY42v1D+bvTz3OSnb9PR6sP/be9B/sk/KZgmJKwOn+rH/23skvfknl6QMGvNNc6Voi0YACJFI+ryMhv7KvmIp2+QUHGZ8bhYKb5smZbOExLYI0PCiHXXP1EDKe2RStsGXtTiruH6bvUuK9mgEgBCJpJRZZqaUW3qlbDMiRHD6L1U4/dcqRAQK+4RcTcgTwrFfHEbt02clvflrkjXhjIWZ10t18wdoBIAQSZXeW57cd7y3ebRxJFnqttPmpWP+1xfRroGEXIazzYFjPz8Cd7dL0nZ5rTKSv6rg3qZXG56Xsl0KAIRIrHRjeVbP4e56Z5sjSeq2jXlGLPzuEugzrnh8BiEJp2tfB0794STCPvZb+16I4znkry78XssbTT+VtGFQACBEFqUbymxd+zur3d1ujdRtq00azPvyfKTNS5e6aUKiTiQcwdknT6P5tUZZ2s9dkf+P9l2tn5SjbQoAhMjEdk/ZvM732494B7zSj8lzQOHt0zD9kzOgUNH2wSQx+Ud8OP7LoxiqGZSl/czF2Qe7D3YulaVx0CJAQmRT/0Ldyezrcm/WJGuk37ovArS83oQ9X30Po02jkjdPiNyGagax56vvyXbzt85KazUVmJbL0vh5NAJAiMxK1trWtO1sfSnoCnJytK9QKlD20QpMW1cCjpOlC4RIJuQNoX5rHZq2N0Cqw7ouZp6WPJq+ICPfvqXWIUsHzqMAQEgUKP5Iyadb32n937AvJNsd2DIjFfP+Yz50abRAkMSnzvfbcfapM5Ju7HMxfWZSIPeGvIq6zTVNsnXiPAoAhESJojuLv9K2o+VROU/0U+qVmPXAHOTckCdbHwgR22jTKM78tQpDtfIM948x5Bq9GQszr2140V4ta0fOowBASBQpun3aD9p3tf0w7Jf2VaSLZS/LwazPz4XKoJK1H4RMRcAZQN0zNWjb0SLppj6XklySMpQ2L32mfWutZCeEXg0FAEKiTPFHSj7d8V773wLOgKyLdLWpWkz/1CxkL8+RsxuETFgkEkHb2y2ofaYGQZf8J2OmzrK2plZYZ9ZtqZF2h6GroABASBQqWV+6omt/59vePo/sj+CWilTM+NwsmKdJvnkhIRM2VDuI03+pgqM5Ot5uyViYecI8LXlh3eYa+eb2LoMCACFRyrahrLTvWM9xR4vDIHdfOI5D3k35KPvYdGiSJd+7iJCr8g/7cPapM+h8v13urpzDAdnLc1/r3NN+l9xduRwKAIREsdJ7yy2D1QNnhmoGM+XuC3BukaBtQxmK7iyGQknbiJDoMFw7hKP/fQgBh/zD/QDA8Qrkrsj7U9s7LQ/J3ZcroQBASJQr21ShHGkYPtl3vHem3H0Zk5SVhOmfmoWMRVGRS0gC69rXicrfnYAQlHfh7Bheq4zkrch7uPmNpp/L3ZeroQBASIzIuT7vja59Hbchin5krXPSMOMzs2HMN8rdFZKA2t5pRdWfTiJafibUJrWQc0PeJ5pebXhG7r6MBwUAQmJIwerC33fsbv+CEIqe9UScgkP+qkIUr7dBn06bCBFpBJwB7P73dxB0B+XuCgBAl6YPZi/PuaXhRftuufsyXhQACIkxRXcWf6Vjd9uvQx75dg28FI7nkL0sFyXrbTAWmOTuDolzZ/5WjebX5TnB72LGfKM7Y1HWovrn687K3ZeJoABASAwqWWtb032w63lPFLwmeCnp8zNQsr4UlumpcneFxCFPrwe7v/AuImF5R8I4jkP6wsyjhuykmxpeqnfK2plJoABASIwq3VieMWwf3j9wqq9Y7r5cTkqZBSXrS5GxMBOIqvEKEss6drej8nfHZe2DNlUXyrw262vNrzf+TtaOTAEFAEJiXMGqwj927ev8fEjGg4SuxphnRPE6G3KuzwXH0+uDZGpqnz6Lhm122dq3zklrTCm13GDfWtspWydEQAGAkDhQsr50Rd/x3u3ONkeS3H25Ep1Vh2kfKUHeTQVQ6pVyd4fEqGO/OIKeQ12St6syqCPZS7N/3fJ28zckb5wBCgCExImyTRV6R8vo7p4j3Yui5bWoy+HVPDKvzULuynxY56SB46J28IJEoQMP78VQjbQn+6WUWfqts9NW2bfWnpK0YYYoABASZ4ruKP5O177OnwQc/pgYa9emapFzQx7yVuTDkEv7CZCrq378FFrfapakLV7DI2tpznPtu1rvk6RBCVEAICQO2TaUTR+s6n9/2D5slbsvE5FsS0HuinzkXJcDlUEtd3dIlGp7txVVfzjJvB1TgcmVPj9jff02+zvMG5MBBQBC4lTZpgqFu9v1Stf+rjvlfl1qohRKBTIWZiJ3ZT7S52WA42mKgPyLo3kUe77Kbr8djueQtSR7d0qZ5bbTf6vyM2tIZhQACIlzxWtKPt5zuPtvnl5PTD5Sa8waZC7OQtq8DFhnp0Gpo8WDiS4iRLDz/rfhG/IxqT/tIyWPNr5S/zUmxaMIBQBCEkDZvRUGV5fzxd6jPavC/ug4NGUyOF4BS4UF6fMykHZNOkyFZrm7lNDCgTA8vR6E/SHorDpozFrJ9nuoe64G9VvrmNTOuSHvaMd7bYuYFI8iFAAISSC2u8sWD9UNbhs6M5gtd1/EoEnRIn1eOtLmZSBtbhqtG2AoEonA0ezA0JkBDJ4ZwLB9GP7hDz6B8xoemYuykLsiD9a56Uzf7vD2e7HrwR1gcQ/TWrTCNV9fmLz/O3tibne/iaAAQEgCKrq9+OG+Ez0/iNVpgUvhFBySbSlIuyYd6fMyYJ5mpk2HpiASjmC0cQSDZwcweHoQQzWDCHnGf/COMc8I28ZyZC3LZhYEjvzkIPqO9zKpXbzO9tuGF+1fZlI8SlAAICRBnZsWcG3rPdq9OpanBS5HoVLAVGCGudgMc3EyzMXJMOaboFBSKLgUIShgpGEYg2cGMHR6EEN1gwj7pv59wTII9B7pwdH/PiRqzTGpM63DA9X9FibFowQFAEISnO3usmuH64a2DZ4ZyJG7L6wplAoY800fCAWmAhMUKl7urkknAnj6PXC2OuBsdcDR6oCzbRSuTjfTw3VYBIGIEMHOB96Gb1D8xYCcgsPM+2evqvpz5buiF48SFAAIIQCAojuKv9V3vPe/PL3uuJkWGA+O52DMOxcKjHkm6NJ00Fn10KVLu6iNhYAjAGfbBTf6Vgec7Q6EvCHZ+iR2ELA/Vwv71loRevZhuTfmHWnf3XYtk+JRgAIAIeT/lN1bYXB1u17oPdJ9SzxOC0yUQqmA1qqDLk0HfZoeOqse2rR//V5r1YFXSz96EAlH4B/xwTc09ssL35AP/qEPfizoGv+cvdSM+eeDwNKpBQHvgBe7HmC0GDBVJ8z78nzzge/tdYlePApQACCEfIjtnrJ5zjbHEwOn+ueGAxQErkRt0kBlUIFX8+A153+d/2/FJT524ecB516lEwICwoHwh/87GEbYL0AIhBEOhhF0BuEb8iIwGmByw5PDWBDIXpoz6dGWIz85hL7jPeJ27LySu0t/U/9C3VeZFJcZBQBCyGXZNpRNd7U7n+g/1b8oHMXHDZPYN5Ug0Hu0B0d/RosBJ4oCACHkqko3lBe7upx/76/sXx7yBCkIEGYmEwTOLQbcAd+gV/T+cAoOpexdNAAACJ9JREFUMx+YfVPVnyp3iV5cZhQACCHjVrqxPMfd7fr7wKn+mwLOAL1PR5gx5htRem85spaMLwjYN9fCvoXRYsAV+Yfbd7UuZlJcRhQACCETVnpvebqnx/23gVP9d/hHY+PYYRKbjPkmlN5bdtUg4Bv0YucDOxAR2CwGXPS9xab3v7zLLXpxGVEAIIRMWum95cnePs9fBqr61/uGfAn0Mj2R2niCwNGfHULvUWaLAR+tf6Eurg4IogBACJmysnsrDN4Bzx+G7cMbXB1Ondz9IfHrXBAoR9aS7A8Fgd5jPTj6U0aLAWelDQ1U9aUyKS4TCgCEEFEVr7F91NXl+s7Q2cGZtGCQsHKpIBARItj14A54BxgtBnxwzsqqP57cLXpxmVAAIIQwUXpvebJ/2PcTR/PofSONIymgSw1hwFhgQunGfwUB+9Za2J9jsxgwb2X+wbadrUuZFJcBBQBCCHMl60uv9/S4fzpcO7TEN0xrBYj4xoJAcmnKuWOCGSwG1Fl1woJvX2vc87XdHtGLy4ACACFEMmWbKpQBh//bzjbng8N1Q7lCiN3hMyQxGQtMCDoD8A2Jf0AQANjuKf2V/fm6bzApLjEKAIQQWdg2lJV6+72/HKkfvsXd5dLK3R9CxsM6O22w/1SfVe5+iIECACFEdiXrSlf7hn0PuTtd1zlaRi00MkCiFcdzmPXAnBtP/fHk+3L3ZaooABBCokrpxvKsgMP/FU+fZ42jabSENhoi0SZeFgNSACCERK2yTRWKkDf4Me+A7zOuDudCZ7sjid4mIHLTpemEBd+K/cWAFAAIITHDdk/ZTP+I/8ueHveto00j2SEvnVAoJ7VJIwihMBfyJN6/g21D2S/tW2u/JXc/poICACEkJpVtqtAHXYHPBRyBW3xDvtnuXnemb8CrlLtf8YpTcEjKNnj1GfpGbYp2r8qo3tzwon2P7e7SfHeP+6n+yr4bEikIWGenDfSf6kuTux9TQQGAEBI3bBvKykPu4IaAI7DCO+id7ul2p9EagslRGVQRQ66xX2fVVanNmjdUSapn7Ftq+y73+YkWBDiew6wH515/6g8n9srdl8miAEAIiWu2u8sWBt2Bu/2jget9g95Sd5fLEnTTFsUX0qZow1qrblRj1rSrzZrjaqP6eV7D76jbXDPh1zESKQjk3VSwv+3dluVy92OyKAAQQhJOyfrSm4Ku4JqQJzgz6AnmBJ1Bq3/Ub/QP+1Tx+goixyugT9P5NRbtoMasaVElqaqVeuV+XqN81761tlvs9hIhCOjT9cLiHy9P2vnA22x2HWKMAgAhhJxXtqlCIYSEOWF/eEHYH54d8oVsIU8wL+gKpgVG/SbfsE8T9ofl7uYlqQyqiNqoDqiSVB6lXjXKa5WDSi3frdSpTit1yvd5Df9e3eYayW9U8R4EbBvLfm7fUvsdufsxGRQACCFkAmwbykqFgLAo7A/NFEIRa0SIGCIhwSCEI0mRsKATwhF9JCRohbCgiYQiGiEYVgshQSUEBWU4IPBCMMyHA2Eu7Bc4IAKFio/wKkVEoVJEFEqFoFApwpxSEVbwipBCyQU5XhHilIqAgucCnFLhVWr4fl7DdyrUfCuvUjQoVHytQqk4U7elxiX31+ZK4jUIpM1JH+ir7I3JxYAUAAghhEjGdndpvrvb/WT/qb4b4yEIcLwCsz8/Z3nl70/sl7svE0UBgBBCiOSK19ryvH2ep+IhCOTdVLCv7d2W6+Tux0RRACCEECKbeAgC+nR9ePGPlxtibTEgvR9LCCFENo0v17d3Hehcmb+qsCBrSfZupV4Zc0+lnj4P376z9fty92OiaASAEEJI1IjVEYG0uen9fSd70+Xux0RQACCEEBJ1Yi0IcLwCs/99zrLKx04ckLsv40UBgBBCSNSKpSCQv6rgvdYdLSvk7sd4UQAghBAS9c4HgSf7T/WtiNYgkDrTOjRQ3Z8qdz/GiwIAIYSQmDHtrpJc36D3qWgMAjqrTvD0e3i5+zFeFAAIIYTEnGgNAnO+eE155WPH6+Tux3jQa4CEEEJiTtP2ho6uA5035a0syM9cnL0rWl4fdHe77pC7D+NFAYAQQkjMatre0NF9MHqCgNqojuozGS5EAYAQQkjMi4YgwGuVMBcnPyt1u5NFawAIIYTEnWl3leR6B7xPDVRJt0YguSR5ZLh+OEWKtsRAIwCEEELizkUjAjulGBHQWHTVrNsQEwUAQgghcet8ELg55/q8PJZBQGVQI2NBxg9Z1GaFpgAIIYQkjMLbpuX4R/xPDVT1rRRzamDaR0qebHyl/tNi1ZMCBQBCCCEJ51wQ8D01UNU/5SCQOtPaNlDdXyBW36RCAYAQQkjCmmoQsM5JH9Wlame07WztZNE/ligAEEIISXgTDQJqk1rIW1nwj4pPznhg+9qXglL0UWwUAAghhJDzpt1ZnO0b8v2Xs81xl6vTlX7hnylUCiRlG/z6dP2ZpGzDPY0v1zfL1U8xUAAghBBCLoHjuOSCWwpvDvvDpUI4cjwSFnZ37e8MyN0vsVAAIIQQQhIQ7QNACCGEJCAKAIQQQkgCogBACCGEJCAKAIQQQkgCogBACCGEJCAKAIQQQkgCogBACCGEJCAKAIQQQkgCogBACCGEJCAKAIQQQkgCogBACCGEJCAKAIQQQkgCogBACCGEJCAKAIQQQkgCogBACCGEJCAKAIQQQkgCogBACCGEJCAKAIQQQkgCogBACCGEJCAKAIQQQkgCogBACCGEJCAKAIQQQkgCogBACCGEJCAKAIQQQkgCogBACCGEJCAKAIQQQkgCogBACCGEJCAKAIQQQkgCogBACCGEJCAKAIQQQkgCogBACCGEJCAKAIQQQkgCogBACCGEJCAKAIQQQkgCogBACCGEJCAKAIQQQkgCogBACCGEJCAKAIQQQkgCogBACCGEJCAKAIQQQkgCogBACCGEJKD/D3u+qGmbj5ozAAAAAElFTkSuQmCC;" parent="1" vertex="1">
          <mxGeometry x="456" y="165" width="51" height="51" as="geometry" />
        </mxCell>
        <mxCell id="iMzhYnVRkj0nFMrCM1-N-9" value="" style="rounded=0;whiteSpace=wrap;html=1;fillColor=none;strokeColor=#4A909B;strokeWidth=2;" parent="1" vertex="1">
          <mxGeometry x="25" y="263" width="291.43" height="240" as="geometry" />
        </mxCell>
        <mxCell id="iMzhYnVRkj0nFMrCM1-N-10" value="&lt;font color=&quot;#4d4d4d&quot;&gt;&lt;span style=&quot;font-size: 32px;&quot;&gt;Eureka&lt;/span&gt;&lt;/font&gt;" style="text;html=1;strokeColor=none;fillColor=none;align=center;verticalAlign=middle;whiteSpace=wrap;rounded=0;fontSize=16;textOpacity=80;" parent="1" vertex="1">
          <mxGeometry x="103.20999999999998" y="469" width="135" height="22" as="geometry" />
        </mxCell>
        <mxCell id="iMzhYnVRkj0nFMrCM1-N-12" value="" style="rounded=0;whiteSpace=wrap;html=1;fillColor=none;strokeColor=#4A909B;strokeWidth=2;" parent="1" vertex="1">
          <mxGeometry x="316.43" y="263" width="554" height="240" as="geometry" />
        </mxCell>
        <mxCell id="iMzhYnVRkj0nFMrCM1-N-26" value="&lt;font style=&quot;font-size: 32px;&quot;&gt;不保证强一致性&lt;br&gt;&lt;/font&gt;" style="text;html=1;strokeColor=none;fillColor=none;align=center;verticalAlign=middle;whiteSpace=wrap;rounded=0;fontSize=16;fontColor=#4A909B;" parent="1" vertex="1">
          <mxGeometry x="388.65" y="321" width="254" height="22" as="geometry" />
        </mxCell>
        <mxCell id="iMzhYnVRkj0nFMrCM1-N-28" value="&lt;font style=&quot;font-size: 32px;&quot; color=&quot;#4d4d4d&quot;&gt;CoreDNS&lt;/font&gt;" style="text;html=1;strokeColor=none;fillColor=none;align=center;verticalAlign=middle;whiteSpace=wrap;rounded=0;fontSize=16;textOpacity=80;" parent="1" vertex="1">
          <mxGeometry x="103.20999999999998" y="732" width="135" height="22" as="geometry" />
        </mxCell>
        <mxCell id="iMzhYnVRkj0nFMrCM1-N-29" value="" style="rounded=0;whiteSpace=wrap;html=1;fillColor=none;strokeColor=#4A909B;strokeWidth=2;" parent="1" vertex="1">
          <mxGeometry x="316.43" y="526" width="554" height="240" as="geometry" />
        </mxCell>
        <mxCell id="iMzhYnVRkj0nFMrCM1-N-66" value="&lt;font style=&quot;font-size: 32px;&quot; color=&quot;#4d4d4d&quot;&gt;Nacos&lt;/font&gt;" style="text;html=1;strokeColor=none;fillColor=none;align=center;verticalAlign=middle;whiteSpace=wrap;rounded=0;fontSize=16;textOpacity=80;" parent="1" vertex="1">
          <mxGeometry x="103.20999999999998" y="995" width="135" height="22" as="geometry" />
        </mxCell>
        <mxCell id="iMzhYnVRkj0nFMrCM1-N-67" value="" style="rounded=0;whiteSpace=wrap;html=1;fillColor=none;strokeColor=#4A909B;strokeWidth=2;" parent="1" vertex="1">
          <mxGeometry x="316.43" y="789" width="554" height="240" as="geometry" />
        </mxCell>
        <mxCell id="I7Jy2GgQ2a8SWuDBvAfi-1" value="" style="shape=image;verticalLabelPosition=bottom;labelBackgroundColor=default;verticalAlign=top;aspect=fixed;imageAspect=0;image=data:image/svg+xml,PHN2ZyB4bWxuczp4bGluaz0iaHR0cDovL3d3dy53My5vcmcvMTk5OS94bGluayIgeG1sbnM9Imh0dHA6Ly93d3cudzMub3JnLzIwMDAvc3ZnIiBoZWlnaHQ9IjIwMCIgd2lkdGg9IjIwMCIgdmVyc2lvbj0iMS4xIiB2aWV3Qm94PSIwIDAgMTAyNCAxMDI0IiBjbGFzcz0iaWNvbiI+PHBhdGggZmlsbD0iI0VDNUQ4NSIgZD0iTTAgMG0xODQuMzIgMGw2NTUuMzYgMHExODQuMzIgMCAxODQuMzIgMTg0LjMybDAgNjU1LjM2cTAgMTg0LjMyLTE4NC4zMiAxODQuMzJsLTY1NS4zNiAwcS0xODQuMzIgMC0xODQuMzItMTg0LjMybDAtNjU1LjM2cTAtMTg0LjMyIDE4NC4zMi0xODQuMzJaIi8+PHBhdGggZmlsbD0iI0VGODVBNyIgZD0iTTUxMiAyNDEuOTYwOTZoNTIuMjI0bDY1LjA2NDk2LTk2LjMxNzQ0YzQ5LjYzMzI4LTUwLjMxOTM2IDg5LjY0MDk2IDAuNDMwMDggNjMuODU2NjQgNDUuNzExMzZsLTM0LjMxNDI0IDUxLjUwNzJjMjU3LjY0ODY0IDUuMDI3ODQgMjU3LjY0ODY0IDQzLjAwOCAyNTcuNjQ4NjQgMzI1LjAzODA4IDAgMzI1Ljk0OTQ0IDAgMzM2LjQ2NTkyLTQwNC40OCAzMzYuNDY1OTJTMTA3LjUyIDg5My44NDk2IDEwNy41MiA1NjcuOTAwMTZjMC0yNzcuNjk4NTYgMC0zMTguODAxOTIgMjUzLjE0MzA0LTMyNC45NTYxNmwtMzkuNDM0MjQtNTguMzY4Yy0zMS4yNjI3Mi01NC45MDY4OCAzNy4zMzUwNC05MC40MDg5NiA2NC42ODYwOC00Mi4zNzMxMmw2MC40MTYgOTkuODA5MjhjMTguMTg2MjQtMC4wNTEyIDQxLjE4NTI4LTAuMDUxMiA2NS42NjkxMi0wLjA1MTJ6Ii8+PHBhdGggZmlsbD0iI0VDNUQ4NSIgZD0iTTUxMiAzMzguNTg1NmMzMzIuOCAwIDMzMi44IDAgMzMyLjggMjQwLjY0czAgMjQ4LjM5MTY4LTMzMi44IDI0OC4zOTE2OC0zMzIuOC03Ljc1MTY4LTMzMi44LTI0OC4zOTE2OCAwLTI0MC42NCAzMzIuOC0yNDAuNjR6Ii8+PHBhdGggZmlsbD0iI0VGODVBNyIgZD0iTTI4MS42IDU1OC4wOGEzMC43MiAzMC43MiAwIDAgMS0yNy40NzM5Mi0xNi45Nzc5MiAzMC43MiAzMC43MiAwIDAgMSAxMy43MzE4NC00MS4yMTZsMTIyLjg4LTYxLjQ0YTMwLjcyIDMwLjcyIDAgMCAxIDQxLjIxNiAxMy43NDIwOCAzMC43MiAzMC43MiAwIDAgMS0xMy43NDIwOCA0MS4yMTZsLTEyMi44OCA2MS40NGEzMC41OTcxMiAzMC41OTcxMiAwIDAgMS0xMy43MzE4NCAzLjIzNTg0ek03NTIuNjQgNTU4LjA4YTMwLjYwNzM2IDMwLjYwNzM2IDAgMCAxLTEyLjg1MTItMi44MzY0OGwtMTMzLjEyLTYxLjQ0YTMwLjcyIDMwLjcyIDAgMCAxLTE1LjA0MjU2LTQwLjc1NTIgMzAuNzIgMzAuNzIgMCAwIDEgNDAuNzY1NDQtMTUuMDIyMDhsMTMzLjEyIDYxLjQ0QTMwLjcyIDMwLjcyIDAgMCAxIDc1Mi42NCA1NTguMDh6TTQ1NC42NTYgNjY2Ljg4YTE1LjM2IDE1LjM2IDAgMCAxLTEyLjI4OC02LjE5NTIgMTUuMzYgMTUuMzYgMCAwIDEgMy4wNzItMjEuNDkzNzZsNjguNTA1Ni01MC45MTMyOCA1MC4zNTAwOCA1Mi42MjMzNmExNS4zNiAxNS4zNiAwIDAgMS0yMi4yMDAzMiAyMS4yMzc3NmwtMzEuNTkwNC0zMy4wMjQtNDYuNzE0ODggMzQuNzIzODRhMTUuMjg4MzIgMTUuMjg4MzIgMCAwIDEtOS4xMzQwOCAzLjA0MTI4eiIvPjxwYXRoIGZpbGw9IiNGRkZGRkYiIGQ9Ik02NS41MzYgMzY5LjMxNTg0YzE1LjAzMjMyIDEwMS45MDg0OCAzMi44NDk5MiAxNDcuMTc5NTIgNDQuNTQ0IDM1NS4zMjggMTQuNjMyOTYgMi4xODExMiAxNzcuNzA0OTYgMTAuMDQ1NDQgMjA0LjA1MjQ4LTc0LjYyOTEyYTE2LjE0ODQ4IDE2LjE0ODQ4IDAgMCAwIDEuNjQ4NjQtMTAuODc0ODhjLTMwLjYwNzM2LTgwLjMzMjgtMTY5LjIxNi02MC40MTYtMTY5LjIxNi02MC40MTZzLTEwLjM2Mjg4LTE0Ni41MDM2OC0xMS40OTk1Mi0yMzguODM3NzZ6TTM2Mi4yNTAyNCAzODMuMDM3NDRsMzQuODE2IDMwMy4xNzU2OGgzNC42NDE5Mkw0MDUuMjM3NzYgMzgxLjEzMjh6TTMwOS41MjQ0OCA1MzYuMjg5MjhoNDUuNDg2MDhsMTYuMDk3MjggMTU4LjYxNzYtMzEuODI1OTIgMS44NTM0NHpNNDQ2Ljg2MzM2IDU0Mi45ODYyNGg0NS44MDM1MlY3MDUuMzMxMmgtMzMuODczOTJ6TTI5Ni42MDE2IDQ1Ny45NzM3NmgyMS4zOTEzNmw1LjI3MzYgNTguOTkyNjQtMTguOTEzMjggMi4yNjMwNHpNMzI2Ljk5MzkyIDQ1Ny45NzM3NmgyMS4zOTEzNmwyLjUzOTUyIDU1LjgwOC0xNy40MDggMS42MTc5MnpNNDcwLjYyMDE2IDQ1OS44ODg2NGgxOS40NTZ2NjIuMjc5NjhoLTE5LjQ1NnpNNDQwLjIzODA4IDQ1OS44ODg2NGgyMi4yMDAzMnY2Mi4yNzk2OGgtMTYuNjI5NzZ6Ii8+PHBhdGggZmlsbD0iI0VCNTQ4MCIgZD0iTTI0My41Njg2NCA2NDUuNTE5MzZhMjc1LjQ1NiAyNzUuNDU2IDAgMCAxLTI4LjQ2NzIgMjMuNzQ2NTYgMjQyLjY4OCAyNDIuNjg4IDAgMCAxLTI5LjUzMjE2IDE3LjUyMDY0IDIuNzAzMzYgMi43MDMzNiAwIDAgMS00LjQwMzItMS45NTU4NCAyNTguNjAwOTYgMjU4LjYwMDk2IDAgMCAxLTUuMTItMjkuNTczMTJjLTEuNDEzMTItMTIuMTg1Ni0xLjk1NTg0LTI1LjY4MTkyLTIuMTYwNjQtMzYuMzYyMjQgMC0wLjMwNzIgMC0yLjUwODggMy4wMTA1Ni0xLjkwNDY0YTI0NS45MjM4NCAyNDUuOTIzODQgMCAwIDEgMzQuMjIyMDggOS41NzQ0IDI1Ny4wMjQgMjU3LjAyNCAwIDAgMSAzMi4zNTg0IDE1LjE3NTY4YzAuNTIyMjQgMC4yNTYgMi41MTkwNCAxLjQ4NDggMC4wOTIxNiAzLjc3ODU2eiIvPjxwYXRoIGZpbGw9IiNGRkZGRkYiIGQ9Ik01MTMuMjkwMjQgMzY5LjMxNTg0YzE1LjAzMjMyIDEwMS45MDg0OCAzMi44NDk5MiAxNDcuMTc5NTIgNDQuNTQ0IDM1NS4zMjggMTQuNjMyOTYgMi4xODExMiAxNzcuNzA0OTYgMTAuMDQ1NDQgMjA0LjA1MjQ4LTc0LjYyOTEyYTE2LjE0ODQ4IDE2LjE0ODQ4IDAgMCAwIDEuNjQ4NjQtMTAuODc0ODhjLTMwLjYwNzM2LTgwLjMzMjgtMTY5LjIxNi02MC40MTYtMTY5LjIxNi02MC40MTZzLTEwLjM2Mjg4LTE0Ni41MDM2OC0xMS40OTk1Mi0yMzguODM3NzZ6TTgxMC4wMDQ0OCAzODMuMDM3NDRsMzQuODE2IDMwMy4xNzU2OGgzNC42NDE5Mkw4NTIuOTkyIDM4MS4xMzI4ek03NTcuMjc4NzIgNTM2LjI4OTI4aDQ1LjQ4NjA4bDE2LjA5NzI4IDE1OC42MTc2LTMxLjgyNTkyIDEuODUzNDR6TTg5NC42MTc2IDU0Mi45ODYyNGg0NS44MDM1MlY3MDUuMzMxMkg5MDYuNTQ3MnpNNzQ0LjM1NTg0IDQ1Ny45NzM3NmgyMS4zOTEzNmw1LjI3MzYgNTguOTkyNjQtMTguOTEzMjggMi4yNjMwNHpNNzc0Ljc0ODE2IDQ1Ny45NzM3NmgyMS4zOTEzNmwyLjUzOTUyIDU1LjgwOC0xNy40MDggMS42MTc5MnpNOTE4LjM3NDQgNDU5Ljg4ODY0aDE5LjQ1NnY2Mi4yNzk2OGgtMTkuNDU2ek04ODcuOTkyMzIgNDU5Ljg4ODY0aDIyLjIwMDMydjYyLjI3OTY4aC0xNi42Mjk3NnoiLz48cGF0aCBmaWxsPSIjRUI1NDgwIiBkPSJNNjkxLjMyMjg4IDY0NS41MTkzNmEyNzUuNDU2IDI3NS40NTYgMCAwIDEtMjguNDY3MiAyMy43NDY1NiAyNDIuNjg4IDI0Mi42ODggMCAwIDEtMjkuNTMyMTYgMTcuNTIwNjQgMi43MDMzNiAyLjcwMzM2IDAgMCAxLTQuNDAzMi0xLjk1NTg0IDI1OC42MDA5NiAyNTguNjAwOTYgMCAwIDEtNS4xMi0yOS41NzMxMmMtMS40MTMxMi0xMi4xODU2LTEuOTU1ODQtMjUuNjgxOTItMi4xNjA2NC0zNi4zNjIyNCAwLTAuMzA3MiAwLTIuNTA4OCAzLjAxMDU2LTEuOTA0NjRhMjQ1LjkyMzg0IDI0NS45MjM4NCAwIDAgMSAzNC4yMjIwOCA5LjU3NDQgMjU3LjAyNCAyNTcuMDI0IDAgMCAxIDMyLjM1ODQgMTUuMTc1NjhjMC41MjIyNCAwLjI1NiAyLjUxOTA0IDEuNDg0OCAwLjA5MjE2IDMuNzc4NTZ6Ii8+PC9zdmc+;" parent="1" vertex="1">
          <mxGeometry x="406" y="164.96" width="45.08" height="45.08" as="geometry" />
        </mxCell>
        <mxCell id="xMu75mwng90MgR50Zq1B-4" value="&lt;font style=&quot;font-size: 32px;&quot;&gt;易于使用&lt;br&gt;&lt;/font&gt;" style="text;html=1;strokeColor=none;fillColor=none;align=center;verticalAlign=middle;whiteSpace=wrap;rounded=0;fontSize=16;fontColor=#4A909B;" parent="1" vertex="1">
          <mxGeometry x="388.65" y="372" width="156" height="22" as="geometry" />
        </mxCell>
        <mxCell id="xMu75mwng90MgR50Zq1B-5" value="" style="ellipse;whiteSpace=wrap;html=1;aspect=fixed;strokeColor=none;fillColor=#4A909B;" parent="1" vertex="1">
          <mxGeometry x="376.15" y="325.75" width="12.5" height="12.5" as="geometry" />
        </mxCell>
        <mxCell id="xMu75mwng90MgR50Zq1B-6" value="" style="ellipse;whiteSpace=wrap;html=1;aspect=fixed;strokeColor=none;fillColor=#4A909B;" parent="1" vertex="1">
          <mxGeometry x="376.15" y="376.75" width="12.5" height="12.5" as="geometry" />
        </mxCell>
        <mxCell id="xMu75mwng90MgR50Zq1B-7" value="&lt;font style=&quot;font-size: 32px;&quot;&gt;已停止维护&lt;br&gt;&lt;/font&gt;" style="text;html=1;strokeColor=none;fillColor=none;align=left;verticalAlign=middle;whiteSpace=wrap;rounded=0;fontSize=16;fontColor=#4A909B;" parent="1" vertex="1">
          <mxGeometry x="401.87" y="423" width="321" height="22" as="geometry" />
        </mxCell>
        <mxCell id="xMu75mwng90MgR50Zq1B-8" value="" style="ellipse;whiteSpace=wrap;html=1;aspect=fixed;strokeColor=none;fillColor=#4A909B;" parent="1" vertex="1">
          <mxGeometry x="376.15" y="427.75" width="12.5" height="12.5" as="geometry" />
        </mxCell>
        <mxCell id="xMu75mwng90MgR50Zq1B-9" value="&lt;div style=&quot;text-align: left;&quot;&gt;&lt;span style=&quot;font-size: 32px;&quot;&gt;DNS服务器&lt;/span&gt;&lt;/div&gt;" style="text;html=1;strokeColor=none;fillColor=none;align=center;verticalAlign=middle;whiteSpace=wrap;rounded=0;fontSize=16;fontColor=#4A909B;" parent="1" vertex="1">
          <mxGeometry x="406" y="576" width="178" height="22" as="geometry" />
        </mxCell>
        <mxCell id="xMu75mwng90MgR50Zq1B-10" value="&lt;font style=&quot;font-size: 32px;&quot;&gt;易于与Kubernetes集成&lt;br&gt;&lt;/font&gt;" style="text;html=1;strokeColor=none;fillColor=none;align=center;verticalAlign=middle;whiteSpace=wrap;rounded=0;fontSize=16;fontColor=#4A909B;" parent="1" vertex="1">
          <mxGeometry x="403.68" y="627" width="340" height="22" as="geometry" />
        </mxCell>
        <mxCell id="xMu75mwng90MgR50Zq1B-11" value="" style="ellipse;whiteSpace=wrap;html=1;aspect=fixed;strokeColor=none;fillColor=#4A909B;" parent="1" vertex="1">
          <mxGeometry x="378.47" y="580.75" width="12.5" height="12.5" as="geometry" />
        </mxCell>
        <mxCell id="xMu75mwng90MgR50Zq1B-12" value="" style="ellipse;whiteSpace=wrap;html=1;aspect=fixed;strokeColor=none;fillColor=#4A909B;" parent="1" vertex="1">
          <mxGeometry x="378.47" y="631.75" width="12.5" height="12.5" as="geometry" />
        </mxCell>
        <mxCell id="xMu75mwng90MgR50Zq1B-13" value="&lt;font style=&quot;font-size: 32px;&quot;&gt;功能不如专门的服务发现&lt;br&gt;中间件强大&lt;br&gt;&lt;/font&gt;" style="text;html=1;strokeColor=none;fillColor=none;align=left;verticalAlign=middle;whiteSpace=wrap;rounded=0;fontSize=16;fontColor=#4A909B;" parent="1" vertex="1">
          <mxGeometry x="412.22" y="678" width="407.78" height="67" as="geometry" />
        </mxCell>
        <mxCell id="xMu75mwng90MgR50Zq1B-14" value="" style="ellipse;whiteSpace=wrap;html=1;aspect=fixed;strokeColor=none;fillColor=#4A909B;" parent="1" vertex="1">
          <mxGeometry x="378.47" y="682.75" width="12.5" height="12.5" as="geometry" />
        </mxCell>
        <mxCell id="xMu75mwng90MgR50Zq1B-15" value="&lt;div style=&quot;text-align: left;&quot;&gt;&lt;span style=&quot;font-size: 32px;&quot;&gt;阿里出品&lt;/span&gt;&lt;/div&gt;" style="text;html=1;strokeColor=none;fillColor=none;align=center;verticalAlign=middle;whiteSpace=wrap;rounded=0;fontSize=16;fontColor=#4A909B;" parent="1" vertex="1">
          <mxGeometry x="403.68" y="847" width="141.32" height="22" as="geometry" />
        </mxCell>
        <mxCell id="xMu75mwng90MgR50Zq1B-16" value="&lt;font style=&quot;font-size: 32px;&quot;&gt;功能强大&lt;br&gt;&lt;/font&gt;" style="text;html=1;strokeColor=none;fillColor=none;align=center;verticalAlign=middle;whiteSpace=wrap;rounded=0;fontSize=16;fontColor=#4A909B;" parent="1" vertex="1">
          <mxGeometry x="401.68" y="898" width="146.32" height="22" as="geometry" />
        </mxCell>
        <mxCell id="xMu75mwng90MgR50Zq1B-17" value="" style="ellipse;whiteSpace=wrap;html=1;aspect=fixed;strokeColor=none;fillColor=#4A909B;" parent="1" vertex="1">
          <mxGeometry x="376.15000000000003" y="851.75" width="12.5" height="12.5" as="geometry" />
        </mxCell>
        <mxCell id="xMu75mwng90MgR50Zq1B-18" value="" style="ellipse;whiteSpace=wrap;html=1;aspect=fixed;strokeColor=none;fillColor=#4A909B;" parent="1" vertex="1">
          <mxGeometry x="376.15000000000003" y="902.75" width="12.5" height="12.5" as="geometry" />
        </mxCell>
        <mxCell id="xMu75mwng90MgR50Zq1B-19" value="&lt;font style=&quot;font-size: 32px;&quot;&gt;Java场景首选&lt;br&gt;&lt;/font&gt;" style="text;html=1;strokeColor=none;fillColor=none;align=left;verticalAlign=middle;whiteSpace=wrap;rounded=0;fontSize=16;fontColor=#4A909B;" parent="1" vertex="1">
          <mxGeometry x="409.9" y="949" width="340.81" height="22" as="geometry" />
        </mxCell>
        <mxCell id="xMu75mwng90MgR50Zq1B-20" value="" style="ellipse;whiteSpace=wrap;html=1;aspect=fixed;strokeColor=none;fillColor=#4A909B;" parent="1" vertex="1">
          <mxGeometry x="376.15000000000003" y="953.75" width="12.5" height="12.5" as="geometry" />
        </mxCell>
        <mxCell id="1sbAId068Rb1XJULJWD3-1" value="" style="shape=image;verticalLabelPosition=bottom;labelBackgroundColor=default;verticalAlign=top;aspect=fixed;imageAspect=0;image=data:image/png,iVBORw0KGgoAAAANSUhEUgAAAOEAAABGCAYAAAA6qvMsAAAABmJLR0QA/wD/AP+gvaeTAAAACXBIWXMAAC4jAAAuIwF4pT92AAAAB3RJTUUH4QcWDjUdHTc1sQAAIABJREFUeNrtnXecFPX9/5+fz+7ecVwDDhCUpoDl56lgjxhLRuzGEo01iuiuBg9LFLuxYC8IHrZZRRONmpgYK9a1fdVYggUuaAAbKL1dL7s7798f89m9ueXK3nGnYubNY5ktM5+Zufm8Pq93+7w/ih9Zhg2fwuJvb2PP7S/q44jsKYjliBwpIqNEaHSQ+SLyhMB7SZIfzV9wd1Pp6MlULCzHF19+DqJ+zJOP2+Fi3p13K78onfJbEYk6IkUAguCIICKIgIMgIo7AEkH2qVhQvtgHoi8/F9E/1on33elS3p13K3vvcPFUrfirVqpIq+YxQSuFUgqlQKNQSmkFwxXqy9KtJ59QsbCc0tGT/Sfoi8+EXZH9drqUNz+7mX12vOQOgT84Ii7/CTjismBbjJj+TWT/ioXlb/qM6MumLoEf+oTW2Ct449Ob2H/MZdMVXKAAlELcDcqMC4L73kOO7m+pz0pNGFiy+1cVC8vnlo6ezMq1H/pP0xefCbMG4pjLb3SQywyjZbBcpxnxiIqF5c/7jOiLz4TtyMG7/pFRm+/LoqVvMX7nK+8CLlRKuXxnqC4bRhSzXwYjnjSwZPf/Viwsr/AZ0RefCTsC4y5Xne3AvZJiNcARB3EprV1GdPemPUbcp2Jh+f+VjppMxSKfEX3ZdKTHvaNH7H4dAIfudvVdaH1vs9fT5TqttMtuKU+oUrhe0pafU/8yvabatKOUeqt09OSjKhb5XlNffCbcQA7f/drTHHEeTjFZS0bzMGL6t2Y7EMT9nMGISZFW2BME2bNiQfkHHdmIE3eZyaw5Zan3WwC5gAOsnTWnrMr7uy++bJIgPGrP63n6/Sv59R5Tr3fEuQIDH/E4XFoDIngBR7vOmkwgmnYSgoyrWFD+YVtATAFs4i4ztwVeBvp67OM6YPasOWWn+d3Dl00WhCftdROPvXcZR//i+osckdtcJnMMqzWDsTUgijgZIHUB1hEjptgz3Q5yWMWC8tmZQJy4y0w1a06ZTNxl5g3A5e3cxmpg91lzyr72WdGXTQqEx4y7iafevYyj97rhSoSpYgDjBaJ4wJcVI7YBxExGbKnG4giyU8WC8orSUZPZvXgbr/r5MJAt0xXPmlNW5XcVXzYJx8zxe9/MU+9exnHjbrpRKz0VZRwuKLRxsqSCD80OGG+K2obOGu1x2OBpR6dDG4qAUqDc31Szs0Yr1LzSrV1nTXWiXhkAPtgJAAqwauIuM/uk1FhffPnJMuHx+97EX9+6jN/uffNlwI0igpNiNcNerTFi9jZiS2dNNjaiJ3zxy4qF5e9M3GXmLOD0Lt7i8Flzyhb7qqkvPzkQnrTv7bB2LY/Nu5ET9rn1dhG5UJo7fxtATKmiHQNRTBwxFRsUJO2EaU81zXDWMCx3wMuDcvodlLIluyCVwKhZc8pW+93Gl58kE560z20TBR70OkcwYHJSYPIAsRk8LQHYGhATySRKKXJyA5KTE5J4MkltbaN2nKQBJh2FL5JJxwmUFgyXwkBvtRFABOg/a07ZGp8RfflJgfCU/e641RGZojxgaA2IXWHENaurmTDpAGf84WNU/wFF0rekQOJNCbX0+7V68TernHunzZZFC5YFcnqFWmXEhCOOI07K9pVtew+hKJi/Mfe9Bhg2a05Znd99fOkO6VLu6OnWDD79+iUATtt/2okKpqXyPtNzAs1GUhktYHJDJZ0X6u7anDsqxhkjgOMIRX16y72PTZJDj95V9x9YpHrn5yqtlQ6GAqpvvwJGbLWZOu7kvfWy79c6C75YqgIBjcEhWikSjuMFIIBaEV9P/2AxOTrQVSD2Boo+WTb7Rb/7+PKjM+GEX02/CpHrHE9epyPCBozYoY3Y0lkDkF/USx586lxVUJiX1bU88ee3nRuv/rvOz88FEeqTCSfpOLr1m1bskD+CXoGcrt56HBg0a07ZWr8L+fKjMCHARGvG70Hd7oWxUt6ZDwbjKRp0p0agpH1GdJIOxf16y7QHw6pkQFG67dqaBt58aS7/eusL5n+2hOqqeoaO6J/+vXSn4QoR+ej9RSqhROKOo9sbYZbH10qfQIHK0aGu3L4GPvhk2ewv/C7ky8ZKsDM7h8ffRfTVcznjgLvOE2E6SlCi0rqkIGl11AGUCMpBqHcaVTwhaNUrnhcQrdEojYPjAlFAK0HQ5PfpJfc/OVkVFjUzoJN0OP3I6dTWNOA4Llcmkg7HnTpOIucfnMba7y84VFX8e3H89ffnhYKBQAcqgFbz6xbL2MJRKqQ6PRYpfsTSIL78vCTrjnTW+JlEXz2XyIEzL9dKTU/P+VOp+X4qzWxaKXTCcVRVo6j1DaimRC+EPJKiQtUJnVOdkGCj42ilaQ7oQ0Fhrkx76MwWAFyxbL2cfPDtVK+vN9MP3XMEA5onZr2t7Okvp/eddd3rTu3ceGhQXl9JmhhjR2D6uHqhVCXqOusuFSDpdx9ffjB19KwD7+b+V8uIHHj3JFB3KOU1JpuBmP4y4Yizvl67GqdSrVihSidFKRGRUEAJQk5OiLv/+ns1cHCf9K4N9U2c9ZuZ1NY0Kq1VegJwahsMBvjso6/IyQsy77UlziuPfqpDeUEG5fRTDU6T1DmNHdq8CqVWxSspCRWRo7J21sSBsz9ZNrvJ70K+9Khj5pxD7uPuF88G4OyD7rlO4KqUgwWP0yWVzYJAsikuyfV1LYvDtCNOSElwQG9155/PlJKBhemDVi2vlHNPsqmtrVcobRw3GUnaIiilWFldxeBgPxnUq0SlsmwUijnVC0hkx4gAbNt7qFMc7K2zoMUHZs0pC/vdx5ceB2FKJh1838mCPIrxbqaAKBnB9mQiIfHVNVkDMKVe3vTPiAwZOSB9UF1tI2cdPVNqaxqUm57melNTSdzpDBpgXX0t1Q0NODiM7j1EBoSKlKSbF95dP19ydFBldzkipfkjKAjktRfQr5w1p6yP33V8+cFswrJD7r9WKR511U2VPkB5kq61UkgiKfE1tVkDUCkIBDV3zJ5ECoAiUF1Zz9nH3C011Q1p/da1HZW7NTPsA1qzvr6O6sZGlFIEVICFdd+rtYkaJ2WbBpSmX6iwEyOSUv+p/ZaqZG17ZLgt+MncvvQgE553+APMeP5MACYfap8oyGOk5+ql1M6WjJiMJ6R+xXpUQGfHOI4Qyg0y9YkzZOjogeljaivr5Zzj75Oa6kaNyRFNxROhefa9oFhXX8O6+loDzBZAYreirdM3t6RxtSxtXNOpeKggslPBSMnTOdrDiNXAgFlzyhp74kFYlkUsFku9LwZGAAON3e4AjcBCYG0sFmuwLAsgfcymKnbUVkCfDh8JxCPhSK05hkg40plzBIDxkXDkpc4em9FOX6AhEo7UZ7FvMbCleYbaOPKWA99GwpGqDtXRs476M7nxxouBW1qkn2UAUYBkIil1K9dn3cmVAqW1lMfOU8X98ps9HY0J/nDY3c7qtTU62Tvgglw2BKJSsLK2msr61rPGtNLsmL8lOdqNvqyOV8pX9cs7nZQQUFp2KtiKYLOzpsdyRlMAtCxrC+ApYDsgjw1DSHVAFfByLBabkAneTRSEmwNfdGAeiRmEFgE3RsKR5zoDRjtqbwV8CTwRCUdO7OJ15uAm8d8dCUcuamMfIuEIdtR+BDgCKMzQNhNADTAf+E0kHFluR+3W1dG8RPxEpdQtabXT9P5U6cGUappsSkjtsrVZd3DHEXQgwDWPTmgBwKp1tTLlyHuTq75frwMJQQmizTl1OqDvqr2raqpZW1vTHrWLVirtjXG6mKydFIdV8cqERtcDfXsCgCk2A0ZZlvU34DtgFPACMBU4AfgFcABwBfAQsBI4zbKsNZZlnWrAu6lrY4XAJ8BtwO0ZrzuBWcD7wObAs3bU/sKO2ieZDt8Zs+t4O2qP3Yhr7WVebTH6IDtqLwROAV4DpgBjgeHAL4HrgDeAvYBldtQ+NRKOtBxpLzj8QUBGCjyWzvU0HkhE3DxQAZTgJEVqV65TKpB9zDonNygzXjlXFZc0A9BJOlx+XFTWr6oJBENuxCRUnVBNfUPopOCk7FClWFVTxbr6WgK63XOqHBVSqUSAqkSX86zVt/UrQzeNPLXPmKdH1PUEAxoA7QO8Zb56Hvg1IK2wW8zDmGOBj4E/WZa1RywWO+dnYBq9EwlHrmsPVAZ0qb/XX+yofWwkHDkmdUwWrOiYv5vaGLW0DQYUO2q/Z8yI8cBrGe0vBt4x1xoyA+5f8Ko7Fx4xizuem8gFhz/4t2boSatATNQ3Ss2q9UrpLAEokEgkZeoTZ7QAYPX6ernq+Kis/r5SpwCY9pomENFKaRHQmuVV61lTV4Nux/ETUgHGFI4UB0elHDPVifqu/m0lFAioU+ZPuw64qCemLVmWdQTwD/Nx/1gs9mYWoCUWi31iWVYBUA6M+zk5KdoDhunsbxvV8GrgCjtqfwgcgju7pSPZHPjKHLN7dwHRDA47GxtwYiQcea2DfeORcGSz1D2lUXTHcxO58IhZ2yuldm6ey9CsCqa2TiIh1SvWZR+GAALBANNml6kR2w1uVvcSSS4/1nbWrqhqCUCjoGgRpQCtNevra2V1bXW7ANRKsX3BiPTqFQrFqqb1TjYB+9YAmKO1KCCg1FY94YSxLGs48CwQisViqiMAeoGY8mPFYrGJsVhszP+KF9EDmHgkHLkSOAvYDbgrG9U0Eo6sBK43x5zVXUxo5AmgKRKOPJTFdbR4n0llJzSDTqVLzqfqvcQbmqRy6epOqaCJeJIbnjxTNt+yJI3b2qoGp8ya4axZVhlwnLYMBTf80ZhI8F3lOtWeCqqAsQWjyFXNydhNEmdR/TLdhbxQ6RUMClpr7dqkm43d5vxgdwLQAOmf5quDMuxDOgnGTd0m7CrzEAlHbODPwEl21L46G1BFwpGbje15nx21D+/GyxoGzM1SLW7VYE25Li9XHmZxO7jLiE4iIZXL13SKAQW49rHTGTKqORDf1BCXq058UKrX12ndFpgFCGoHYH19rVvIqZ2zjCkcSUDp9EQoQeSz6q+kCzPoJS+UI1opnSoepTZMvOsOO3CcMdifjMVir2SCqitt/q+JB4inGW/jhXbUHpSlo2YqsBR43I7aA7vpkpLGHszWWdQ6CBU0Ybyh4mHEZDwua79f5S7TmaW/y0k63PJUhG3GDksDq762Sc4/eKYs/3ZtoF18BJQQ0DqgNZUNde1cvGLXwm0IqaCXQeWT6i9xkM5BR0QKcnIJKJNV7qqioNTKj7+YnujmPvSE2Z78v8hkPaCe3mo8rOOyZMNqYAegAOiuFYSmA/3tqD2gE17bVpgQPOEI406KJ2X1kk7G2Rzh2scmypBRzYNMXW2jXPHbaKJyTY3WHYBZinsp5QgBdHrqUmvqamnBiBZ2oiDyftXnxCXZWe6Sorw8CWillGftCwPE5d1sD24LDAKejsVi8R8iztcVkKeOaWubzbl+wMHlBbM9pRMAXgucCgy3o/afusJgGfIns/3ejtp9OgPEDCZ0KSUdnnCSsnrpCqUD2dtVNZX13PLM7xm905A0EOJNCa44NiorFq8NtavbOYIqyJHUjInUXOANiVIztnAkvXTzzPigCsjH1YvorPboOI706ZVHAK1TdU29QPxo/rSzuxkMO+J6pT/rSVXSCwCjAvfrDEDMMSp1feZziSerp73jApZl9fsh7Fajkq7GDeYflS2YzHGPAPcAp9pR+7CNyKQhEo4sACbihh++sqP2Bdm2l5nzdXWKARJNTbL86+87bQ1Zv91ZttiqvxeUcvlx0cSyb9foduEhgi7KFZ0XUqniwI6C3jm5LagwpAJslz8Mr8MlKY68X/kFSXE6eb0i/QsKJajdSzMlh71AvAdg1/93QbfZg7hpTACv9CTzGTAcY1nWm5ZlCa4LXyzLEsuypuO609s6frBlWYtjsZhYlhW2LGupaWO1OX5GJhgtyyq1LGua2S8BrDH7vmJZ1jEpUPegSnqXAcSALFXSFHjOAf4DPG9H7ZFdYURPWw8Zj209MM2O2v+2o/bZdtQe4wVsR+ro3zHhwJVLlneKAcFNPdv7iB09LCNcP/ERteybNcENwhAZjphAYS/ReTlKiSdLB+ibl582H7XSbJ8/nN46t/k7tHxcs4hUbDBrK9pJysD8IgkopVHNS655gFivlbpzz+0v4t/z7+zOfpPq/Mt7CoSmw1fgxiDHAQeaETofmAGcB3xp0uRakxxgqGVZvwNs4HNgMG62yJWmk3nBvjMwD7jAqHgBc75BuCl4/7AsqzwWiwk9Jy+Z7TadBQ+wr/nqn13xbnqPiYQjdiQc2cLY+2OBe4FP7KhdZUft3VprO+3R+N3+d3LbMxMWXHDA/f9YsXzFb7TufPUGEWHsPqOb/yqPfugs+GSJ7l2Q264KGizOE907R4kjxhdrVvAVoSS/UK2sqZSmeFJtnz+cXJ2T9oLGJSH/qfkWRxwPbLMxWUUGFfYhoLV2i1M5JkVO3DwboUngsPcqbl3UA53F6ale6AHFjcD2wB9jsdhUzy4J4HzLsmYYcH1nWVZpLBb7TxtN3g/8KhaLveH57oaMc20PzDGA/10sFqv33OcKA+YrgamWZc2LxWJ2D91+qiBRdRfAs8aO2gcCr9hR+++4obrERqqnj5m2DgR2Bi4GPrSj9hfAk5Fw5I+pZAENUDp6Mo+8cQGloycPeXvx57/JnJmQNRM2taj4IB+8NF/16t1+RbNgYZ4E8nNVitqUd/ls12Zjxy1GqL1GbEeuCnnDEFTUfEuTJDoFQBFkSHFfJ2S8Q6m1L8zJ0YomrdQh78679Y1xO1zcE53lc7PdtrvtJAOKYcBlwD2xWGxqG+f42jgxKoFplmWpNva7IgOArcnZ5tzHegCYaQveDHwPnGxZVk/V5vm92c7volr7qmGt3wCHddbD2QYrNkXCkecj4ch1kXCkAJgGDACusqN2zGgL6NSqtqWjJ+8JfN0gSb5oXEOgS0AUL36U47SjIooQKuotoYJcVwXFsyiMmTeotSKZcLh+1inMeO5MAkEtjiMkJMkn1V9Kk8Q7pYI64sjmxcWilQqoNhahAX7x9tybX99vzEW8O+/WnnCWpKax7NoDTKiAKG4M7MK2PK+xWIxYLLYCt1LCgUBJGw6ixzuwbwHKcJOTW3W+mHMlgAiwD5DTnYOPBygHmo4f3wjwTDKq9tN21D6qOzNqDOtdCAw1zqBfARV21C7UZu2+4cC/gKACGiTBl03rRHeyLGkoFEwjEaD0F1tJIp5sE4A5BblKebyg3rMppXCSwg0PnsqgIX0J5gSw35+k+g7Kl7k1XztxSXaKAQGG9ylxcgJBnQlAs3U0avybn9388f5jLuPNT2/vEVsNeNuohUf0wAyIHGNzzgUa2/O8GoCmFm48r61H2gHo70oxq2E4bVlWq69YLDY7ZeZ3l0fYM3VoJ6+qvBFqpMad27gOuN2O2iE7am9s6CLTgVRvnEF/AbYGDtCloyeXmIfWQtYnG9XnjWs61c1VQDHvX1+lPx9Xtq8aPKJEvE5RESG3OF9yCvIUjrdSm2cZNa1IJh1u+8tEttxmMw8wESlyxJ1b0TlbdVifEiegA4H0eVIMqNPLsI2NfXrja78acyVvfHpTj3kPYrHYStxZALtalrVlN4cogsZ5sqojJ4jnvEtxwyZdkdRk3Dm4swLafFmWtdTs26s7PaMGIKeZwf+FjQS0EwlHmow6PxKY3835pV4wnp9yx2hgf49R64lWuIy4JFGdNSOGQkHeeW5e+uHrgOby6MmEcoOOmKB7XnGB5BT2VqlYZPM8xWZeSzQlufreE9lsi+YJ102NcZl05L2sXLpObz94qApoLVm52hSyZb8BTigQ0Gk1N31qUz5D60Nf/fj6uQftfCWvf3o9P4CknsRTbalxXRQxr87YEiHcGFtXRBm78kzjDezoNR74pjvu18NOfQyTrwbmbKwdZ8B4P3AOMMqO2ud2NxA9sc16YM8gHSyYuTpRr5okyVahPlk9ktf//rH+9RnjZIuR/RXAZsP6qTtfLOOiI+4RCYbIyc9TSPMUqRTFKTNpIxTU3PLoafQf1GJckCtOf4S66kYVDAYQEXYcPEz9Z/mSZFMy2Wbso8lJsE3/wRLUAS0iaCU4uJXbNOAomoDdXvzo2rkAL3/c8wA0auBXlmXNAk63LOuiWCx2e1cyZ1o5Jmke7OZGBczGEzuArqdufQ0UA3NjsdhifkDxAONzM+iMMizWXe3aRr2dYUft14AFPXUv2hjL7Q91yUaWJmokGxsst1eIi4+6T323aFWaqIpLCtRVD0+g/9D+Jh+8uUiwdwgPBDWTrjm0BQAbG+Iy5aSHWLWsSikPawJsP2ioLuldIDmBoIiIE3eSknScZEBrCnJ7OTsOGiY5wZDOXDHYMKJoOOXFj66de+ju1/xgncczJ/AMo6rdZlnWCV20D3ewLOsQT9uNuKUidjIOENUBiKeZt/d0cTD5o/l4QjczeraM8g5uLPKSSDhS1R22mweMiUg40hdYD7wH9OuIle2o3aeja/DYsSW4JUye0R0Z3y5SFasSdWpxvDI7DVDBpUffr6rX16f3H7b1QHXJjKPJ6RVooX6mgBgMBbhi5vHsuMeIFm1defqjrF1ZowJB3aLStwGiGtq3v9p2sy3UDoOHqTGbD1c7bD5Ubztwc4b3KdFKuXBrWelboRUJrdQvn//wmicP330qsz+85gftPB7AbWVsssctyzqvvTSvjJQzZVnWocaWfyaj+aNNh/l7a3ahJ8NlK9zsjr/h1q7pipMJ4BLgFsuydm5tIPGcT3UVqN6ObRwl29lRuwE3EWFKJBy5dWMcMh2cd4Ix1/5JGzFeA6o5wDfe0EZrgDS/K9yE7yTwiMat7ZGVrE7WqyXxKgJKdQhGEWGydScrFq9LX3jf/gVcWn4sQ0f2p3JNHfHGJDWVDfQpyefc6w9nyFYl6eOrK+vlusjjsmZ5ldLpUvtsAERtHC0BrVVAaYIqoJTylGc0W610yiEjCnX0sx/88d0j9riO5z+8ih9DTCdOmFDFP4DplmV9ZlnWFMuyQpmqqSdN7FjgSeOEqEmFBzzsJMbmPMyyrIfbGAD2Bl7EXebtnI10Dj1uFJl/mlIbrZ1vJPC0ZVlD2zlXXQcOmCI7ap9pBo35QC5wSiQcub07GTDzvJFw5BncWfx7dWBr3wMU21E7DtxiR+1+rQ0KdtTezHhGT8GtofO+Kh09+TTg4c5cXEkgT4aEClVHLoLexfnOoBGD1JUPHEdOr5YFeJd9t07ef3mB2nrHwc72uw1rcXPiCDeUPSlLvlytWhYZbq703VyJu3nV3xZV4cxAQHqlYMERSQBHP/Xe5c8ftef1PP3+lfzY4sk8uc04OFLG9we4E1aX4KabHeyx3+uA92Kx2Ph22nsat+KXNg/8U/P+D2Z0X2mYuC6TMc2s/2+A4dnYepZlDTaMDvAIkHIv5+GW4NjLDBgHxGKxDzI65RBzj5VG9cvsV7nAZp7PVcC/IuHIwZ1gtFHAwkg4orrChmYQeN04Me+OhCNlbewzAjfUlypz+AJwB7AKd9rUBcBvjd1+ayQcuSZV3uL/gE4ZtKuT9WpR0zqCbQT0xREK+hVJUUlfXbW2Vt0QeZKayoYWD3rwkL7q6DP2IBOADXVxro08Id/8d6XyhhPSidVtMWJmmCOlsnq/V2q/p967/Pmjxv00AJhhI04xbvF9zai6B3A3bgmMxw0AK4yHcdtYLDa+reC4ae8ooBS3Utmj5ti5wImmrdGxWKzWJGm3xkqLsgQgsVhsmel4pwK/M0w134QuegN7GkB/0Mq5aoDXzf7LDJi9r29x518eB+wNbB0JRw7uJPutAP67kWGQw3Djh/ltOXMi4cg3wBbALsC55pjXcfNq/2Xu4TxghxQAI+GIO+qUjp58Ee7EyE6NFP0CvWR4qFh5ywqKCAV9CqWopK9yTO0Kx3Eo7p8vp12yv2y53WZtUvq6VTXOPVfNVt99tVqhVTObkVl2v31GTO/fzIgiIsf87Z1Lnz5urxt58r3L2VTEsqygyTjpMst29jev7Zlt0nVmexnFjFUPJ29ny2Z01Xb0FoVqr0BUa+ewo3YgEo4k22pPlY6eTMXCcrqilgqQp4Nsm1OSBkFR3yIp6FusmlVDDBDFnbGnFWU3H+aUbFag8gpyaaiPS0NdnOmXPOdUr6kNxhNJw3yOAZsXiI5ZDtsFIp5ixG0DEQTZ84m3L/7ghL1v5ol3LuV/TX7IAsEZ4Mtk5x8VgBvjuOmOymxttdGC+UpHTz7F6PSdkpJgngwLFqn8vkVS1K84zYCZQBRxgVi1vgEUUtCnF7VVjU5TYzxQ2Cdvw0rf4qSjz6RXYnLSbbXLiGYfJXLsX96e8o/j97mVv759Mb748lMT5QFgihFPBB7rLCMOLuzz1s5DR+4tEEixVVtATH2fnhGRwVxtAtGjlmahmjoistejb130gf+YffkpS9o+M4ncVCwsfxw3ftQZJF/+2sdT9xPX+9NcKp8Na9YoTxU3lVHXNL3OqLfkvtLpZe/xtJHprGm5YjAopSY8+tZFH5y87+3+U/blJy2tpnytXPvhnIEleywHsqnLeHvFwvI/Arz336c/HLftUd8DR7gY6hiIabiqTECmvk/950lx82TaNM++SAPRQakD//TGBU9P2H8aj7x5of+Ufdk0mDDDNqRiYfn9uK7stsIXSeCMioXlU1JzEqcc+TC3PTPhAdw5Zs3LaKM2AKL2FBjGU2A4zXStMKL2THfysqFqyYgnPvz6+a9N+NV0Hn7jD/4T9mXTsQnbk9LRkyfirgoUMsfcW7Gw/MbW9jVAZMqRD58DzDQmXgc2orvmYNdtRAcRkiAnP/DauX893ZrBQ7Hz/Kfry88DhCmHTbbfZwDxcOC57ICIp3BF+0D0hi88XtODoq9OfmXiAXcx67Vz/Sfry8+LCbsiHiCeh5us2ioQU+/bYsRRsqJNAAABOUlEQVRmz6e7v+ONGTYfe6r9yjmPRMbPxH61zH+qvvggbAWQ++EujtglRswEYvOKwQ4i7H/fy5PejBx4N/Yr5/hP1Jefh2Omu+W2Zya8iZs4nF64LP1/O17TZieNaj18gT71vpcnvXnWQff4APTFZ8IsGfFg3Ck0WaimGwb0MxjRmvniWa/7j9AXnwmztA8NI74ETGqLEWmFEVXrjBie+eJZr08+xPafoC8+E3YRlGfjTtdRnQxfCCJHzXgh/OzkQ23KZ0f8J+iLz4RdYcXbnplwHzC5JSOqNmxE5U1bmzjjhfCz5x4W9QHoi8+E3QBEphz58G64C3n0FUG1wYgiIiuB8Xc+f8a88w9/gOnPn+k/OV98EHYjIAtx66xYIhwDsjWQFPgvIk8Cb6PUR3c8e3qd/7h8+TnK/wcZIPZg3nBbUAAAAABJRU5ErkJggg==;" vertex="1" parent="1">
          <mxGeometry x="35.71" y="594" width="270" height="84" as="geometry" />
        </mxCell>
        <mxCell id="1sbAId068Rb1XJULJWD3-2" value="" style="shape=image;verticalLabelPosition=bottom;labelBackgroundColor=default;verticalAlign=top;aspect=fixed;imageAspect=0;image=data:image/png,iVBORw0KGgoAAAANSUhEUgAAB9EAAAGHCAYAAAAHoaIyAAAACXBIWXMAAAsSAAALEgHS3X78AAAgAElEQVR42uzdW3tb2X3n+R8pTyRegblnFVF2uU5Osrlt7cp0umNCvJpJp5v0HNrlQ8Kt6Y5jO7ZFvwKhXoFAH5JOTz+jre656Ti2oD7NuQSW7SrJcBvAM890nKp0CkTVfcgr2LRlzsVeFCmJInFYANZa+/t5Hj1lW6aK/G9hr8NvHeYODw8FAAAAAIBN/+B/OVyRtHjif6o8/E9zx+PQw8d/T5LmHvlvXfPrtN9/+Hvmz+m+tTnfpfoAgEn7yP/780VJKyf+p7L5dVpbVpZUfmQWdu6R/9Y4ox185Pf+9pVLDaoPAAAweXOE6AAAAACAQf3uvzxcOZzTUXCwqEdDg9V8pHnuSPThfzx1RHru1z/5Px0++fu7Og7f25L2dBy6d9/6Q8J2AMCTnu/8PG/XTFv32GKvsqRlO23V4VBf+8ifc/z7O+afR+3bnqS25qT3XiJsBwAAGAchOlAwUZysSKpRiTNtdVrNNmUApvpuOgpjyubX47s6zpJPFOUakvb4DAPAeH73Xx4evZNPvptXJJWkRybvnzLSPHck+vA/TjBEH8Su5tTVccjekNR96w8I2AEgZA+D8uN27uify4+3JYcjt3XntVVWQvTzvn7/RBvXPvrPBOwAXGPmrBf16HzQMHNDwNR1Ws0KVQgbITpQvA5JRdJdKnGmK51WkwElMLn30NEgqGJ+PQxlLNvR8URRo9Nqdqk+ADzqd//nw7Ly0ODofVyWFFmcvH/aSPT4zxrp60/5nob5+sH+rB1JXc09bEvab39+fo+/NQDgl+fbPz9u4+a0oqNTUwZsHzwP0U//+vwfncfbue6LlxgzAZgYE5SX9ZSFuoBvOq3mHFUI28xCdBPkrTz2wlwe4Et39OjqyTaT4sDQnz1C9LMRogOTGShtmF/RjL6NXeU7DOvKQ3WCEACF8sl/cbhowoPK4XmLmAjRn/b7u2Yc2lAeqtNnBACHfPQ4MF85zP8ZDdW+nPL/DThEP+3/u3+ynZPU6L54iXETgKE9lv88+T4GAkCIHr6phegTnjx/OCneaTXrPFbg3A4MIfrZCNEBO++bsqQt0/YvO/gt3pGU0XcAEKpP/ovDso5P/ahIWj43EHg4Ujz7twscop/29UcnnzQkNd7+HLvVAWAaPtr6+aIePd1q9eQ7e6T25ZT/b8FC9NP+rKN514akdveFS1ydBeARZv7n6F1cEYE5CoIQPXwTDdFnNHm+r3yHWUYIBpz6uayIEP08hOjAeO+Z1LT/vgya9iVlkmqcbgPAZ5/888Oy5h4LzZ8YAeb/IES3+Gc9+fudw+OwoXGPUB0ArPjoT36++Fg7F531TiZEP+Prx/s59nXcztW7L3AEPFA05pq+jTPHHUABEKKHbyIhehQnG8onz1dn/PPtSqp2Ws2MRw08/HxWRIh+HkJ0YLQB1Jb55fNdVjum78A7AIAXPvnnh0eTV/nC5QEnwgnRLf5Z5399R+YqkXuf5fh3ABjGR3/y80dPthzinUyIfsbXj/lzPPa9PHJt1u5HOf4dCJE5aTgVO82BhwjRw2c1RDfheU3urTwiTAeOP6cVEaKfhxAdGPydEkp4Tt8BgBc++eeHZR3v+lh/coR33ggw/wchusU/a7ivPzo5rSGpfu+z7FIHgJNe+MnPH+5uPMz/WRq1fSBEP+Prx/w5zvledkxbV9/9KLvUAZ+ZvOfoV4mKAI8iRA+flRDdhHJVzX7n+bl/pyWlnVaTu3tQ5M5PRYTo53m902pWKQNw5rsk1PD8cbum79DgqQOYldV/fnh0t2B6OHfOrg9C9MG+3uafNc7Xz+mOjgL1z8x3+dsOoIhe+E8Pg/MNzR0vEBu3fSBEP+Prx/w5hvheOppTQ1K2+zx3qQM+IDgHBkeIHr6xQnQzgV6VdM2zn3u702pu8fhR0I5QRYTo5yFEB85+j6TKT54p0mBqR9IWC/EATMvqPz8sK1+olB/TbowfXps/R+P9OYTolr7+0d/rSMpEoA6gAExwnppf0WnvRUL0ybXDUwzRT379rvId6gTqgGNOHNX+yNgDwNkI0cM3cohuXqx1j1+q7EpHUTtFFRGin4cQHXh625+p2HdfbSs/5p3jdwFYt/pnh2XNaUOPBwonEKI//fcDCNFP2pGUHc4d1u+/doE2B0AQXvjxzxdNO7eh064keey9SIg+uXZ4RiH6SbtmbJntPs+R78AsmA2SG8oX7nLHOTACQvTwjRSiR3GyJelGAD//vvIgvc5fBRSog1QRIfp5CNGBJwdWVfl38syk7CrflU7/AcDYVv/s8GjyKpW0Ovnw2vw5Gu/PIUS39PXn1vlQku5Iyu6/doF2B4CXXvjxz4+C882Jh+CE6IN9/Zg/h+W+SUdS7VCq9z5yiYVjwIRFcVJWPsfDce3AmAjRwzd0iB7FSSZpM7A6XO20mhl/HVCQjlJFhOjnIUQHjt8Zvp88M0l3lC/GY6IHwNBW/+xwRcfHtR9PXhGiD/VzPPI9DfP1Nv+syYfoR/aV79qr3X/tQpdPEQCXvfDjn5d1fFz78ijvVEL0ybXDjoXoJ7+nW5Ky3kcuNfgUAXaZOeGqpFWqAdhBiB6+gUN0swutHvBLliAdReowEaKfjRAdyN8XVUnXqcSZdpUH6Q1KAeA8q396uKg5pcrD89MXJxGiD/VzPPI9DfP1Nv+s6YXoJ+0o353OGBaAU8yu8y09bf6QEP3UtnDa7bDDIfrJcVZNeaDOomVgDFGcpMrDczZHAJYRoodvoBDdBOgNhX83BkE6itBxqogQ/TyE6Cj6eyL0hXO8NwBM1eqfnth1PnfOkYmE6EP9HI98T8N8vc0/azYh+tHX78uEDPc/ze50ALPxYvNg0bRz6eHc4bKNdspG+0CIfsbXj/lzTLVvMneY707/8EKDTxswOMJzYPII0cM3aIhel7RekJoQpCP0DlRFhOjnIQxDkd8RK8oXznEv1vB2JG1wvDuAI5U/PdyQtHV4clGS6xPVU/s+CNEHq/PhMP/uW8rD9AafPgDT8GLz4GiR2OaI760zf58QfXLtsGch+tF/6kiq9T68kPHpA56O8ByYHkL08J0bogd6B/p54k6r2eavBwLtSFVEiH4eQnQUeaB1k0qMZVd5kE4/Aiioyp8eLiq/57wqM3Hl1UT11L4PQvTB6jxSGJUf9f5pjnoHMBkvNg+eemQ7Ifow7QMh+mB1PjxtzJUpD9RZwAwYhOfA9BGih29+gBfvZgHr0jBH2QIAUJTBViYCdBuWTT9ig1IAxVL5thYr31ZVUte8T5m8wqysSrr52//mQfe3/82DlHIAsOXFHx2kLzYPupJui6ufMNsx13VJ3Wf/tl999r1+mZKgyKI4qURx0mAMAgD2feiMl++KijuZXlJ+lO0Kf0UAAIEPthaV36W6STWs9iNuR3HCFTFAAVS+rbLMPbDiKgy4ZVl5mF6TVDucU+1H/+QCO/YADOXFHx08ccIK4NC467qk68++1791KFXff26hS1lQFFGclJXP56xTDQCYjLN2omdFb4fMrjwAAEIdcC0qXzRGgD4ZN+lLAOGqfFvlyreVSXpP0jURoMNdRyFD99W/eFB99S8ecOoagHO9+KODxRd/dFAVJ6zAD5uS3nvmvX72DDvTUQBRnFQltUWADgATNX/GSziiPNo0R9oDABDagOsoQKe9n3xfIqMMQDgeC89ZhASfEKYDGMiJ8Py6WCQGz8ZfIkxHwMzR7byfAWBK5k95EZeVH0eI3E1ztD0AAKEMugjQp4sgHQhA5VtarHxLVeU7PgjP4bNHwnTKAeDIiz86SF/80UFXhDMIYAwmwnQEJIqTRTOvcFecDAIAU3PaTvQqHeUnNMziAgAAvB94iQB9FgjSAU9dOQ7PuyJUQFhKkq6/+hcPuq/+xYOUcgDF9dL9h+E5x7YjuHGYpPYz7/Wrz3T7nMACL0VxsmHGIizkBYApm3/shVzmZXyqkqS6CR4AAPB14EWAPlsE6YBnrnxLqQjPEb5lSTdf/c6D7qvfeVChHEBxvHT/oPLS/YOGCM8RtocnsDzT7VcpB3xhdp/XJd1mLAIAs/H4TnQ6Eme0W5JqlAEA4OvgSwToLiBIBzxw5VuqXPmWuspDBSasUBTLku6++p0HjVe/86BMOYBwvXT/oPzS/YO68mOBV6kICqIk6foz3X73mW5/g3LAZVGcVJRfI7VONQBgduZPvJgXJdGBONtmFCfcFw8A8G3wRYDuXn8iowyAe658S+Ur31JD3DWIYluV9N6r33lQe/U7DziNDQjIS/cPFl+6f1CV9J4IZlBcy5JuP9PtN57p9lcoB1wTxUmV8QgAuOHkTvQNsctiEDfMSjAAAHxRFwG6a1iYBzjkyje1eCW/9/w9sSMPOHJNUvfV7zygvQIC8NL9g1THV5QAyPt8rWe6/Rr3pcMF5vj2Bu9pAHDH4yE6BlOP4oSVigAAHwZhmQiEXHUjipOUMgCzdeWb2lB+VCKTVcCTSpJuvPqdB+3kLx8wBgY89NK9g5WX7j2895zNM8CTrknqPrPbZ2yGmTGb9rpi/gYAnDJvXtKL4hinYZQkZaZuAAC4OgirStqkEk67ycI8YDaufFPlK99UQ9JtcVQicG63QlIr+csHteQvOeId8MFL9w4WX7p3UJXUEqEMcJ6SpJvP7PYbz+xyxDum3MnKF9ffFQudAMA5RzvR2YU+QvsmKaMMAACHB2HsqvRDI4qTMmUApufKN1VVvvucUAEYzjVJ3eQvHzCHADjspXsHFXHKCjCKVUmtpd1+dWmXI94xeeb0wJtUAgDcdBSiVyjFSNbNLj8AAFwahK1IqlEJb5SUXxXDJA0wYVe+qZUr33wYKrDTAxi93bqd/OWDOrvSAbeY3eeZ8h2NnLICjO66pPbSbr9CKTAJ5v7ztjg9EACcdhSic0zNGJ2qKE5YhQ8AcGYgJqkhwiHvHp1Y+ABMlNl93jKfNwDjWxe70gFnvHTvYEP5fboEMoAdy5LuLu32a+xKh9XBf34SXYNxCQC47yhE54U9noz7TAEAjqiLAN1Xm1GcbFEGwK4r39DKlW9wpC0wIce70r/LrnRgFl5++2Dx5bcP6pJuMw4AJuKapPZSj13pGJ/JENoijwEAL8xHcUIHwM7EQcYxrACAGQ/GauJ+X9/doG8G2HPlG+w+B6Yk35X+XXalA9P08tsHFeW7z9epBjBR+a70Xr+21GNXOkZjAvSGWPAEAN6Yl0TDb6kdVL77DwCAWQzGNpSvkIf/uB8dGNPaN7Syxu5zYNryXenfZVc6MGlm93lN+d3nhDHA9FyT1Fjq9TmRFEMxczYN3tkA4Jd5cR+6TatmFyAAANMcjC1KyqhEMEo8T2B0a9/QlrhjEJildUnt5LsPKpQCsO/ltw+OdjKygBaY0RBcUmup169SCgz0FyZOUnHlBgB4aZ4SWHfNNIwAAEwL96CHZ5370YHhrH1Di2vfUF3SDd6JwMwtS7qbfPdBlVIA9rz89sGWuKYEcMX1pV6/wfHuOIvJCW5SCQDwE8e5T0bN3HECAMCkB2Rb4h70UFXpTwCDWdtWRVJb3AkLuOZ68t0HDY53B8bz8lsHiy+/fXC0UAyAO1YldZd6/Q1KgccRoAOA/zjOfTJK4j5TAMDkB2QrYiIt9P5ERhmAs61tq6r8TthlqgE4aVVSN/kex7sDo3j5rYMVsVAMcH3cdnup1+eKTzxk5mv4OwEAnuM498lZVn68LgAAk5JRgvDH3lGcVCkD8KS1bS2ubasu6TrVAJxXknQ3+R7HuwPDePmth8e3s1AMcN+1pV6/zfHuMAF6Q1wxBQDeI0SfrNUoTjLKAACYwKCsKu5CLIrrHOsOPGptW+zKAzxt0y5/70Hj8vc43h04y8tvHSy+/BbHtwM+DtWVH+9eoRQF/QtAgA4AQSFEn7xNc/8JAAA2B2XsvCyWjBIAubVtpconptiVB/hpVVL78vcesEAMOIU5vr0hFooBvipJurvU629RimIxV7tmIkAHgGAQok/HTXaQAQAsyihB8cbjHOsOSGvbyiTdFBNTgO+WJTUuf+9BSimAYy+/dbChPEDnxCnAfzeWev2M490Lhfc3AASGEH2KjahZjQYAwMiiONliUFZYW1GclCkDisjcf96QtEk1gGCUJN28/L0HNUoBPLz//LZYKAaEZFNSgyA9fOZKV+ZqACAwhOjTnSBoUAYAwBiDsrKkKpUodF8iowwomhP3n69SDSBI1y5/70H98m3uSUdxvfzDg0zcfw4EO5RXfk86p5SG+oDzzQ4s9gWAABGiT7lNNavSAAAYRU3sTCm61ShONigDimJtW0fH2nL/ORC2dUmNy7cflCkFiuTlHx4svvzDg7YIX4DQlZTvSE8pRViiOKmIRVAAECxC9OnbNKvTAAAYdmC2TiUgqcYVMSiCtW2l4lhboFDdHUnty7cfsFMPhfDKDw+OTlrh+F+gGEqSbi71+lVKEUjHJR+X16kEAISLEH02bpgwBACAQWWUAMayJBbkIWhr26pJukklgMIpKd+RzqkrCJoJ0BvipBWgiK4v9fqM78NQFwt+ASBohOgzbGTN3bYAAJzJnGDCBBtO2qIfgVCtbSuTdI1KAIVVknT78u0HKaVAiF754UEqqSWCF6DINpd6/cZSr88JY56K4qQqaZVKAEDYCNFnOzFQ5zhWAMA5A7NFSVUqgVP6Efy9QFDWtrW4ti3uhQVw5Obl2w9o6xAUE6Bz0goAKQ9gCdI9ZE6YvU4lACB8hOgzbnMl1SgDAOAMVbFLBafb5HoYhGJtW4vKj7XlXlgAJ12/fPtBRhkQgld+eMBVJQAeFykP0lcohScPLN/oQN8EAAqCEH32Ns0xvQAAPD44K4sjjXG2KiWA79a2dXQvLAE6gFPHzATp8N0rPzjI6NcDeNrQXwTpvo3BuW4PAAqCEN0NN6I42aAMAIDHcFoJzrNKHwI+I0AHMKDNy7cfNC7ffsCRt/COCdC5qgTAWUoiSHeeOQmOBVEAUCCE6O7IojihowQAODk4W6cSGACLLeClEwE6V1YAGMSqpMblOkE6/EGADmAIBOkO4xh3ACgmQnS3OkqZaZABAKhSAgxoOYqTlDLAJwToAEYUiSAdHnjlBweLr/zgoCECdADDOQrSK5TCOVVxjDsAFA4hunsTAhllAICCNwb5LvRVKoEhB/SAFwjQAVgYNxOkw1mv/OBg0bRz9OcBjKIk6e5Sr59SCkc6HvnpsRzjDgAFNC+pTRmcsh7FSZUyAECh0Q5gWOxGhxcI0AFYEklqfIIgHY45EaBHVAPAmG4SpDuDK9QAoKDmJe1RBudcj+JkgzIAQPGwCx1jqFICuIwAHYDtbpMI0uEQAnQAE0CQPuvORr5YnTkaACgojnN3V2aOigEAFEuVEmBE7EaHswjQAUwIQTqcQIAOYIJuckf6jDoZcbIo5mgAoNAI0d1VklQ3jTUAoBgDtIpY4YzxMMCHcwjQAUy6CyWCdMwQATqAKagv9fpstpq+LUnLlAEAiosQ3W3LkuqUAQAKo0oJMG7fgd3ocAkBOoApIUjHTLzyfQJ0AFNRktQgSJ9ixyLf2LZFJQCg2AjR3bcaxUmNMgBA8AO0itiFDjuqlAAuWNtWWQToAKbYnZLU+MSdXxKkYyoI0AFMGUH69MfVjGMAoOAI0f1wjV1lAFCIARpgw7JZlAHMzNq2FpWfqMTEE4BpIkjHNDVEgA5gugjSp9GZiJOypGtUAgBAiO6PWhQndJAAINwBGrvQYVOVEmBWTIDeEMECgBl1rUSQjgl75fsHGe0cgBkpScqWen3aOcbTAIAJI0T3q4PUMPexAAAYoAFnWWXxHWaoLoIFALNFkI6J+VgeoG9SCQCzbucI0idQ2HyTA+94AIAkQnTflJTv6gEAMEADzrNFCTBta9vKxMkaABzpZokgHZYRoANwrJ3LKIN1KSUAABwhRPewgxTFCR0kAGCABpxnkxNsME1r26qJYAGAY+NnEaTDEgJ0AA5aX+r1M8pgqdOQj59ZjA4AeIgQ3U+bUZyklAEAgsAADZNEfwFTsbatVNI1KgHAQQTpGBsBOgCHbS71+swr2LGl/CRYAAAkEaL77CZ3nQKA38yCKAZomPQkADBRa9uqSLpJJQC43O0SQTpGRIAOwAM3lnr9lDKMjRoCAB5BiO63Bse0AgADNOAMy1GcVCgDJmVtWyuS6lQCgAfyIP3fEqRjcB978xeZCNAB+KG21Ouz4WrUTkK+yWGZSgAATiJE91tJBOkA4OsArSxplUpgClJKgElY29aipEycqAHAoy6YCNIxIAJ0AJ4pSWos9fq0cYybAQCWEKKHMQlQowwA4B2O2ca0bLDgDhNSN31RAPBtDE2QjjMRoAPwVElSgzIM2TFgkwMA4CkI0cOwGcUJYQwA+CWlBJiSkqQNygCb1rZVExNNAPxFkI6nIkAH4Hsbt9TrZ5RhKMyrAwBORYgejhvceQoAnoxo42RDHH8MJgXgqbVtpZKuUQkAvnfJRJCOxxCgAwjE5lKvzxhwcCw6BwCcihA9LHVz/AwAwG0pJcCURVGcrFAGjGttWyviKiEAAbWPkhofJ0iHCNABBOfGUq/PGPC8jkC+yWGZSgAATkOIHpaS8iCdCQAAcHeAtihpnUpgBlJKgHGsbWtRUiZO0gAQWPdMBOmFR4AOIFCNpV6f9u1s7EIHADzVhyhBkBMANTFRDgCu4v2MWf7d40g/jCMzfU3All1J3SG/ZkUs5MBkxtGNj//bX1Z+8o8/tEc5ioUAHRO2M+T/f5H+FiwqSapLqlCKpyJEBwA8FSF6mDajOOl2Ws0qpQAA5xBiYlZKUZyknVYzoxQY1tq2tsQpGhhcR9KepIb5723z3/d+8D/NtfP/aW7sf8nfv/WrReWhuiSVT/nF0ZwYRh6k/7tfVn7yjwjSi+JjO7/INEeAjqHtm7ata37tmf8uSe3/8psXrb1DPvyff7aiPFg/2eZVRNiOwa0u9frVD55dqFKKxxr+/Ch3FmcCAJ6KED1c16M4aXdazTqlAABnBmgrYkIfs7WhfDcxMDBzD/oNKoFTdHQcIjQkdX/wT+e60/qX/3Bz/mRQf6rf+Ve/qug4eKiIcB3ndNdEkF4YH9thBzrOdRSWN0xb1/0vv3WxMc1v4G9fudQ+8V+fmON77q9+VjZt21EbtyLCdTzp+lKv3/jg2YUGpXhifAy/xh57Ol7ABAATR4getiyKk0qn1WxTCgBwArvQMWvrUZyUO60mA04MxNyDzqJMSHmQ0DC/2j/4p3MNH77pt/5w/uj7fPj3+Hf+1a8WlYcNR8H6Ko8XJxCkFwABOp5iR8eheftvfuui833m916+1NXxYraHnvvpz062cyzmhiTVl3r98gfPLtC2HSNEd3fc8fBdLKlLvgFgVgjRw1bScZBOBwkAZiiKk0UGaHBEKqlKGTCgmph0LaqToXn9+/9sejvMJ+2tP5zfUx6qHwfr//pXFeVBQ0WE6iBIDxoBOk7omLag8TfRdHeYT9p7L106asNrkvTcT39WPtHOcYR1MXE/+smGnqPcXXPnaOxBYA7AJYToxRj8ZyK4AYBZY4AGV6QiRMcA1ra1IUKGoukon7zKvv/P5go1efXWH8w3zM+u3/nXD3eqb5h/spCkuGNpgvTAEKAX3r6OF1E1/ia6WJjP9nsvXeoqnx/MJKn805+tmHZuQxz/XiSrS73+1gfPLtQoBYsJHHDr6H3MBkAAriJEL4b1KE5qnVaTY4QBYHZSSgBHLJtTahqUAk+ztq2yzCQrgtcxz7r+/T8KZ7f5ON76g0d3qv+9//VXK6Yd3xCBetEQpAeEAL2wds37PPublYvsbjS6L11qKz8muVr+64e71DckrVOd4N0w96MX/fPAhrPZjT1qkuoE5wB8QIheHNeiOGl3Ws2MUgDAdEVxUhZHw8ItqR67NxF4TCZOzwgZwfkQ3v78fFvSlqStE4F6ymekOF05EaR77zcI0IvmaMd5jeD8fN0Xj3epm0B9w7Rz7FAPu6+/UtiGPZ+jYWHkdN2RVGMxPwDfzFOCQqlFcbJCGQBg6jgJBK7ZjOJkkTLgNGvb2hILf0K0r/zIxPjNP5pb+f4fzdUI0If39ufn229/fn7r7c/PL0r6lPIJQYTvKEin7fQQAXqh3JF09d2Vi4vvrlxMCdCH133xUrf74qVa98VLK5Kek7Rt+hAIrF1b6vWrBf752YU+3ffyc51Wc4MAHYCPCNGLpSSpzqQ5ADBAA8QVAziFOca9SiWC0pF09c0vzC2++YW59M0/miNQsOTtz8/X3/78/IbykOF15UcGI1x5kP7vCdJ98hsNAvQC2Dfv4OfejS9uvLtyMaMkdphAfav7wqVFSVcl7VCVoFxf6vUrBf3ZKzz+qYxBrpjwvEs5APiKEL14lmXu9gMATF4UJ9yfClellACnqIsjqkOR7zr/wtzKm1+YyyjH5Lz9ufnu25+br779ufmyCBmC79qJIN0bBOjB60i6+m58cfHd+GL13fhil5JMTveFS1n3hUsV5QvHblGRYGRLvX4R27QKj35i9iV9vdNqrrDzHEAICNGLaTWKkxplAICpSCmB9QEZ7Ii45gUnmWPcufvS/3fk65Kee/MLc+mbX2DX+bS9/bn57O3PzVckXREhQ7DtpwjSnUeAHrQdSVfejS+uvBuz63zaui9c6nZfuJRK+nXT52B85rdlFewUKjMGZtHw5N7PK51Wk9wBQDAI0YvrWhQnKWUAgIkOzhYlrVMJa3bF0fi2bVECSBzjHoCj8Lz85hfmqm9+gbvOZ+3e5+Yb9z43n4ode8F280SQ7iwC9GDdkhS/G1+svBtfbFCO2eq+cGmv+8KlqqSyCNN9d22p1y/S4moWkk/G651Ws8LR7QBCQ4hebDfZgQYAE5VSAquq5jgwjsm1h0UJOJKJHRk+Og7P/3iu+uYfz+1RErfc+9x8995nCatKnT4AACAASURBVNMDRZDuIAL0IN2S9Ny7H7+Yvvvxi5yw4pjuC5f2dj9KmB7IWKAoKjxu6+ORq51Ws0opAISIEB0Ns1MSAGBfSgms2em0mhl1ta7EyTQwx7ivUgmvEJ575t5nHwnT71CRYESSGjFBuhMI0MPr/0u6YsLzLuVw2+5HCdN9b8+Wev1qQX5WNpTZHZNUTszVAEBwCNFRktSgDABgeQSan/TB3cL2PBzQm+PB2M1nT0oJimttW4viGHff3JK0QnjuJxOmbyi/M52TVQLp9okgfeYI0IOyK+nKOx+/WHn34xzb7t3DezRM36YiXtla6vXLBWm3Mb6jAJ0TQgAEjRAdkhRFcZJRBgCwOwClBNbsmGPcT6pSFmtWozgpU4bCqolj3L15F0qK3/zjufTNP+bOc9/d++x8495n5yuSrioPjOD5mFoE6TNDgB6MfUlff+fjF8vvEJ57z4TpW8pPYGHRmB9KCvxY9yhOKjxma1ICdABFQIiOI5sc5woAVnHXtD3Vx/8HdqPbHwBTguJZ21ZFhA4+2Jd0deeLc5WdL84xURWYe5+Zz5QfK/o61fBeHqT/B4L0afqNuwTogdiWVH7nExdrlCIsux+91N19/lJF0qfEojEfrC71+iHPZXCUux2vd1rNOmUAUASE6Djppjl+GAAwBrMoiZ2ddpy2C/1IRnmsSSlBIfEZct+2pPLOF+d4VgG795n5vXufma9KisVuPe+7gSJInxoC9CB0JF155xMXt975xEWuKAnY7vOX6mLRmC9qS71+qO0Y897j2+m0mlXKAKAoCNHxuAZHugLA2FJKYG8A/7TfMOE6YYMdy1GccHpCgaxta0vSMpVwVkfSlZ0vzm3tfJF7z4vi3mfm2/c+M1+R9HXlJxDATwTpU0CAHoTX3/nExZV3PsHR7UWx+/ylvd3nL1WVLxrrUBF3x4YK93q6Mo93LPtivgtAwRCi43ElSfUoThjwA8AIzEKkVSphxe4AR4RllMkaQvSCWNvWok65JgHOeH3ni3MrO1+ca1CKYrr3mfma8p1SLBTzuEsogvSJIUD3XkdS/M4nLtIXKeog7/lL7d3nL7Er3W3Xl3r9coA/F3M146mZq/UAoDAI0fG0AT/3UAHAaFJKYG+Adt7/odNqZmK3ni2bLKIr1GeLKyfcsysp3vniXJVS4N5n5rvsSg9iXE2QbhkBuveOdp+3KQXYle68LKhGmbHuuPZFXgCggAjR8TSbUZxsUQYUVIUSYAwpJZj6oD2jVPz9xWDWtrUiwgcXbUta2fnSHKECHnH/tQs10zclYPATQbpFBOhey3efX2b3OR61+/yl9u5H2JXuqNWlXr8S0M/DfejjqXVaTa6ZAlA4hOg4y40oTiqUAQAGY+6U5o5hO24NMUBjNbQ9LKALH58Xt+xL+tTOl+a2dr7E3ec43f3XLrTvv3ZhRfliC3jYRRRB+th+kwDd6369pMo7l9l9jqfb/cilqqQr4vQV12QB/SxlHudYYxbGkQAKiRAd56lHccJKPQAYDHdKz2Cwbu7kYoeeHcu0++Fa21ZF3APoko7y3ed1SoFB3H/twpakT4mAwUcE6WMgQPfWvqSr71y+mL5z+SILxXCu3kcuNZQHnTtUw53x4VKvnwbys5R5nCOrswsdQFERouM8JUkZ98YAwNnMe5LJPTt2O61mY8ivYVW0PexGD1dGCZxxa+dLcys7X5rrUgoM4/5rF+rKjyNl8ZiH3UVJjfg/EqQP4zffIED3VEf57nP6HhhK7yOX9nofuVQRx7u7pLrU64fQdrFYfHTMtwAoLEJ0DDrYZ+ADAGdLKYE1o7Q5dbEzz5YNFs+FZ21bqbhuwgX7kq7ufGmONgMju//aha7ye9JvUQ0vx9YE6QMiQPfWHXF8O8bUy4935/QVNywrjIXWtL2j2e20mrzPARQWIToGtR7FSZUyAMBTpZTAmmzYLzBHi3Eksh0lcTVBiOjHzd6+pMrOl+YySoFx3X/twt791y6kkr5ONbxDkD4AAnRvbb9z+eIGx7fDht5HLtWVLxrj9JXZ2wpgN3qZxziSBiUAUGSE6BjG9ShOmFQHgMeYO6QjKmHFjrnjfBQZ5bMmpQThWNtWVexCn7WOpPLOl+fYxQGr7n/6Qk3s1POy+yiC9KciQPfW1b9Ofo1rgWBV7yOX2sqDdO5Jn62S/N+NznhoNGxWAFBohOgYVmbCIgDAMSaLLLYzo36huUd9lxJasRrFSZky+G9tW4u8o2bujqTKzpfn2JWHibj/6QtHO/UI0v1CkH4KAnQv7UuK/zr5tYxSYBJ6H17Y6314oSKuMZm1rUDuRsdwGpQAQJERomNYJeVBOp0mADjGKR127HdazWzMP6NGGa0heA3nOZYow8zcanx5boMAHZN2/9MX2sqPKeXIW78QpJ9AgO6lXUmVv05+jZNWMHG9Dy+kkl6nEjNT8nW8zYaw0d/x5uo8ACgsQnSMOtDnKBcAyAdjqQiobKk78mcgx+IQz7ELfea+3vjyXEoZMC33P31hT9wd6+v4uvBBOgG6lzqSVgjQMU29Dy9UJV2lEjOzudTrlz38vlmsNhre7wAKjxAdo1qN4oTdfgBA0GjT2O2KuU/9DqW0YjmKE/5++41d6LNztfHlOfrKmLoTQTp3x/ol0hhX2vjuN9/4xZYI0H3TUb4DnR2KmLrehxcyEaTPUpUSFAYhOoDCI0THOK6ZHZgAUEjmzuh1KmFFp9Nq2hqgZZTTGtp5T7ELfaauNr48x3sIM3P/0xf27n/6QkXcHeuTfRU0lPjN/+cXqaQb/BXwq98uAnTM2IkgfZ9qTN2Gh3ejl3lsIyFEB1B4hOgYV417ZQAUWEoJrMls/UGdVrMuJlNsWTeLReAfdqHPBgE6nHH/0xdSEaT7YF9SpfV7HyrcRLUJ0G/yV8ArBOhwhgnSK4z9pq4k/xbrMqYdDe96AIVHiA4bHad6FCfcLQOgiFJKYE3m+J9XZBzpzvsJg7na+BPePXALQbrzCNDhEwJ0OKf34YW2CNJnYcvD3egY9qXfajaoAoCiI0SHDcuSaFQBFEoUJxXz/sP4bnVaTduTcdxFbA9HgntmbVsp76epI0CHswjSnUWADp/kAfqrBOhwT+85gvQZ8HE3OgAAQyNEhy1RFCcZZQBQICklsKZu+w/stJpd5ZN9GN+yWTQCf1QpwVQRoMN5BOnOIUCHTwjQ4TwTpBPqThf1Dr+vAgCFR4gOmzajOEkpA4DQmSssNqmEFbvmDvNJYDe6PbTvnljb1obYhT5NBOjwxo/+yYVUBOkuIECHTwjQ4Y33n1vIJF2lElNTWur1GSeGq00JAIAQHfbdjOJkhTIACBx3RNtTn/CfzeppS3/nzeIRuI8dIdPzOgE6fEOQPnME6PAJATq8Q5A+dVVPvk/GsgCAkRCiYxIaTLQDCBwhlT0T2y1u7lmvU2IrSmLxiPPWtrUiaZVKTMWtxp9wbD78RJA+MwTo8AkBOrxlgvRtKjEVy0u9fsWD75MNXwCAkRCiYxJKkhqUAUCIzGkbEZWwYsfcXT5JGWW2hsUjPCPk7jT+hCsO4DeC9KnLA/R/WLwA/bcI0H1EgA7vvf/cwhbt3NRUKQEAIFSE6JiUKIqTjDIACFBKCayZeDvRaTUbknYptbW2vUwZ3LS2rUVJm1Ri4jq0AwgFQfrUEKDDt3aOAB1BeP+5hdT8ncZkrS71+owTAQBBIkTHJG1GccKOKAChSSmBFfua3lHrNcptDe06z6bo762Nxp+IYAHBIEifynuDAB2+IEBHiCpiUTVjEQAARkSIjkm7EcVJhTIACEEUJ6nyKyswvrq5s3waMsptTUoJeDYFVml8RV3KgNAQpE9McQP0/5sA3UME6AjS+88t7EnaMO9kTHAsstTrL1IGAEBoCNExDXWOfwUQiA1KYM3UdoebsP4OJbeiZBaTwCFr29qQtEwlJupq4ytqUwaEiiDdOgJ0+IQAHUF7/7mFtlhwOvFxopgvAQAEiBAd0+pI1aM4YUUiAG+ZxUDrVMKK3U6rOe1J5YyyW8PkiHtSSjBRtxpf4R2C8P3of7yQiiDdBgJ0+KQjqfLT3yZAR9jef26hLmmbSkyUy0e6N3g8AIBREKJjWiJxJy0AvxEc2jP19qDTatbFXXi2rHPCjDvWtlUWC3wm+voQdzyiQAjSx0aADt/aOAJ0FMb75YUtSTtUYmKipV5/hTIEg81wACBCdEzXZhQnTEIC8BXvL3vqBfv3hiilBDyLAtiXlN79iggXUCgE6WO9MwjQ4QsCdBQV96NPFvMm4YgoAQAQomP6bkRxwm5OAH6NHOKkIu4btuVOp9XszujfzYko9qSUgGdRAFt3uQcdBUWQPrQ8QP99AnR4gQAdhfV+eWGP/vNEMecLAAgKITpmIYvihON9APiEQbbFNmBW/2IT3nN8nx3LZnEJZmhtWxWxwGdS7tzlHnQUHEH6wAjQ4RMCdBTe+2XuR5+g0lKvn1KGMHCNGwAQomNGHSrlQTp3qwDwYdCwKFZT27Jv7iafpYzHYE1KCXgGgdqltkCOIP38vo0I0OEPAnTgWNV8JmAf8yfhKFMCAEVHiI5ZiUSQAcCfAWCJMljhwnu/Lu7As2WTBXFOvJ9gH/egAycQpD/VvqTKT4oYoP9fBOgeIkAHTuBY94laX+r1XRsnNngsIylTAgBFR4iOmXaqojipUgYAjtuiBNbM/E7yTqu5pzxIhx2EuDOytq1ULPCZhO27X2GSDXgcQfoTCNDhEwJ04BTvlxfakl6nEhORUoIglCkBgKIjRMesXY/ihI4VACeZ+58iKmFFx9xJ7oIaj8MaFpnMDgsY7NtVfrQngFM0/4cLqQjSJQJ0AnTP+uCSKj/9rwnQgdO8X16oimPdJyGlBEGoUAIARUeIDhfUojhZoQwAHERAaPFd78o30mk128rDMowvog2fvrVtLUpapxLWcYw7cA6CdAJ0PgVeIUAHGPfPbJy41OuXHfp+ujySkTDWB1B4hOhwQUlSnXtVATgopQRW7Mu9I9TZjc7nxGfsQrfvDse4A4MpcJBOgA6fEKADA3q/vNCQtE0lwh2zOHQqnm9KLJoHUHSE6HDFsrijFoBDojjZEPcN21I3d5G7JOOxWJNSgqkjRLdrX+xAAoZSwCA9D9D/EQE6vECADgyvat71YJyIR1UoAYAiI0SHS1ajOGFnIAAGfOHJXPuGTKh/h0djRSmKEz4vU8JR7hNRvftVjngEhlWgIJ0AHT4hQAdG8H55YU8sqrTNtSPdd3gkI6lQAgBFRogO11xjIh7AzEd6cVIWIZUtu51Ws+Ho95bxeKyh7Z4edqFbfkfd/SrXOwCjKkCQToAOnxCgA2N4f3khE0ErYxc8bp0rWAEUGSE6XFTjvhUADPSCkbn6jXVazbqkXR6RFatm8Qkmr0IJrEopATCegIP0wgbo0f9JgO4hAnTADnaj2+XS3EqbxxHEcwSAqSJEh4tKkhqscgPAwDkImePfX51HZE1KCaaCCQx7du5+VQ3KAIwvwCCdAB0+IUAHLHl/eaGtYlxVMi2rS72+K/O7vCMZ6wPA0AjR4aqSxKQmgOmL4qQiaZlKWHGn02p2Hf8eOcaZgbU31ra1YfpI4O8s4Jzmf38hVRjBAwE6fNKRVPmrv0eADlhUpQRWubIImJ3oo1s1c2UAUDiE6HB6DB/FSUYZAExZSgmscX6Xtwn5uffOjuUoTtglPVkVSmDNrbtfVZcyAHYFEKQToMMnBOjABLy/vNCV9DqVsMaVMSLvyvGklABAERGiw3WbUZzQSAOYCnONBCGgHfudVjPz5HvNeFzW8Pmhvr6oUgJgMjwO0gnQ4RMCdGCyaqZdwPgqTrw0W80Gj2Ism+xGB1BEhOjwwc0oTlYoA4Ap4KhkezKPvte6mCCxObBepAz2rW2rLK6asIVd6MCEeRik5wH6PyZAhxcI0IEJ+2B5YU9c/WVLaanXrzjyvezyOMZSpQQAioYQHb5oMCkPYApSSmBN5ss32mk19+TB0fN8jgqPXej2VCkBMHkeBekE6PAJATowPexGt6fiyPfR5VGMZTWKky3KAKBICNHhi5II0gFMUBQnZUmrVMKKTqfV9G0iml0G9qSUYCIqlMAKdqEDU+RBkE6ADq/62CJAB6aG3ehWubIguMGjGFuVE2MBFAkhOrwa59N5BTBBrKa1J/PtGzahf4dHZ6e9ZlA9ERVKYEWVEgDT5XCQvi+p8p+KGKD/H79MRYDuXXdVBOjALLAb3VLTs9Tru7AxqsujGFtJUsZGNwBFQYgO32xybAyACeGoZHsyvu/Co622aG1bFeWTFRgPu9CBGXEwSCdAh08I0IEZMbvRufrLjooD30Obx2CnOyFOjAVQEPM0HufakXSHMjjlRhQnFcoAwFrvP042JC1TCStumTvGfZTx+KzZYEBtFf0eOzjRCJih5n93IZUbQToBOnySB+i/Q4AOzFCVEoQxpvHw2jmnuxUiSAdQAPOS6IifbVH53Z4c8eqWurm/GABsSCmBvfezr9+4Cf9v8QitKInTHWyqUIKx7dz9KouHgVlzIEgnQIdX3VMRoAMz98HyQpdxYlBjmh0ehb3uhQjSAQSO49wHaAzMpHoq7sBxSUl5kE4jDWC8l3z+HlmnElbsdlpN34+646g+e1JKYM0qJRhbRgkAN/x4dkE6ATp8QoAO0JcMrjly5F50FtZafq6S2lGcrFAKACEiRB909JIf98KOKvcaaTqxAMaVUgJrvH8nm0UAuzxKK1Y5NWZ85j50jGf37tfoMwIumUGQngfo6wTo8KNLKgJ0wCkfLC80xCmlNrgwtmnwGKxbltSK4qRKKQCEhhB9mFFMq9mQ9HUq4ZR1GmgAY9qiBNZk/Bzg82UdK/r5TANBmmKQToAOnxCgA+6qUYKxVRz4Hho8hom5HsUJu9IBBIUQfdjRTKtZE/fguNhAc0oAgKGZjv0ylbBip9NqdgP5WTIepzW0z+OrUAI+00CophCkE6DDJwTogNvq4qrPcc08XDXXtnKqwAS7IMp3pWdcwwogBIToozW2KY2tczJWuQEYAbtkLb6HA2rnu5J2eKRWLLPQbWwVSjCWO3e/pi5lANw1wSC9sAH6yv9OgO5jF1QE6IDTPnh2YU95kI7RrTryfTR4FBO3KakbxUmVMB2AzwjRR1cRqw9dUlIepNMoAxiIeV8Q7tmx32k1s8B+pozHak1KCUaztq2y6eOAzzIQtAkE6UUO0DdEgO4bAnSAvmVhLPX6FQe+jQZPYipKkq4rD9NrUZyUKQkA3xCijzrCyY9+qYgg3SURnVkAQ9gQ4ZQtwa3GN4sCaOPtWGeR28g4ZWc8+3e/xm4hwBc//tSFVHaC9CIH6CuMif3rdkqq/NXfJ0AHfPDBswsNSbtUwvsxToPHMFUlSdckvRfFSSOKk5SSAPAFIfo4I51Wsy2OAnbNehQnNcoAYAB02u0J9b1L+MbnbdYI0fkMA4ViIUgveoDeEItEfbIvKSVAB+hjMsaZLu5Fn6lVSTejONkz96anLLoH4DJC9PEb3UzS61TCKddY0QbgLOYIqVUqYcWuWVQWIhZl2cOiw9FUKMFYMkoA+GeMIJ0AnQDdJ/vKd6C3KQXAOLFozRZjBZg+y6byK2j+zuxQr0ZxwhgYgFMI0S3otJpVSXeohFsd2ihO2L0F4GkI9Cy+bwNu39tidboty7TLI6Fmo9t942sc0wj4aoQgPQ/QNy4QoMMH+5Iq/5kAHfDSB88udBknjiVy5PtgrOCWVeX3p9+N4uQwipO22alejeKkwnwCgFn5ECWwJjWNb0QpnFCSVI/iZMUc0QMAJ21QAmuyAvx8N3jMVmyJY90HtratsghExtGgBIDffvypC+nl2w+kfJfSWQjQaS98QoAOME4svKVev2Lul5+ZTqvZjuJkV9IyT8RJkY5zluuSFMXJw8cnifn+4bUfq1vX/JKkbqfV7FIi4EmE6PYa3r0oTjbMy4gBrBuWld9TVKEUAB72wvN3NYMkO+4UYKFSJiZHbNmI4mSRxW0DY6X9eLirEgjAAEF6cQP0/+2XK5ojQPcMAToQjgYlGHus40IN65Ku8Ti8wybG0Zx5reWJRQo75p9HoXtb0l6n1eS9h0LiOHeLzGoddjc61jhEccJdRQBO4j1tT1aAtn1Po93LiieV+PwNhRB9dPtvfI0QHQjFGUe7FztAZwe6d22TCNCBYHzw7EJb0i6VGFnZke8j41EAT1g1v64pPwXgto6P2e+euL8+5Zh9FAEhumVmRc5VKuGUa1GcpJQBQBQnizr/SFAMZrfTahYlpCKMs2eLEgyMwSifWQDGKUE6AToBuk8I0AH6nHBwrNNpNVkMAQxnWcf319+U1DLheiOKk5oJ1suUCSEhRJ9MA5yJXWuuucnKKADiPmYmDEZr1+sMrK2JGFANjDqNrkEJgPCcCNL3JVV+TIAOP+QB+j8gQAfoc+Jkk+bQ98JiCGB8RzvXb0p6z+xYr0dxskUmA98Rok9Ip9VMJXWohFudW7MLFUBxpZTAmqJdlZHxyK1hN/pguOdtjD4fJQDCZIL0FQJ0eIIAHQjYB88uEL6OrrTU67syR8s1oIB9y5LWJd1Qvlu9G8VJZnaqk8/AK4Tok1URO9ec6qCJSVWgsMzKR0IpOzqdVrNbsJ8547Fbk1KCs61tc5T7OO+nN76mLmUAwvXjjQuF+4wToHuJAB0ohh1KMHrz5sTgIZ/bYCMcMFnLyq/XvCnp78zx71ucVAgfEKJPthHek7RhBk9wQxTFSUYZgEJi96s9hVupbQbWTJDYUYriZIMynImV2aNrUAIAISFA9xIBOkDfEwM0cQ59L+xGB6ZrVfku9feiOGkTqMNlhOgT1mk12yK4cc1mFCcpZQAKh9DOjn0V986wjMdvDe3w2SqUYGQNSgAgFATo3vaVCdAB+p44n0sLh+tiExwwK5GeDNTZWABnEKJPQafVzCS9TiWccjOKkwplAArSG8sXzjD5aGlwaU5aKWp7zsDajnVWGZ+JAePoGpQAQAhW/iMBuocI0IGC+eDZBfqeo6s4NNbfU3E3CwAuOQrU/y6KkzqnGMIFhOjTa4yrku5QCafUmcAHCiOlBNZk/PywhMHQ03En+ohd7je+pj3KAMD7RoAA3UcE6EBxce1XGKqUAHDKuqTbUZx0ozipsjsds0KIPl2ppA5lcEZJeZDOCxgImFkss0olrNjttJqNgtcg46+BNVx383RlSjASggsA3iNA9xIBOlBsDUowEqfmaTqtZlcsiABctCzpuvLd6VkUJ2w6wFQRok+3Md5TvuuKo2DdEUmqUQYgaCklsKbw78tOq9kWC+KsDYS4WuXMQSKG16AEAHwWE6D7iAAdAJ//cFQpAeC0TUmtKE4azCdhWgjRp8ysauP4UsdevlGcsBsOCFdKCazhjrAci6/4fE7M2jb3oY+BCUwA3iJA9xIBOgD6oGNY6vUrLn0/5uS9XZ4M4LxVSXejOGlHcZJSDkwSIfrsGuSrVMIpN1i9BIQnipMNsaPTljtmIRhYTGDTJteqPIGjyUb0xteYwATgJwJ0L+UB+u8SoANF98GzC11x6mhIqpQA8EYk6aa5N52Nq5gIQvQZ6bSamaRbVMIpde7UAIJDB8riO5ISPGzD92jD+ZzCvY8mJQDgIwJ0LxGgA3gc74PRVBwc72diNzrgm2VJtznmHZNAiD7bRjkVE34uKUnK2BEHhMF8ljephBX7ZiCJY9TDHq5UeRQDvtEwcQnAOwTofvaLRYAO4EkNShCUKiUAvHR0zHsjipMy5YANhOizVxGr21wSiWAECAW7W+3hvfgY7kqz2/ZyEgws6FICAD4hQPfSvqTK/0eADoC+qC1lR8f7GeN9wGurkt6L4qTGhkmMixB99o3ynvKgh7tz3LEexUmVMgDeY3erPRkloC4TllKCh8qUYCQNSgDAFwToXiJAB3CWLiUIbuxT5fEA3rsmqRvFCXPEGBkhugM6rWZbTB675noUJ+xiBTxldrVGVMJOM2XaKTwpowTW0A86VqYEI9mjBAB8QIDuJQJ0AGf64NmFBlUIi9mNzjWsgP9Kkm6YI945BRFDI0R3p2GuS3qdSjgl48UKeCulBNbUKMFT2+6upDtUws6gJooTPrcY2RvXuBMdgPvi/0CA7iECdADDvC8wHNfnXdm9CoRjVVKLE4gxLEJ0h3RazaqkW1TCGSXlQTr3ZgD+SSmBNXVKQH2mhBNgcmVKMDTuKwTgPAJ0LxGgAxgG74rhOd0mdlrNhlg4D4TmehQnbTZPYlCE6O7ZEkfFuCQSAQng14c2383K5KQdtzqtJkcknz2ozsSOA1vWozgpUwYtU4KhdSkBAJcRoHspD9A/+V8RigEYFGPnMLEbHQhPJHalY0CE6I4xYcWGmJB3yWoUJxxnDPiD3az2ZJSAOk1ZSgkwAiYsATiLAN1LBOgARsE7YwRLvb7TJ4Caa9y4ghUI09Gu9DKlwNMQorvbOFeohFOucVcr4D7T6VmnElbsmqPLcL6MElhDW4tRMGEJwEkE6F4iQAeA6fLhSOWauEIKCFUkqR3FCZuycCpCdEd1Ws22pKtUwq0OE3dlAM5LKYE1GSUYqs3mKhY7lqM4qRT1h1/bFv0MAAgEAbqXCNABjIN3R7hj/j0x3wSErCTpNqcR4zSE6G430JmkW1TCqZdpPYqTRUoBOItBjT0ZJRgKHW0+xzbQxxgNE5YAnEKA7iUCdADj4oqhgJmT+pinB8J2zRzvztwMHiJEd7+BTiXtUAlnLCufDAHgGLN7dZlKWLFjrhbB4OqUwJpNBiwYEhOWAJxBgO4lAnQAwCC2TJsBIFyRpC4nEuMIIbofNsS9K069SKM4ySgD4JyUEljDO25I5ng3VqXzeQYAFFj87wnQPUSADsAW3iOjKXs27mesCoSvJKkRxQmfdxCie9RAb4iVbi7Z5CUK67zDzgAAIABJREFUuMPsWt2kElbsm+tEMDzqZg9tLIbRpQQAZo0A3c9+rwjQAVjywbMLnI40mrJP32yn1axL2uaxAcErSboZxUmVUhQbIbo/DXRbTCi75ibHegRrlRJ4Z4MSWMOx5KO31Q1xcowtEW0sBvXGNUJ0ALNFgO6lPEBfJUAHAAytKqlDGYBCuM6pxMVGiO4Rs9LtdSrhlAb3tgJO2KIE1tQowVjoWPO5HkeFxw4Afvk4AbqPCNABACM7caw7p8YCxbBJkF5chOj+NdJVceeqS0rKJ0wAzIjZrRpRCTvNjDn5BKOjU20PJ0wAAJxGgO4lAnQAwNjM3AkbOoDi2IzipM2GyuIhRPfTljgyxiURK5GAmUopgTW8y8YfSHcl3aESVpSiOOHzDQBwEgG6lwjQAUzaDiUo1Pg/E5vdgCKJxMnEhUOI7mcDvad8dxZHxrhjM4oTVh8Cs5FSAmsySmAF98rz+QYABIwA3UsE6ACASWCzG1AsBOkFQ4juKbPTrUIlnHIjihOeCTDNXkucbIjJS1vumEVaGL+NzsRCN1tWozgpUwYAgCsI0L1EgA4AmNT4n81uQPEQpBcIIbrfjXRb0lUq4ZQ6k/3AVKWUwJqMElBPPucAAJyrK4mFh/49sy5lAABMApvdgEKKxNxfIRCi+99IZ5K2qYQzSsqDdFYhAZPuqeQLVtaphBW7nVaTI8jtqlECa1JKAABwxU9+/0PsOPNw6CCp8bGdXzBOBwBMBJvdgEJaj+IkowxhI0QPo5HekrRDJZwaoBOeAJO3QQmsIUC33zZ3xb1otiybqxsAAHDCT37/Q23lO84I0v0apxOkAwAmOQ+QSfo6lQAKZZMgPWyE6OHYEJP1rr08q5QBmKgtSmANC3+oq+tSSgAAcAlBupc4dhMAMFGdVrMm6RaVAAplM4qTlDKEiRA9nAZ6T/kEMwN4d1xn5xwwGVGcVCQtUwkrdsyuadhXp122Zp2rUgAAriFI97NP8bGdX2SUAcCErFACdFrNVATpQNHcJAsKEyF6WA10W+zUck0WxQkdaMA+3nUW31OUYGLt8p44Kp/PPQAgaATpXtokSAcwISVKADMfkIogHSgasqAAEaKH10DXxd0rrnWeM3bPAfaYzxMr++zYFyHvxDvQlMCaIlzh0OAxA4B/WgTpPiJIBwBMFEE6UDglSXWyoLAQoofZQHP3ilu4dw2wa0Os7ralbnZLY3JtckPSLpWwYpkVvTjN2rYYoAKYOYJ0LxGkAwAmPSeQinl6oEiWRRYUFEL0cG1J6lAGZ6xHcVKlDIC19xvsqFEC6sznHwFgcQUAJxCke2nzY28SpAPADAW/sJ8gHSgcsqCAEKKH2zjvMXh3zvUoTlLKAIwuipOy8tMdML7dTqvZpgxTwZH59mxwLBYAwGWtf0iQ7iGCdABjW+r1K1RhJIWYlyBIBwrnehQntAsBIEQPu3E+CtLhjhpH0QJjYReqxfcRJZhae9yVdIdKWFFSfqUDAADOIkj3EkE6AGDScwOppG0qARRGxkYQ/xGih984tyVdpRLOKEmq8/IERpZSAmvYHT3ljjMl4D2AialQAgCuIUj3EkE6AGCiOq3mlpirB4qC+9EDQIhejMY5E6vcXHt5El4BQ4riZEP5QhSM747ZHY3ptcV1MYluy6q52iE4b1xTg8cLAOEgSPcSQTqAUVUoAQacH8gkfYr+AVAI62ZOG54iRC9O47wlaYdKOGM1ihOOUgaGk1ICazJKQN09x9UOOKlMCQC4iiDdSwTpADA93SL+0GahfUXSLn8FgOBxrLvHCNGLZUNShzI441oUJyllAM5ndp2uUwkr9s1gDdPH4im7fRrgSJkSAHAZQbqXCNIBDGuFEgzvg2cXukX92c01rCti4xsQupLYWOMtQvRiNcx7yndyMnB3Ry2KEzrZwPkIzOyh0za7drgrFrPZshzwcVj004ZXpgQAXEeQ7iWCdADDYJchRpkn2Ou0mhVxFSsQOo519xQh+gBCCjnNCreUp+qMkqQGx3kA5+LoZnvYDU39QxFqf6bNox3aMiUA4AOCdC9tfuz7BxllADAANskMj/bQMFexck86ELYaOZB/CNEHE9RfbHOM79d5rM4oSWpQBuB0ZiETAYmlJsDshsbs1BkUW7NurnoAtLbNbnQAfmj9HkG6hwjSAQyiRAmGxgLiE8yc/Yo4wQ4I1bLYKOYdQvTiNso1SbeohDOiKE4YlAOno3NhD7ugZ9/+7ikP0mFHiEdh7fFYR1KmBAB8cSJIhz8I0gE81VKvzzsdVnRazW6n1VyR9DrVAIJ0nQ0hfiFEL3ajnIqVbU4NyqM4SSkDcMwcccN9MfYQ3rohowTWhLjIht0Yo6lQAgA+MUH6VSrh15idIB3AU3A872hYQPwUnVazKumKpF2qAQSHTU4eIURHRRwj55Kb5uhqALkNcSSaLbfMLmjMfjDcYCBszXIUJxXKALETHYCHWr/3oUwE6b4hSAdwGubyRsMC4jOYuYMVSdtUAwjKOnNZ/iBEpzHeE0G6axoc6QE8lFICazJK4BRWnfKeeBomkkZD3wmAlwjSvbT5yvcPuHIKwEkVSoBJ6LSae51Wc0vsSgdCU6UEfiBEhzqtZlvcOeySkqS6OcYaKCyzmGSVSlixa1Ywwx0crW/PRmBtJidGjIb2AoC3CNK9dOOV7x+klAGAUaYEI2lQgsGc2JXOXelAGFbZje4HQnQcNcSZOBrGJZHYpQiwuMeejBI41+52Jd2hElaUlF/9EIouj3Q0a9/gGE0A/iJI99JNgnQAS73+oqRlKoFJM7vSq5Kek7RDRQDvZZTAfYToONkQb4kJfZdsRnFCiIgi26AEdMp4LhhQMO3lG9cI0cdAiA7AawTpXrr5yg8I0gH6oBgRV1mNoNNqdjutZkXSp8QR74DPlqM4oR/pOEJ0PC6V1KEMzrjBsR4ooihONsRKblvumF3PcG/gW2fAa++1Ya6ACAV/L0bDBCYA77UJ0n1EkA4UW4USjOaDZxe4ymoMnVaz3mk1y8qPeN+nIoCX2ETpOEJ0PN747ikP0ml43VEPLBgABpFSAnvvEErA82Hg4Z0uj3MkFUoAIAQE6V4iSAfog2I4bOKyVcj8iPeyCNMBH0VsonQbITpOa3jb4hhll5SUB+mLlAKF6Dnkf9fXqYQV+51WM6MMTqtRAmvSgH6WLo9ztCZk7RuivwQgCATpXiJIB4qJ05BGwy50i07cl16WtE1FAK9UKYG7CNHxtIa3IenrVMIZkbg7F8WRUgJreG+43952Je1QCStKAd0l1eVxjoxJTADBaP+3BOkeIkgHCmSp119RvvkFw2tQAvtMmL4l6dfFznTAF6tRnDCX4ShCdJzV6NYk3aISzliP4qRKGVAA3AVjT0YJeE4FE8pJOm0e5cgqlABASAjSvUSQDtD3xPnYiT5Bj+1MJ0wH3Md8uKMI0XFeg5uKO2pccj2KE47aR7DMqrtlKmHnFW6u54D76gxorVmP4qQcwM/R5VGOjH4SUACX6w+yy/UH7U/UHxTiCgeCdC8RpAPFUKEEozdvlGDyjsL0Tqu5aPoSzPMDbtrkOl83EaJj0A4hk/vuyDjeAwFj1Z3FdwUl8GdQqzxIhx2p7z/AG9eYUBoD96IDgbtcf5BJ2lR+5VWDIB0OI0gHwlehBCPrUoLp6rSaWafVXJF0RZw+C7iIfqODCNExSAO7J4J0l5SUB+lMECNE7CC0J6MEXqlRAgYdj9nlUY6sQgmAMF2+/TBAP0KQDtcRpAOBWur1K+I+9JF98OxClyrMRqfVbJjTZ39d0tcZewLOYHOZgwjRMWjj2uZD7JRIBGQI7S91nKQMQK25ZRZAwa92loGrHctRnFQC+DnYjT46FmQBATolQD85NiJIh8sI0gH6nHjUDiWYPXPUe63TapYlxZK2xSY6YJZCmc8KCiE6hmlYM9OYwg3rUZywcxEhSSmBNRwN7ife6bxPTiJEHx0TmkBgzgjQjxCkw3U3X/khQToQmAolGFmXEril02q2O63mlrk7/VPKj3snUAemj/6iYwjRMWyDuiXpDpVwxjWzexfwWhQnZUmrVMKK3U6rSYjup4wSWLMZwLUnhOijK619QyuUAQjDAAH6wy6lpMYn7vySIB2uIkgHArHU65dNuwPGOsHptJr1TquZmkD9ivJNdZycB0wHmwIcQ4iOUaSSOpTBGbUoTpgoRgjvFdiRUQJvB6p7YqEaA49jXR4h7QpQdEME6EeKFaT/Nx/KlN9lCn8QpAOMNUCI7g1zf/qWOfL9OdPvYN4CmJxSFCe0MQ4hRMcojeee8olJjnRx5MUqqR7AjjsUW0oJrMkoAc8PkqQtn7/5N64xsTQmBp2A50YI0I8ULUivKT9yFf4gSAf8x2d4zOaLEvin02p2zR3qG51Wc075LvXXxR33AG1MwAjRMWqj2RaTky5ZFncgw1Nmdd0ylbBip9NqdimD1+1rXRyTZu31EsBJLUxGjNE34kh3wF9jBOgP2wAVK0hPRZDuG4J0wFMc5T623Q+eXdijDP4zu9SrnVazciJUP9qpzrwGMLp1SuAOQnSM1VCKO9hcshrFSUYZ4CEW5NjDOyAMLIqyJ/X8+2eHRrGfP1BIFgL0IwTpcN3Nl394wIIvwD/MYTDGwSlMqH60U70s6dd1vFv9llgkDgw+kOFId2cQomPcxjFjoO6UzShOUsoAjzoEi7IzSfr/t3e/321c953HPzRtOnhE5jkNQo6lpCdnF0AaRJIdi5B3t7tnfwnOj7rddqvRbvfs1rFN6i8w9BeYapw4cdqjYZs0yf5oyP11dp9QYNOTxB7Zg2kSS/KPGKTxPOAjkOla2AczoCCJlEjiAjN35v06x8eOZSnkF8O5c+dz7/ciPGKD8DUdliiBMbaPibxgGg6TTsAyBgP03cdNEaQj2RoE6QBzjIxhjpMRge91BnarOwM71o/p9q71Swp3rq+Lo2OBQbzPSIiHKQEMDIhO1C6VVkbJcKVYrjSjlvsAk8/sWAl8j5Zo6RhXW8VyZV3SPNUY2nSxXHGiRX82YiwfztzZP1Xt6kssMAJsMIIAva8fpFffOvdw6p+Vmv/sYaf0f/6fxEJVa55VFAbp1etPTTHuAwk3u9nl/efwGpQg26JjCFv7XQvRhpvBBWZVqnZod9dwhnuXdQjRE+Jh8XIOZlSja4lzjRPyQFosVwoEarCAQwmMYfdyurgiRDd5n3Ft/MLXFtR85rK2FL5gx9EnnoToQMJ9/q8/djUx0tA3c0F68f8SpFskDNJ/8pvq9ScJ0gEL5hYYQjufa1AF3E/0PnvwOuGaMflQHG6GnFGY5/TDdt4/JfD5sFiulNgoGb+HCNlgcHCribYriZqEUwZY8NDGKkgzNnioSp0VxlRj5ovlSsHir5+f7eGcP/unmqEMQHJ9/q9HtgP9nsdPSY3f/u/ZaO0e/FNau9s4h/+tn9DaHUg4hxIMNzxRAiDmH0Lfaw602V8caLNfVthif1nSBpVKBHajJwBnosPoDVjSIpVIjGKxXHEpAxKM+4U57EJP35jaEbtnTXIs/tobfHyZ/vyBVBtjgL47RxJBOpKLIB1IsNnNriM6RDG3AdL63BiG60vR+fUF3Q7VWfwSH0L0BCBEh+mbrSvpEpVIjPPFcsWhDOBBIPVcSpBKLI4wx+axsMHHNzQWbQEJFEOA3keQjiQjSAeYU6QZXbYAW54hb4fqJUnHFGY+7FAf87ylWK7QWS9mhOgYxQ22LmmVSiTGlWK5UqUMSNQTQLi4gxXcZqxyNEt6JyxMUIyZK5YrVi7cWVsgRDfx+Z/9U/EsBCRIjAH67uOoCNKRXATpQMLMbnQL4sxgE5jbADY+S/peK2r/XpB0QdI6VRmbKiWIFyE6RsURrT6SZMXy82CRznsEzHApQaqxG90cm7tfMEEdHrvRgYRIQIDeR5COJCNIB5KlTgmGttHO51qUAbD8mdL33MD3qpLOincV48CzYMwI0TGqm2lH4cvqLaqRmAn4Cu0/kATRgg5WcBuahAa+x7nZ6eZSAmPOWzwONvj4hnbu7NdVoAxAvCrJCdB3H00lNT5HkI7kzuMJ0oGYzW50ZxI2dtmKOQ2QpudK32tEYfqzooviKFUpQbwI0THKG2lLnHmcJEWxoxHJ4FACYwjQ0z+WdsTLbu4/vHAypU4JgPgkMEAfnCcRpCOpCNKB+NHRiDkNgP2eLX1vJWrzfolqjAQb0WJGiI5R30QbCs/JQDKc5+EfCeBQAmNYGJMNLJbI+P2Hc9HNPQed/broygPEoPLfEhug9xGkI8nCIP2nBOnAuEW70HmPZgZzGiDNz5e+V5dUFrvSzU9UypUqVYgPITrGcQN1maAnyjlKgJgH/TkqYeb2GnX8QPrH0RUmIeZuQ8VyxdYX0Jw1ZgYvQYExsyBA3x0jJDU+9z8yEqT/ziMO83SrEKQD8XCinz8MOexwHjqQgR9032sqPMM7oBpG8fwXI0J0jOsG6nDzBCB2oZvELvRscSmBMbaGqHQkMPT5sxsdGB+LAvQ+gnQkGUE6wNzBVg1KAGRD4HudwPdKPGMaxbNfjAjRMU5VsZMOyKxiuTIju16iJtmWCNSyxqUExtSi+5FtGnx0RkyLl6HAWFgYoO8+toogHckexwjSgTGY3eg6opMecxkAR3vGDDdVrlIJIwqUID6E6BjnjbMjqaYw/AGQPTVKYMxKdE9FdsbQlmjnbcq0jfejtQU1xWJEU9iNDoyYxQF6XxaDdF5y2vUsQ5AOjFB0Fjrd3wxp53NsAgCyyRHdiU2YpwTxIUTHeCfn4bkY7P4BsomffXNcSsDnjqEncjZq8NEZwW50YIRSEKD3ZSpIFy85bRzLCNKB0VkUZ6GbwiItIKOiDUCO2FQ5/MSkXOGZLyaE6Ijj5ulKukQlgMwN9EUqYcRG4HsNypDZ8ZOJhxnzxXKlYOHXzQ4Oc14++3VaogGmpShA332MVUaC9OB3HukoPIKNIN0eBOnACDwW7kJnwSVzGAAmnjHDTZV1KjG0AiWIByE64rp51sW5a0CWOJTAGFrKZRsvIMyx8cVYg4/NKCbygEEpDND7CNKRZNOSVn7rp7/hmBLA7DyBXejMYQCYesb0vSWeL4fGosmYEKIj7odSbp5ANjiUwBhC1GxjEYU5Np6L3hHtEE06f/brqlIGYHiV/5raAL2PIB1JNiep8ZmfEaQDw3pso1uQ9DKVMDestPO5FmUAIDp8DKtACeJBiI74nqLCMzFqojUtkGrFcsURq7hNWQ18jwlotsfOpnipbcpcsVypWfh1s5DGrDolAIaTgQB997FWUuNz/5MgHcm9PgnSgaGxaNkslxIAkKToaMp1KnFkBUoQD0J0xH3zbEWTcwDpVaMExhCeQeJFhEkO94HMmz/7dbqlAEeVoQC9LzNB+t/9E4J0W69PgnTgaB7b6FYlnaMSzF0AjIxLCY6Mdu4xIURH7KJddReoBJA+xXKlwCTUmK3A93jYBJMOs84VyxWrXjTT0n0kls5+XQQOwCFlMEDffcQVQToSfn0SpAPMsxJgg1buAAZF7zXpSnw0dHmNCSE6knQDXaYSQOo4lIAJPYyPmR3GzMzfp9jRYX4yWqcMwMFlOEDvI0hH4q9PgnTg4B5rdeuS5qgEcxYAI+dSgiM+4JUr7EaPASE6EiPwPUeciwGkjUMJeMjESPBCwpxFPn9IWjj7KkcMAQdBgL6LIB2Jvz4J0oEHe6zVLUh6mUoY51ICAHtoUIIj47kuBoToSJqapA3KANivWK5UxUpuU4Lo6AsgvCB8b4Xx0pg521bz0tJ9ZJYoAXB/BOj3PvJKapQJ0pHg65MgHXgglxKYn7K28zneYQC49+YQvs/C0fBMFwNCdCTtJtpRGKRzNgZgP4cSGEOwg724lMAYdqNDkopnX6WtO7AfAvT97x0iSEfCr0+CdGBvj7W6i5LmqQRzVQBjRTfio6GdewwI0ZE40W5Lh0oA9iqWKzMKF8TADMIy7MWlBMbUovsW9wW8fPZVJqbA3b7wXwjQH/T4K4J0JPz6/MwbBOnAoKiNe51KMFcBMHYNSgBbEKIjkaK2HpeoBGCtmqRpymDEctSlA7h7rGyJ1bumTMuyhT9RS/dlPrqRcCkBcBsB+oGFQfr/IkhHcq9PgnTgnmc+3luYt97O51qUAcB9NCjBkRQowfgRoiOxAt+ri5fDgK0WKYHRiT3A9cF9ay/s8BiN4tlXOUYDkAjQj3L/UFaC9H9MkG7r9UmQDkiPtbp10cadOSqAuLQowZEUKMH4EaIj6RaZlAN2KZYrBYUvaDC8jcD3GpQB+wl8z5W0RSXM3L6i+5c11ha0wuc/MgtnX1WVMiDLCNCPPp6IIB0Jvz4J0pFlj7W6JUkvU4mR2BILfQE8QNRZEbACITqSfkPtKGyvygtiwB7sQjfHpQQ4AF5SZPv+xX1ihD9bZ18VIQMyiQB9aATpSPz1SZCOLHqs1Z1h/jTa5+d2PsdxdAAOguMJYQVCdCRetDKpSiUAaziUwBiXEuAAaDud7fsXn//oTIuXrMggAnRjCNKR+OuTIB0ZnWPPUYaR1hcAMBoFSjB+hOiwQuB7TUkXqASQbMVypaYwdMDw1mlvhEOMkby0NmM6uo9ZY21BLbGCe5Tmz76qOmVAVhCgm388VvaC9A0+druuT4J0ZMVjre6ipHNUYmQ22vlcgzIAOKAmJTg0FoHFgBAd1ojOfV2mEkCiOZTAGJcS4BDYjZzt+xj3i9F6ufqqapQBaUeAPjJZC9I5js3C65MgHWn32IfdkqRXqARzUgCJwdEPsAIhOqwS+J4jdlsBiVQsVwpiVbcpW9HCIeCgaDltzrnofmaNtQW5IrAYNbf6qkqUAWn1hf9MgD7qR2VlJ0hvKtyRzrhk2fX56TcJ0pFOj33YnZHUoBKjf16mBACAtCFEh41qom0tkNSfTZhBIIpDCXyvI7q1ZP1+5vKxjdS0wiCdgAGpQ4A+NmGQ/r8J0pHY65NnCaTOQIDOsXOjtdzO59hVCuAwuGfACoTosE4UFDhMyIHEWaQExtAGDUfhUoJM38+4b4xeUSxyQsoQoMdyH8lGkP6PCNItdO7Tb/6G50mkcW5dpAzMRQAkDmeiwwqE6LBS4HtNcfYykBjFcqUqaY5KmLnFRfc44LBjY0PSBpUwYi66r1ljbUEtSat8dCM3X/0GC1aQDgTo8T06iyAdyXWeIB1p8diH3SXGubFYb+dzvMMAAKQSIfrB0LYxgQLfW5F0kUoAieBQAmNcSgCuH+5rR8QOkPE4X/0G3VdgNwL02BGkI9HjHEE6bPfYh11H0gKVYA4KAMAwCNEPpkQJkinwvSVxBiwQq2K5MiPOQ2cCCq6f9Dkf3d+ssbaghqSAj24sXql+gwVksBMBenIeo5WRIP3nBOlWPgcRpMNWUYB+hUqMxUY7n+NeAQBILUJ0pMGieGEMxKkmaZoyGLEa+F6HMuCoAt9riZbepu9vtmE3+vhcIUiHbQjQE4cgHUlGkA7rPPZht8Tz8FhxjwAApBohOqwXBU5MxoH40NKWCSiSZYUSZPf+trYgV9IGH93YLFW/Qdcq2IEAPbEI0pFkBOmwRhSgN8Qi/3HZEgsWAAApR4iOVBgI0gGMUbFcKSh88YfhbQS+R/gJE2OiK15OG7vNFcsVGwNSl49ubKYlNQjSkXQnf0iAnvTxRgTpSC6CdCRengA9ljlHO5+jkx6AoypQAtiAEB2pEfheU9IFKgGMFbvQzSFAh0kuJTDGsfBrXhLhxDgRpCPRCNCtUZTUKBGkI5kI0pFYBOixzjkA4KgKlAA2IERHqkS77y5TCQyrWK5UqcKB1CgBE1AkkksJjHFs+4LXFtThnjJ2BOlIJAJ0+6YhWRnDCdKtRJCOxMn/igA9JsvtfK5FGQAAaUeIjtQJfG9R0jqVAEarWK7UJM1RCSPWA99jAgqTY2FTUkAljJguliuOhV83u9FjuFYkNarf7BGkIxEI0K20JamelW+WIN1K5z/tEaQjGQjQY1WnBACALCBER1rVRHgAjJpDCYxxKQFGgJ3IZp8rrMJu9Nj0g3Q6tSBWBOhW2pJUbf7zh5tZ+qYJ0q1EkI7YEaDHil3oAEyoUoJD26AE40eIjlQKfK+jMOBjIg6MQLFcmZF0jkoYsSXOQ8docF2Zc65YrhQs/LrZjR6PaUk/qn6z51AKxIEA3drnwaqfsQC97+fPEKRb6Pynvd80Pu39ZoZSYNzyv+rWRIAepzolAIBYtCjB+BGiI7WiVrYOlQBGgp8tc1aihT+A6XGwI2mZSmT3vsdu9NhdIUjHOJ384cczJ3/4cUME6LbJdIDeR5BupXlJBOkYq/yvuo6kH4kAPS7sQgdgCsegwQqE6Ei1wPdWJF2kEoBxi5TAGAIujJJLCYxxLL7HEEjE50r1mz1+DjFyJ3/48YzCXXnzVMMqBOgDCNKtVFQYpPMiHCOX/1W3LukKlYhVnRIAMITFULACITpSL/C9JbETDzCmWK6UJM1RCSM2oq4ZwKjGwIY4M8mUuWK5wtnoOIrz89/srcx/s8dOPYzEyR9+XFLY2q9INaxCgL6HgSAdFk0RRZCOEcv/qutKeplKxIpd6ADMPDiUKzzrHQ334BgQoiMrFiUFlAEw9vMEMwi2MA4uJTCmZunXzW70+J2T1Jj/Zq9AKWDSyR9+zLmwdiJAv48oSL9AJawyLcn/tPcbh1LApPwH2zP5X3Wb4qiSJKhTAgCGsPDuaFqUYPwI0ZEJ0bmwVfECGRhKsVyZkb0hUhKtUAKMgUsJjDkf3Qetwm705Ayjkprzr/WqlAImnPzBx3VxLqyNCNAP4OfPPOKKIN1GV05c2+HZE0bkP9guSWqKTitJcJld6AAMIkSHNQjRkRkDQTqAo6uJF7WmrAa+xyQU4xj/WpJWqYQxjqVf95Jo7Z8E05Kuzr/Wo6sLjuzkDz6AgRaAAAAgAElEQVSeOfmDj1dEW1sbEaAfAkG6tc6fuLbTPHFth2NMcGT5D7YdhZ1WOEouGWNXnTIAMKhKCY6kRQnGjxAdmRKdPcwkHDg6hxIY41ICjBFdDzJ+H4x2o9f5+BLjlfnXeivzr3FOOg7n5A8+7u/KO0c1rEOAfgQE6dYqSmqduLZTpRQ4jPwH2zP5D7ZdSVfEAv6kWGrncx3KAMDIA0K5UhALpI6qRQnGjxAdmRP4nivpMpUAjvSQM08ljNgKfI9QE+Me+zjSxNDtsFiuWNl6bG1BrqSAjzAxzils704rOxzIyR98vCjJFy+drHz2k1T1/wUB+lH8/OwjrgjSbTQt6eqJazt1SoGDiNq3N8T550myIY6FAmAWx4QeHQuaYkCIjkwKfG9RtLYFDovWs+a4lABcd9wP+dqhMAz1ae+O+xlo3/4K1bASAboBBOlWe/nEtZ3GiWs7BUqBfR+IPtheVBigc/55stTZhQ7AMIcSHE3UZRljRoiOrN+w2Y0FHBwrBc1hJTfi4FIC7odrC2qIhYRJ9Mr8a73G/Gu9AqXAoJM/+LiqsG0f7dvtRIBu0C8I0m02L6l54toOc0rcYe797Zm5D7b7C8Vo354s6+18jjkkAGOiLqcsloJVCNGRWYHvdRQG6bS3BR78kFMTrUON3X4C32tRBsQw7jXF4jFTpovlimPx18+u52Sal9Sc/xa70iGd+v6tmVPfv7Uk6aoIFWxFgD4CBOl2Pz9J+tGJt3ZWTry1M0M5MPf+dk0sFEuyOiUAYBhz3aNbpwTxIERHpkWBAiuhgQdzKIEx7EIH1x/3xVitLagl6RIfYSJNS3pl/lu9xvy32JWeVae+f6sqqSlpgWpYiwB9hAjSrXdOUuvEW+xKz6q597dn5t7fXpH0I7FQLKmW2/lcgzIAMKVYrsyI98vD4GiNmBCiI/MC32tIukglgPs+5LAy3JwVSoCYrz86sJgxH7Uis9WSpA0+xuReX2JXeuZEu89dhbvP6QBkLwL0MSBIt97grvQC5ciOufe3HbH73IZxjGdQAKYtioVTw2BuERNCdEBS4HtLkpapBLAnhxIYsxwdJQHENd51xEIO7o+S1hbUES/Hkq6/K705/61elXKk26nv33IUhgrnqYbVCNDHiCA9Fc5Jap54a6dOKdJt7v3t0tz72w1JV0SIknT1dj7HewsAxkQbEF6mEkNhfhETQnQgEvieI86KBfbiUAJjXEoArkPuj0mxtqAVca6WDYqSrs5/q+fOf6vHGbIpc+r7t6qnvn+rIUKFNCBAjwFBeipMS3r5xFs7rRNv7VQpR7rMvbc9M/f+9pIkX2GnHSRb0M7nOAIMgGkuJRgai5tiQogO3Kkq2twCu4rlSknhy3sMbyM6PgKIVXQd0sbbjLliuWL7eZ4Ozz7WOC+pdebbvfqZbxOm2+7UX90qnPqr3dbthAr2CwP0f0mAHodfVB9xRZCeiucqSVdPvL3TOPE2Ld5T8YG+t72osMvKAtWwam4AAMYUy5VF5jvD451yfAjRgTtvRh0RpAODaPVrjksJkCDsLjDHsfmLX1tQi+vBKtMK2+A1z3y751AO+5z6q1szp/7qVl3Sh6J1e1oQoCcAQXqqzEv68MTbO+5xwnQrzb237cy9t92S9IrosmKTy+18jrEMgDHR5qxXqMTQ6J4cI0J04O47ku81RXAI9NUogTEuJUCCcC66OeeK5YrVu4LXFlRnUmadOUlXzny71yJMt8NAeN4S5wGmCQF6ghCkp855Sc3jb+/Uj7+9QwcWGx5O3tuuzr233VR4RMkcFbHKhqQ6ZQBgShSgN6iEES1KEB9CdGAPge+5ki5TCWT8YccRq8ZNWQ18jwceJGmca0lapRLGOHwPiAlhesKd+t494TnPVumxJan6NgF6ohCkp06/A0uLMD3BDyPvbdfm3ttuKDyihOPgLJ0LtPM5ztsFYMRAgM7cxwzmGzEiRAf2EfjeoggYkPFJFCUwhl2/SCKXEhhjfQebtQU1xQJCm90O018nTE+CU9+7VTj1PcLzFCNATzCC9FTqh+m/Pu7vuMd92rwnQeHdbafw7nZL0o/Eebc2W23ncw3KAMCEYrlSFQG6adyjY0SIDtyfI9qbIpsPPAUmwcZsRd0tgEQJfG9FYQiA4c1FK61tV1fYyhEWX4uSrpx5vdc583qvfub1Hjv2xuz0926VTn/vlqvwzHPC85Q+24kAPfGiIP0ilUil85I+jML0KuUYr8K72zOFd7frUXhO2/Z0jGkOZQBgQrFcqSvsSsIcyKDA9xpUIT6E6MD9b1Cd6GGSkAFZwyTKHJcSgOszE9KwG73D/T81dnfsnXm95555vVelJKN1+nu3nNPfu9WQ5CsMeJBOBOgW+UX1kSVJy1Qitc5Lunrc32ke93ec4z6t3kep8O52qfDutqvbHVYIz9OBNu4AhlYsVwrFcqURjQ8wiw2eMSNEBx50l/K9pqQalUDWJlKUwBiXEiDBliiBMbViuWL9y9u1BTVEW/e0OS/p6pnXe60zr/cWz3yH3emmnP7urcLp795aOv29Wx2Fu/Ho4pNuBOgW+kX1EUcE6WlXjO7BreP+jnu8uVOiJGYUbm7PFG5uO4V3t5u6vUiM3YXpsdzO5zh6DsDRB+ByZSbaff4hc6GRaVCCeBGiAwcQtcygFRyy8gBUE6vKjd0+ooU4QFLHt5ZY1WrKtFKy6G5tQYtcF6k0J+kVSb8+853eytPf6bFI9AhOf/fWzOnv3lo8/d1bTYUvixZEoJAFYYD+rwjQbfSLeYL0DD2LnZfkH2/uNI83dxafaHJ2+lEUbm7XCje3XUm/VrhAoUhVUmdDKeikBSA+xXLF0e3uJBgd5h8xe5gSAAcT+N5SdN4p7RmRdrxUN8elBLDAksKXYxiek6Kfe0fhjiOk0zlJ557+Tm9L0oqklR//hwl2Iu3j9HdvzUTPR7WodsgWAvQU+MX8I85n1/9ezOczo6hw4dgrTzR3guj5bOX90qMtSrO3ws3t2sBYx+KwDMxbaOMO4NCDa9h9bzF6X8AGrPFoUIJ4TfR6PRXLlR6luK9Lge/VKQOiwaIpVuFmwdmoA0EWH4Z+zcdvzCcD32NiCht+7lviZZkpx6Id/tZ75rIWFb6AtmRmc++/6j3g13XAXz/cn9Mb2dchSb0hf3//1/eYAG5FE/R+qJ7p8ev0X94qSapKqmniAa0Jh7n2Hvh594b7vA1eOyO89g73vUzsU+f7/AwO8XkRoKfMZ9f/3tXdQfqo7+tjGKfG8jM+rvvWA3/Gh/r9gSbCce794qOZ/rku3NjuLxCrauIBwXns40NvuN8/rmvPHpfb+Ry70AEcWLSxcFEstBq3jcD3CpQhXuxEBw6vqrCNBqutkEYOJTBmmQAdNgh8r1MsV1bEzixTFpWS1ohrC1p65rJq4myzrJhWtENd0pWn/6wXKArVf/zHE420f/NP/uWtGfVD8/DvPOuDAD2FfsmO9KwrRn+9/ESw0+/G0pDUeL/4aCvt3/yxG9vVgbGOzSEZnf4RoAM40IAZBudONGYwN4oH3eISgBAdOOzTZhg21KKJFiuvkDYOJeBBB5nkipfJJu+jaXoxVROdCrKqHzQsPP1nPUlaj55/m5IaP/5ju3eqP/kXt0qSwt3mEyqJMAF3IkBPMYJ0RPpnqJ+XpCeCnY1onGtIatq+U/1YuNO831WlKhZFIhzbOL4PwN6TvzA0rw78xTuA+DUoQfxo534wtHPHXgOLI86QTbPMtXOPHpY4/9YM2u3AxntAS6wuNuXZwPdSs5DmmcuqSrqa/JnNvf+Kdu77//qwLU97E9pQGKj3/2r97b+fSGTg8ORf3KpKKigME0q6O0gYwbVDO/cjXHvJaedOgJ4Ru63daed+sN8/rvvWaNu5H64l94TWJTV74YLC5gf/8NFEviM4dn27EI1z1d2xbuL+z/VWPZvQzt2UC+18zuXuD2RbdKRf6b7zIyRC4HsTVCF+7EQHjn4Tc4vlSkHSy1QDKeFQAmOYmMJGS7Lp/Ovk309TE6KvLajxzGVd4pkHd5mL/jrX/xdf/POeJAWSOprYXTXf/3vzb//daHavP7V8qyRppif1XwjNRLvLC2JxEA6HAD1D2JGOA5jXQLDwqb/b6d8nmpJamlBL2v2r88E/GM3u9cff2d1Vrv4415tQVeG4RycVHMQyAfrhFMuVOlVACgyOH4wZdlmlBMnATvSDYSc67vdQtaKBl4dIjSzuRO+IVj2mHAt8r0UZYNk9oCDpQyrBfWA/z1xWQ0leoc5O9EP9+QZ2og/z+wNN9DoD9ekoDCT2+/2DL3/6v17QXQH5kXaGjujaYSf6Ea69+HeihwH6vyZAz5rP/k20I31U9/UxjFNj+Rkf130rWTvRj3rfCoP2O3+9KanT2//aKkXj3eCfPT+yz9umZxN2og8rkFRt53NWH8UTw/yYvARAnC4EvudShvixEx0YnqNwhw0ruWDz5MARAbop6wTosFHge61iubIqFoaZUlO4uz9t31OL8QImHj32+HfcexAnAvQM++WZR5zP/g070mHUtO4NwGmVi7jGN4cAHQCs06AEyfAQJQCGE/heR+FL5S2qAYvVKIExLiUA1y8kLabtG1pbUIfxAkAKEaBDvzzziCNpmUoASBmnnc8xvgGAXQI2aCUHITpg4q4W3tR4qQwrRS2c2f1lxpZSdA4yMjmerYhFYabMFcuVatq+qbUFNSRd5OMFkKJnNwJ0SCJIB5A6l9v5HO8nAMA+LiVIDkJ0wJDo/OwLVAIWciiBMStRdwqAh3Wk9v66tqAlETIAsN+WpOpbBOgYQJAOICXW2/ncImUAACuxACpBCNEBgwLfc5lww0IOJTBmiRKA6xgDasVyZSal39uipICPGIClCNCxL4J0AJbbEN0yAcBWq7RyTxZCdMCwwPcc8VIZlohaDc9RCTMT1cD3eBGLNIxjLUnrVMKIaaX0BdbA+ei0/wdgGwJ0PBBBOgCLx7haO5+jQx4A2Ild6AlDiA6MRlXhyk8g6RxKYAy7d5EmLiUwJrVtFNcW1IqeeQDAFgToODCCdAAWctr5HGMcAFg6V4k6HSNBCNGBEYjORGZ3FhItajF8nkoYw0MO0mSFMczc7bZYrhTS+s2tLagp6QIfMwALEKDj0KIgfZVKALDAxXY+xw5GALAX9/AEIkQHRiRq67xIJZBgnJFlzmq0eAZIyxjW4eHdqFQ/D6wtyJV0iY8ZQIKFAfo5AnQciSOObAOQbMvtfI7ueABgN+7jCfQwJQBGJ/A9N9p99jLVQAKxyMMclxIgpQ/vdKsww1H6g/T6M5dV4JoBkEAE6BjKL5+e6nz2x7+pSmpIKlIRAAmz3s7nHMoAAHbfy6NNmZkxu9ktSSpJKkR/n4l+aX7gP9uQ1Ir+uSmpEz2TN9v53Fg2tLETHRixwPfqov0bEqZYrpTECyBTNgLfY8cu0jh+NaOHVQxvuliuOGn/JtcW2KkHIHEI0GHEL5+e6kiqMs4BSNq0TXQZBIA0cNP+Dc5udmdmN7vO7GZ3ZXaz25HkS7qicAPqOYXh+fxdv21u4N8vRP/tVUm/nt3sNmc3u/UojB8ZQnRgPBwm20jgNQkzCNCRZrSSMicrL7eqPPMASAgCdBhFkA4gYTYkVce1Ew8AMLr7eeB7blq/udnNbnV2s7si6dcKQ/NzkqYN/NFFhaG6P7vZbc1udhdnN7szpr9+QnRgDKKzZWsKX+QASeBQAmMIGZFmLiUw5lx0xEuqrS2oHzDQxQBAnAjQMRIE6QASNM7VCNABIBVS+W452nXeUrhz/NyI/+/mJL0iqTW72XVnN7sFU39wP0Tn4R8YscD3WtFkG4hV1FJ4mkqY+dGOfraBtI5dHXEkiUlOFr7JKEhn8SCAuBCgY6QI0gEkYZxr53OMcwCQjnu6m6ZvKNp53lK463xuzP/305LOS+q3eh96Z3o/RGfVGjAG0fmyF6gEYsZ5WeawCx1Z4FICY5ysfKNrC2oqDBgI0gGMEwE6xuIdgnQA8SFAB4D0WIo2sFgvOvN8ReHO87mYv5xpha3em7Ob3aGyENq5A2MWnW+xTCUQh6iV8DkqYcSWOA8d2Ri3VkRrblPmiuVKNSvfLEE6gBiezQjQMTYE6QBicIEAHQBSNX9JxQat2c1uVVJLycsd5iT9aHazu3TUXemE6EAMAt9zJK1TCcSAXejmrKRlpSBwkOudEhjjZOmbjYJ0h48dwIiFAXptkmABY0WQDmCMLrTzOZcyAEBqpGIX+uxmt65w93mSj49dkNQ4ylnphOhAfGpiZx/Gb5ESGMPkFZl6sKcExpwvliszWfqG1xa0Io6zATA6BOiI1TtfJEgHMHIE6ACQvjmM9e/aZje7rsK26TYoKmzvXjrMbyJEB2ISrTKqiRanGNcoEbYQnqMSRmwEvtegDMjQmNUSHVRMylxXkLUFuSJIB2AeAToSgSAdwAgRoANA+li9Cz06/7wp6bxlX/q0wh3pBw7SCdGBGAW+R4tTjBPXmsEHHUqADHIpgTGZ7ApCkA7AMAJ0JApBOoARIEAHgPTZCHyvbusXH50t3lC4s9tGhwrSCdGBmAW+tyLpEpXAKEWtgzkP3RzOh0ZWr3u6pxi6LRfLlVIWv3GCdACGEKAjkQjSARhEgA4A6VS3/Otfkr0Bet+Bg3RCdCABopVHy1QCI1SLBgcMbzVqbQ1kbazqiAUkJi1m9RsnSAcw7JAkqXSNAB0JRZAOwAACdABIp/XA96y9v89udpdkXwv3/fSD9Jn7/UeE6AdTogQYg0Um2Rjx9QUzCBGRZRxlYE6mu4MMBOl0NwBwGIGk6rXaZItSIMkI0gEMgQAdANLL2nf0s5vdmqSFlH0e03rAu35C9IOZoQQYtWiHX028TIZhxXKlIPtbrCTFls2rBQEDY1VT0gaVMPOgXixXnCwXIArSqzz7ADjoMKQwQO9QCtiAIB3AERCgA0B6XY7eq1lndrNbkJTW8Wl+drNb3+8XCdGBBIlaRFepBAxjF7o5TGYBdqOb5GS9AGsLaoogHcABpkqSqteeJUCHXQaC9FWqAeA+tiSdJUAHgFTf5+sWf/2u0n1U7Mv7nY9OiA4kTLQaiXNCYZJDCYw+MAD8HMCU+ahbSKYRpAN4gHURoMNi73xxqvPOF6dqkpapBoA9bEmqtvO5BqUAgNRyok7E1pnd7DqS5jPwGbl7/UtCdCCBonbRTLAxtGK5UlO6V4mN9UfT1pY7gOExqiN2UxmdSFGC3SC9JFreArjT8rVnJwnQkQrvPDXlMM8HcJd+gM67BgBIr9XA91Zs/MJnN7szsnsH/WEUowUDdyBEBxIq8D1H4a4LYBgOJTCGFtbAbS4l4D5t2tqCWuLsWAC3LV97dpJ7JFIlCtIvUgkA0TNvgQAdAFJtS3a/91mUNJehz6t+978gRAeSrSZpgzLgKKIWweeohDErlAAIRStoGZ/MmIu6hkDS2oL6Z8eyUw/ItgsE6Eird56aWhJHuAGZn1Ip3IFOpxUASDeb27jPKAzRs2Tu7t3ohOhAkp+owxtsTZwRiqMhlDFn2dYHHmCEXErA/XoU1hbUWVuQI4J0IIu2FAbojDFItXeemnIllZnrA5m03M7nSgToAJB6l21t4x7J6jGx9cH/QYgOJFx0BrNDJXAEi5TAGJcSAPxcjND5YrkyQxnuFAXp7NQDsmNLUpUAHVnxzlNTTXGMCZA1l9r5nEMZACD1Atl/lnhWs4W52c1utf8/CNEBG+644YqlS1QCB1UsV0rK1nklo7QR+F6DMgD3jE0tSetUwhiHEtxrbUGupLNipx6Q+mFFUunas5OcC4tMuU6QDmTFlqQL7XyuTikAIBP3fMfmrqazm92SpGKGP0On/w+E6IAlAt+ri7amODh2oZvjUgKAn49xPqDjTmsLaoiAAUizVYU70FuUAll0/ampzvWnpkrM94HU2lJ4/jlzJwDIBifqLmz195Dxz3D32EVCdMAui+IFMh4gagnM+brmMNEF9hH4nit2CBu7fUddRLCHtQX1d+qtUg0gVS5d+9Jk7dqXJjkXFpl3/ckpRxxjAqRuyiSp0M7n6LQCANlg+znofdWMf47Ts5vdmkSIDtj15B22AKmKwAL3V5M0TRmMWI9aVgPY3wolMIYuIvextqDO2oJq4ogbIA22JD177UuTdUoB3Hb9ySlXHGMCpMVyO58rtfM5FooBQDasB75n/Xud2c1uQdlu5d5XlQjRAesMBOnAfhxKYIxLCYAHWqIExtSibiK4j7UF1SU9KwIGwNopjaTqtS9NsggL2MP1J6cakgqiCx1gq/755w6lAIBMzXHS0hmWLokDdSBEB2y8I4dnatDmDfcolisFSfNUwszEN2pVDeDBYxIvec2YFsdxHMjaglbEOemAjZYVBui0tQXu4/qTU53rT06VJF2mGoBVNsT55wCQNVuSatHmxzQgRA/NS4TogLWicI8JNe5GK2Bz2B0FHJxLCYxxKMHBDJyTvkw1ACtc9L406XD+OXBw15+cWlS4gJ7uK0DyrUoqcf45AGTKlqRqyo4DrfKxhmY3uyVCdMBi0Rkb61QCA9jBaA4tqoGDcymBMfNRVxEcQHROuiMCBiDJNiSVvS9N8mwFHEF0TnpVdF8BkuxiO5+rcf45AGSOE3VoTJMCH+uuGUJ0wH41JtMj0bLtCy6WKzVJc3x0RgQpfAACRvcDE7asYjewOXQVOaS1BbkiYACSaFVSyfsy7duBYVx/cqp5/TTt3YEE2pBUbudzLBQDgOy5EPheGjuZki/cViVEBywXBReO2H1luq4tC79sh0/OGJcSAIfGEQjm0FXkCNZeUnPtJREwAMmwJemC9+XJmvdl2rcDplw/PbUo6Vnm/0AiLIv27QCQVRei43aRcoToQApEO2YdKmHMhm1fcLFcmZF0jo/OGB6CgMOPRSs23j8Tai7qLoIjWHtJi5LOcj0C8Q0JCnef8zwFjMD101MrCttscrQbEI8tSc+28zmH9u0AkEkE6BlCiA6kRBReXKQSRti4itjhYzNmNerwAODwmERwX0+EtZfUkFRS2EoawPhc8r48WfK+PNmiFMDoXD891bl+eqoavQNgVzowPuuSCu18ji5cAJBNqQ7QZze7VT7iOxGiAykS+N6SOJPWBBtDdM7PNcelBAA/PwlwLuoygiNae0mdqy+pJtreAmOZikgqe1+erFMKYHyun55aUrhojF3pwGhtSbrYzueq7D4HgMxiB3oGEaID6bOo8CUWjq5h0xdbLFdKkub42IzYiLo6ADiCwPda4iWuSQ4lGN7Vl9Rve8uudGA0LnlfmSx5X57kTFggBtdPT7XYlQ6M1LrCs8+XKAUAZFYmAvR2Ptfgo74TITqQMlEb6iqT56FqaNtgwS50cwjQgeG5lID7e9JcfUmdqy+yKx0w/dgsqex9hd3nQBLcOMWudMCwcPf5XK7ansu1KAcAZHYsKLMDPbsI0YEUGgjScXhW7VKLWv3W+NiMYWU5MPwY5IqQ0pS5YrnCeG7Q1Rd3d6VfphrAkW2pv/v8K+w+B5Lkxqmp1o1T7EoHDFiVVGjPsfscADI+76kGvsecJ7s6hOhASkU39wtU4tBs24lckzTNx2bEetSKGkD27qVJ5lACs66+qM7VF7Uo6aykDSoCHO55SVKJ3edAskW70gviKBPgsDYkPduey9Xac5x9DgAZFkgqZDRA56jg25qE6ECa73bhbkB2Wh2ObcGPw0dmjEsJAGPYsWFOLeo6AsOuvqjG1RdVkHRJ7NYDHmRL0rPeVyar3lcmW5QDSL4bp6Y6N05N1cSiMeCgLkkqfTSXY0EwAGTbssId6FldTMUisttahOhAygW+tyjORDuoVZsGx2K5UpA0z8dmxJbYOQuYHHuaYuWqKdPi2I6Ruvqi6grPkGW3HrC3y5IK3lcmeVYCLHTj1FTjxqmpglg0BuxnXdKxj+Zy9Y/YfQ4AWXcp8D0nwwG6JDW4DELtfI4QHciImggzDsK2nZMOH5kxKxl/OAJGwaUExixSgtG6+qJaV18Qu/WAO61LOvbmVycX3/zqJM9JgOVunJyqi0VjwKANSc9+VMhVPyrkWpQDADJtS9LZwPfqlEKcAX97PixCdCADonDQEavO73tTDHyvYdnX7PCxGUPracA8lxIYU4y6j2DErr6gxtUXVJB0kecmZNiGpGff/Opk9c2v0rodSJMbJ6daN07utnhnoT2yakvSpY8KucJHBVq3AwAUSCpZmA2MCnUYqAMhOpCVkSBsrUs72P3Vbfpii+VKTdIcH5sRG9HPBwCz405H4TlSMIPd6GN09QUtSbvnpQNZsSXp4ptfnSy8+VVatwNpduPkVOPGyamSpAuiAwuyZVlS4aNCrk4pAAAK27eXAt9rUYpQO5/riMWWEiE6kD3RaqqLVOIeNu5CZ0GEOexCB0bHpQTGOJRgvK6+oM7VF1SXdEwsCEG6bSlcMFJ486uTPBcBGXLj5JSrsMU756Uj7VYlHfuokHM+KnDuOQBAG6J9+/24WZ8jt/O5hkSIDmRO4HtL4kXw3aza3VcsV2YknedjM4adVsDoxpyG2N1kynTUhQRjdvUFtRovyFEYpq9TEaTMsqTSm787WefccyCbbpyc6kTnpRdEmI70WZd09qNjuRrnngMAIpdF+/YHWeH7DxGiAxkU+J4jWnL0XbKwlbfDx2bMKu16gJFzKQH3/zRohGF6VeE5soTpsN2ypGNv/u6k8+bvcu45AOnmF6Y6N7+wG6az8B6264fn1Y+OhTvJAACZ1999vhgdQYh9tPO5lrL93mO3QxshOpBdVbHCPLC0ZYvD5WuMSwkAfs4scq5YrhQoQ7waX1Oj8TXCdFiL8BzAfUVhuiOOM4GdCM8BAHth9/nhuRn9voN2Pre76ZIQHcjqnSBcbVVVdoP0LVkYRhfLlZKkIlewmWsg8D1auSSTEqwAAAnbSURBVAOjH29aCs8ghBm0dE8IwnRYhvAcwKHc/MJUayBMvywW4SPZCM8BAPuND2V2nx9eO59zlc0jGpcG/wchOpBhURvzxYx++46FbdyV4c9rFFxKAIwNC1YYB1JrIExnxx6SZiu6Jo+98RzhOYCjicL0RXFmOpJpVdLZTcJzAMC9c6ELge9VLc0AkqKese93I1o8sIsQHci4wPdchavKs+SCxTuQ2YFozhIlAMY61vDC1Yy5YrlSpQzJ0/iaWo2vyRE79hC/LYVBV+GN5yadN54jPAcwvLvOTL+obO5MQnIsSzq2+Xiutkl4DgDYYy4UvYvCEDK4G/2ejSuE6AAU+N6isrNz6oKtA2ixXHEkTXPFmrnsoxbTAMaHyYs5DiVIrsbzE63G8xP9HXuEDBjr842kC288NznzxnOT9Teem6RdIQDjblamOjcrU0s3K1MFSRfEkSYYn34w8snNx3PO5uM55vQAgEHLCs89r9O63SgnI9/nejufu2fjJSE6AElS4HuOwhdvaXbB8hVoDleqMexCB8bPpQTGnC+WKzOUIdkaz090Gs9PLDWenyiIkAGjtSzp7BvPTZbeeG6Sey2AsblZmXJvVqaqksriSBOMzrqkC5uP52Y2H8/VNx/PEYwAAO6eDx0LfM9h05R57XyuofD4lDTb0j7ZCyE6gEHVFE98rQ7Qi+VKQdI8l6gxnM8MjFl0BlVAJYzheA+LrD8/4a4/P1EVrd5hzobC3XjHopbtDUoCIC43K1PNm5UpR9InRRcWmLGl8P1UefPxXHXz8TvPJwUAQITn4+Qo3e8x6u383h1uHuazB9AXtTlxiuWKJJ1P0cSrGoU3tg9UMPSARUsfIDZLkq5QBiMWxe5+66w/P9GKPrvF+dd6TjS+s0gOh7EqyX3j9yZZEAggcW5WpjrR897SiWs71WicO09lcAhBdA2tbH7qE8zbAQB7WZZUJzgfn3Y+15nd7NYkXU3jHLudz+3btZad6ADunbGErd0vyP7VReuSCikI0CVCdJNcSgDEhtDHnGKxXClRBosfUv5kwl3/kzt2p7NrD/s+nivc2fnJN35vskaADsAG737+0ca7n3/UUbg7/YLoSIT9bUXPQuXNT32itPmpT7gE6ACAPcaKS5I+yc7zeERt3S+mcK7t3O8/mOj1eiqWKw2xA+J+1gPfq1IGZE3UQty18P6wpXA12lJKPoeapB9xRRqxEfhegTIAsd7TXLEjyZTLge8tUob0mH+tV9WEHIXt+qf3+m96Ew/4Qw746z0N9+cM/3Xc/gp6Q3wfd3xNh/n9Jv+sYX7//r+2IWmlN9Fz3/i9ySY/HQDS4MS1nUI0zjmS5h50Xxx2fDjS7z/MmDn0+NCLbRwedpwz8LVsKVxgu7LxxCdYHIYkzlt7VAFIhEDSks3HtKbN7GbXVTre621JKu3Xxr2Pdu4A9h+hwhVd1WK54ihspzVtwZe9LGkxZe26OffWHB64gGT8HBKim+EobA2OlFj/k4mGpIYkzX+rV4ueAWqWPIPBzCR+RZL7s99/qEE5AKTNu59/tCWpLql+4q2dUvQsU9N+gTrSaFW3w3N2mwMA7jcvWkpJh9lUaedzzuxmV7L73d6WpOqDAnSJnegHxU50ZF6xXJlRdIankvkid11heN5MYd1/zRVozDHa/QCJuLe1xMtSUy6wIjv9BgP13sQDnsPYiX6w32/yzxpuJ/qGwhdEjZ/9/kPsxAOQSXcE6hO3nxHZiT66cXiMO9G3NBGOcyI4h11zVnaiA+O3KmmFdxx2sHhHej9AP1COxE50AAcS7eyuF8uVJd3e+ZaEAGRZYev2VkpLzy50gw9iBOhAYriSXqYMxsYJJpgpt/6fJlYUBq068+1eVbd3qLMYxdJH6+jzXPnZ7z/EzgoAmffubz/aVLRo/8TbOyVJVYXvHYpUx0ob6ofmx2nVDgB44NxoSWF4zkIri1i6Iz2Q5Bw0QJfYiX5Q7EQH9lAsV+JqvxYoDAzctA+uxXKlyYsDY9itCSTn3laQ9CGVMIYuGxl15tu9QvQcVpV0LpzhPWgGGP6NnegG/6wH//4tRWGCpMbP/s1D/LwCwAEcf3tnZmCcq0qaYye6mXF4BDvR1/vj3MbxT7BADGmYs7ITHRid3aM9CM7tN7vZdSRdseBLXZdUa+dzh7rmCNEPWFxCdOCBD5elgYltVeZbvq8qevmYlaAgqqnP1WXEVuB7M5QBSNQ9bkX90A/DuhT4Xp0y4My3e1VN7IYNey/CI0Q3/2ft/fvX+8+uP/sDdpsDgAnH394paeIB7x0I0Q/2+4f8PhRubmhIarROsNscqZyvEqID5ux2KJHUIDhPn9nNbknhpsekbga81M7n6kf5jbRzB2BEdBZ5U2H7lf4uw0I0sdXA36X9F+1sSGpF/9yI/rmZtnPOD8HhyjLGpQRA4hCimx0v6pQBf/MfJxrRM5TOvN6biZ6/+gsdWTQ9Ov2d5k1JjZ/+wUMNSgIA5r33uUfveO9w3N8Z9WJ+3LbeH+cUBucEIACA/fRD84bC0LxFSdKtnc81Zze7VYXH8yTp+MZDt2+/GzvRD/igyE50AONWLFc6vAQwppzhxRgA97lsOBv4XoMy4H7OvN6rakIlSaVevy3uvjPF+/9ZGd+J3t9915TU/OkfstMcAJLguL9TiHaq98e6+UOPL3v8txncib6h24F5s/XpT/CMiSzOVdmJDhxcf6FVU4TmmTe72S0o3NAWZ+a8JWmxnc+5w/5BhOgHvAkQogMAAABIk6e/05tRFDREfxV254WE6P2Jd1MTuy+EWj/9Q3aZA4BNnmjulO4Y68LFZAdbxJmNED2IxrmWbofm7DJH5hGiA3va0u2wvCmpxWJ+7CfamV7XeLPnDYUB/tJhzz7f95Gq12M8AAAAAACEnv5Or6QJ9dvBF6K/7ggdUhai948U6ocIzZ7U+um/fajF1QAA6fNEsDO4iGxwvJvba6xJSYi+Ho1xu+Nc6zOfoJMKsA9CdGRYPyjvDMyPWgqPXGWRFQ4t2pm+qPAowlF1o1yVtGJi5/k9j1SE6AAAAACAg3j6z3pVSeqF7XKl2wFEQYPhQ7JC9PXo763or/4Loc5P/ohW7ACA254IdgrqLyCbCP/eC/+3dPdOquSE6P3FYFK4m1yaCP/+4WdoxQ4cRdS5F0ijwWu7Py+Swl3lLcqDUZrd7NYULl6sSioO8UdtRdfyisLwfGQLPAjRAQAAAADGfPHPd3eyS2HAXrrrPylpotf/9aOG6P3dERr4cxqDv/6TP3qInRIAAOM+9XfRTvaJgXFNu+Pe7bFvuBB9MNjoa0V/qTehzoe/xU5yAABgp9nN7t2dge5+nho02B2h2c7nWuP6Ov8/1mtBucNb7rIAAAAASUVORK5CYII=;" vertex="1" parent="1">
          <mxGeometry x="39" y="882.23" width="274.03" height="53.54" as="geometry" />
        </mxCell>
        <mxCell id="1sbAId068Rb1XJULJWD3-3" value="" style="shape=image;verticalLabelPosition=bottom;labelBackgroundColor=default;verticalAlign=top;aspect=fixed;imageAspect=0;image=data:image/svg+xml,PHN2ZyB4bWxuczp4bGluaz0iaHR0cDovL3d3dy53My5vcmcvMTk5OS94bGluayIgeG1sbnM9Imh0dHA6Ly93d3cudzMub3JnLzIwMDAvc3ZnIiBoZWlnaHQ9IjIwMCIgd2lkdGg9IjIwMCIgdmVyc2lvbj0iMS4xIiB2aWV3Qm94PSIwIDAgMTAyNCAxMDI0IiBjbGFzcz0iaWNvbiI+PHBhdGggZmlsbD0iIzRhOTA5YyIgZD0iTTcyMy4yIDUxMi43NjhhMjI0IDIyNCAwIDEgMSAwIDQ0OCAyMjQgMjI0IDAgMCAxIDAtNDQ4eiBtNjQtMzUydjI5NS4xMDRhMjg4LjgzMiAyODguODMyIDAgMCAwLTE5Ni4wOTYgMjQuODk2SDU0MC44YTU3LjYgNTcuNiAwIDEgMC01Mi40OCA4OS40MDggMjg4IDI4OCAwIDAgMC0yMi41MjggMzcuMzc2IDEwMC40OCAxMDAuNDggMCAwIDEgMzMuNDcyLTE5NS4yaDI5Ljc2di01OS41ODRINDk5LjJhMTYwIDE2MCAwIDAgMC0xNTYuOCAxMjhIMTQ3LjJ2NjRoMTk1LjJhMTYwLjMyIDE2MC4zMiAwIDAgMCAxMDIuMjcyIDExOC40NjQgMjg4LjM4NCAyODguMzg0IDAgMCAwIDIwLjQ4IDIwMS41MzZIODMuMnYtNzA0aDcwNHogbS0xOC4wNDggNTAyLjUyOGgtNDIuMzY4djgxLjkyYzAgNi43ODQgMS4yOCAxNC41MjggMy45MDQgMjMuMjk2YTUxLjAwOCA1MS4wMDggMCAwIDAgMjMuNjggMjcuNzc2IDU3Ljc5MiA1Ny43OTIgMCAwIDAgMTkuNzEyIDUuNTA0YzcuOTM2IDAuOTYgMTUuMjk2IDEuNDA4IDIxLjk1MiAxLjQwOCAxMS41MiAwIDIxLjUwNC0xLjUzNiAyOS42OTYtNC42MDhhNDcuMzYgNDcuMzYgMCAwIDAgMTcuMDI0LTExLjMyOCA0OS41MzYgNDkuNTM2IDAgMCAwIDExLjkwNC0xOC45NDRjMS42NjQtNC44IDIuODE2LTkuODU2IDMuMzkyLTE1LjA0bDAuNDQ4LTh2LTgxLjkyaC00Mi4zNjh2ODMuODRjMCA3LjY4LTIuMTEyIDEzLjU2OC02LjMzNiAxNy43MjhhMjMuMTY4IDIzLjE2OCAwIDAgMS0xNy4xNTIgNi4yMDggMjMuNDI0IDIzLjQyNCAwIDAgMS0xNy4yOC02LjI3MiAyMS45NTIgMjEuOTUyIDAgMCAxLTUuODI0LTEyLjI4OGwtMC4zODQtNS4zMTJ2LTgzLjk2OHogbS02Ny41MiAwSDU4Ny44NHYxMzcuNDcyaDExNS44NHYtMzEuMTA0SDYzMC40di0yNy4xMzZoNjYuMTEydi0yOC4wMzJINjMwLjR2LTIxLjgyNGg3MS4yMzJ2LTI5LjM3NnoiLz48L3N2Zz4=;" vertex="1" parent="1">
          <mxGeometry x="83.00333333333337" y="273.0033333333335" width="200" height="200" as="geometry" />
        </mxCell>
      </root>
    </mxGraphModel>
  </diagram>
</mxfile>
